<mxfile host="app.diagrams.net" modified="2023-09-28T09:21:37.369Z" agent="Mozilla/5.0 (Windows NT 10.0; Win64; x64) AppleWebKit/537.36 (KHTML, like Gecko) Chrome/117.0.0.0 Safari/537.36" etag="eK0iyDE2DcfMgG0eWgUI" version="21.8.2" type="github">
  <diagram name="Page-1" id="3TQBXPgc-xJPqMAQ9SoV">
    <mxGraphModel dx="2600" dy="2085" grid="1" gridSize="10" guides="1" tooltips="1" connect="1" arrows="1" fold="1" page="1" pageScale="1" pageWidth="850" pageHeight="1100" math="0" shadow="0">
      <root>
        <mxCell id="0" />
        <mxCell id="1" parent="0" />
        <mxCell id="blwYtq8k7Kkv4hBBUEDL-17" value="Prepare to test" style="rounded=0;whiteSpace=wrap;html=1;strokeColor=none;" vertex="1" parent="1">
          <mxGeometry x="421" y="-20" width="120" height="60" as="geometry" />
        </mxCell>
        <mxCell id="blwYtq8k7Kkv4hBBUEDL-18" value="Test model" style="rounded=0;whiteSpace=wrap;html=1;strokeColor=none;" vertex="1" parent="1">
          <mxGeometry x="610" y="-20" width="120" height="60" as="geometry" />
        </mxCell>
        <mxCell id="blwYtq8k7Kkv4hBBUEDL-15" value="EMG data" style="rounded=0;whiteSpace=wrap;html=1;strokeColor=none;" vertex="1" parent="1">
          <mxGeometry x="60" y="-20" width="120" height="60" as="geometry" />
        </mxCell>
        <mxCell id="blwYtq8k7Kkv4hBBUEDL-16" value="Detect class" style="rounded=0;whiteSpace=wrap;html=1;strokeColor=none;" vertex="1" parent="1">
          <mxGeometry x="240" y="-20" width="120" height="60" as="geometry" />
        </mxCell>
        <mxCell id="blwYtq8k7Kkv4hBBUEDL-12" value="Train model" style="rounded=0;whiteSpace=wrap;html=1;strokeColor=none;" vertex="1" parent="1">
          <mxGeometry x="330.5" y="40" width="120" height="60" as="geometry" />
        </mxCell>
        <mxCell id="blwYtq8k7Kkv4hBBUEDL-13" value="Real-time electromyography" style="rounded=0;whiteSpace=wrap;html=1;strokeColor=none;" vertex="1" parent="1">
          <mxGeometry x="520" y="40" width="120" height="60" as="geometry" />
        </mxCell>
        <mxCell id="blwYtq8k7Kkv4hBBUEDL-14" value="Result" style="rounded=0;whiteSpace=wrap;html=1;strokeColor=none;" vertex="1" parent="1">
          <mxGeometry x="703.87" y="40" width="120" height="60" as="geometry" />
        </mxCell>
        <mxCell id="blwYtq8k7Kkv4hBBUEDL-11" value="Classification" style="rounded=0;whiteSpace=wrap;html=1;strokeColor=none;" vertex="1" parent="1">
          <mxGeometry x="150" y="40" width="120" height="60" as="geometry" />
        </mxCell>
        <mxCell id="blwYtq8k7Kkv4hBBUEDL-10" value="Electromyography" style="rounded=0;whiteSpace=wrap;html=1;strokeColor=none;" vertex="1" parent="1">
          <mxGeometry x="-30" y="40" width="120" height="60" as="geometry" />
        </mxCell>
        <mxCell id="blwYtq8k7Kkv4hBBUEDL-4" style="edgeStyle=orthogonalEdgeStyle;rounded=0;orthogonalLoop=1;jettySize=auto;html=1;exitX=1;exitY=0.5;exitDx=0;exitDy=0;entryX=0;entryY=0.5;entryDx=0;entryDy=0;" edge="1" parent="1" source="blwYtq8k7Kkv4hBBUEDL-1" target="blwYtq8k7Kkv4hBBUEDL-2">
          <mxGeometry relative="1" as="geometry" />
        </mxCell>
        <mxCell id="blwYtq8k7Kkv4hBBUEDL-1" value="" style="shape=image;verticalLabelPosition=bottom;labelBackgroundColor=default;verticalAlign=top;aspect=fixed;imageAspect=0;image=data:image/png,iVBORw0KGgoAAAANSUhEUgAAAIAAAACACAMAAAD04JH5AAAAaVBMVEX///8AAABeXl78/Pyurq5oaGjW1tbOzs7x8fH09PTZ2dm8vLyVlZXT09NVVVXt7e1ycnLh4eGPj48oKCjDw8O0tLQ0NDR7e3saGhoQEBCHh4eoqKiioqI9PT1jY2NtbW0hISFMTExFRUUqfSHbAAAGgElEQVR4nO1bCbOyOgw1ArLKLpuA4v//kS9p1Y+lRUTsnTfjmbkzV60kbdPkJKm73Q8/rIfjptrfSdfcDACS41/Jd3zgOP/NItTwRJeqF2/70EeiK5bvNDBCYqqUbyZj+YhYnSmkAvGIUJV8TywfoFYi3t7L5EOhQr41Mb8eFMjXshn5pQL5c/OH/PsKtHPyIfq6fKn9M3zfGx5n5cdfl78T+b8nvO/Ln9uARkEoiOTifdf+vvxdKBZe7HVHgXSJBfpnU1kM9MfCy7ZWycXMkfg4sNRSwbEPPCmVvtsF4w1QTQLzP1ZgsgBwVqvAeaKAGvr1gNZNFFDg+nsYn0FQEvt6mJggQKVSviaIw8qSAIIoEbmoVEAUBw2VCgjkK1VAcAYwECtUoBIpcFMnX5wMZeoUEHPBRJ0C9UcKaFZgfaiAOB17KhDVVRWGeeWJ2GFa7bMyaz9iL4E4HeEKBHX/02pIj9N//uOTQys8hNwIg0mM2B8eXzsMz84HoUN4CJkf0K+C9ytKUYLThEOvz5wlFYFQkyQqSeWF5fTt1WYQFZIVmC1VTLF6D05Lni5Rso/9WgUEXGQE/xRYwcG7zY/q1irwSnxz2GmmmwZ46ubqV9CslD/l40N4O5fXDYs4EHDnzxWYeyZKTdPe9rfHSL4I2coKwrwJxKPj3p6kZyNZFxFm65IgOO7S8UmwSgFrdgHewUoFJIX5FSjW+eJ4MwXKdYWky3YKHF5Lm0KbBLX1WNVeDGYPgQIFIsFBU6qAs538/6kCM+VhRQqIWJ9KBexuM/krHdFrPrQUK2PBdkawNpsWJ4YrsMoTEzYKR+5a+ZiabeGOP5CPOH3skD/taGn6m2nQEPt1B2AA232Rd8hRbnXJxlznE8ING8raSZIQy1Ft3c/WjnE728Dtw9C/0tbSgsiNDf/WZMm1LPsH5HoLdTc9Hg8Ix3E2ML1ZPewgilDM4WhyHA/RH95r++GHb2DRKbIXGv6K4kB6XVBYs27Lil/x+4wwKOH6elQH5ZKF0lf0OTH4FS/Xjaq4C6gGpTfvdvlY5HvF5F0a9LqJbVMdy3/PS+Kjq+ZR3nUk38XM1TAe/cNIvhUtFBVk/PNgWXQMEvB3/r1BXsvaxHsA7XzvHTnyOuAJQLce1fIMFlljB2DhLoT80ShHNMgDSKmZwF409EKIiO3/nRZ6yzquMRuu8wuSxIlFdwWOrIGOjw/4N6AVPsvO2Bpl7BkHWFSsMnlv/sgmp8PVh9t0Cewr7DVWQklZPffGNZngAmzRczZzfFIhtFrNdPV/yLjJRrRvaMF5wNMa16vyMLyEFSL29nwqmk8n/AJNlLGjbro1DkPgEEJ49wBnSs3QtE2PNZuCNGUSXTdlJj6memwuVoNnPKYXHXUbJjfZzPsMK1oyF31CZ4v6S9xVupBpGpn2gWZj93MduobpVCFhv28Nwwjzu6G24DnsnKOpW7gM3f4ONujugDzYWxntf0Aq4Yb3BhlhWHm8Ru1AGVX4t2OzwWk1za3zcdRlQFuHW4371rEFs1GNC01QYxgMwqnl/Ix1ELr0n2AQM5mYGzO6ZbPA/4TDhmCJccrXAmTHLHisIj65TOSdIVr0hjXUMMjAdZFfpA017tOUtutteAQNiwiyNHzsn2GDDG7ZLSh8dsGPlnaV9v2olno3h3zuwfWze+osbmBpt2ezT5fHnPh5mzgqZi41HKB8tEy6xdWa49MDanL3ZcXPXkww15U5PUsk1pczlh9++A7cQkIQUynhtpsNrxweZe13U3qvD73IbbPr1vSzBgEpoVlKr4egXyw3q88wko7TiYzRIw18P8EPnMvYuSAVvVL8svMN7v/iOp9LYinJiPihlJoFoAnXxJhXh+S/ww1++eIQrfJxOkQ9+yYXEV25Yf6ST7hmh9HTwyiRLg59U5gex6UgjlhBHVBr2tsdcr/rkM20Rkb7n8M5og/OOzNsEcSEDJ8UcpEHJoyURZwgem/9ONLuVeMsol6tAUYK112vLkYBzoPwArkLyfCqg0s7lyGZwzWIjCGPXAhiroQ0pdVlXewI2WQDxSXP4xo57Yksj11ysYIr2lyh617s1Wf8hOgTu4J1QivAo0Lvueknp4LmV/F8eDgN6qnEnOeMexIouNOY6ltcwcV9tlhuM86t+O2Mg+BnTgZPsFffnhjiwlipZkzoTMvpaj7lOS6f+bnc5BehtsznW/eVn1q4dpR98sMPQ/wH+mNTH1HIYwcAAAAASUVORK5CYII=;" vertex="1" parent="1">
          <mxGeometry y="-3" width="60" height="60" as="geometry" />
        </mxCell>
        <mxCell id="blwYtq8k7Kkv4hBBUEDL-5" style="edgeStyle=orthogonalEdgeStyle;rounded=0;orthogonalLoop=1;jettySize=auto;html=1;entryX=0;entryY=0.5;entryDx=0;entryDy=0;" edge="1" parent="1" source="blwYtq8k7Kkv4hBBUEDL-2" target="blwYtq8k7Kkv4hBBUEDL-3">
          <mxGeometry relative="1" as="geometry" />
        </mxCell>
        <mxCell id="blwYtq8k7Kkv4hBBUEDL-2" value="" style="shape=image;verticalLabelPosition=bottom;labelBackgroundColor=default;verticalAlign=top;aspect=fixed;imageAspect=0;image=data:image/png,iVBORw0KGgoAAAANSUhEUgAAAgAAAAIACAYAAAD0eNT6AAAACXBIWXMAAA7DAAAOwwHHb6hkAAAAGXRFWHRTb2Z0d2FyZQB3d3cuaW5rc2NhcGUub3Jnm+48GgAAIABJREFUeJzsnXeYJUXVh9+Znd1lFxYWWFhyzjkjIlEUBBQMBCWriCigAp+IARBEQFQkiYpIFJQkIAKKCkgSJErOOadlc5z7/XHmusPszJ17qqu6+/b9vc9znl3Y7qrTfburT1WdAEIIIYQQQgghhBBCCCGEEEIIIYQQQgghhBBCCCGEEEIIIYQQQgghhBBCCCGEEEIIIYQQQgghhBBCCCGEEEIIIYQQQgghhBBCCCGEEEIIIYQQQgghhBBCCCGEEEIIIURb0FG0AkIIIQplPmBfYEtgEWBokcqIJIwDHgUuBv5dsC5CCCFKwHbA20BN0jZyHjAXQggh2pYtgOkU/0GS5C9XAB3aAhBCiPajC1sSXrFoRURhfHZI0RoIIYTInY8C3yxaCVEoozuL1kAIIUTubFC0AqJwNpABIIQQ7cfoohUQhbOADAAhhBCi/eiQASCEEEK0ITIAhBBCiDZEBoAQQgjRhsgAEEIIIdqQrqIVEEIIUXpOAy4oWgkxKPd4DpYBIIQQYjBeAe4tWgkRF20BCCGEEG2IDAAhhBCiDZEBIIQQQrQhMgCEEEKINkQGgBBCCNGGyAAQQggh2hAZAEIIIUQbIgNACCGEaENkAAghhBBtiDIBCiGESMkOwP7AhsCIgnUpK93Ai8A1wKnAe3l0KgNACCFECoYB5wJfKFqRFmFBYF3gq8BOwF2pO9QWgBBCiBScjj7+IYwFrgOWTd2RDAAhhBCxWR9b9hdhLAAcn7oTGQBCCCFisyfQUbQSLc6ngblTdiADQAghRGzWKFqBCjAXsGLKDmQACCGEiI1m/3FIeh9lAAghhIjNY0UrUAGmA8+k7EAGgBBCiNhcUrQCFeAvwPiUHcgAEEIIEZs7gIuLVqKFmQAcmboTGQBCCCFSsD9wbdFKtCDjsAiAJ1J3JANACCFECiZjGe32AG4BphSrTqnpBp7H0gCvDvwjj06VClgIIUQqurGtgPp2wLzAkOLUKS0TgJl5dyoDQAghRF4kdWoTPrQFIIQQQrQhMgCEEEKINkQGgBBCCNGGyAAQQggh2hAZAEIIIUQbIgNACCGEaENkAAghhBBtiAwAIYQQog1RIiBRFjqAhXtkMWAssAiwKDAamLvXnyOxjGLz9vx9ZBPtTwcmYYlIpgITsexbU3v+fBt4E3gLeK3P35W8pLX4MPANYDPs+RHF0QHsjtUF2Ah7f8WczAReBK4GTsbGneR05NGJED0sBqwALN8jKwDLAYtjH/6yGqRTgVeAZ7H63HWp//fE4lQTfTgaOAqtbsbmCOAnznNGAH8APhVfnUrzHvBZ4KaAc2ueg2UAiBQsC6wDrA2sCayIffCbmam3Im8ATwEPAQ/2yMPIMMib/YHfFK1ERQkxAC7CCgEJPxOADYAnnefJABC50QWsxeyP/do9f5+vSKVKQje2QvAAs42Cf2PbCiI+i2PlU7XEnAavAbAJcEciXdqFK7GVAA8uA6CsS66inIzCXuxNgY8AG6MBdyA6sS2OFYDP9fr/T2AD423A7eRQ87tNOBE9i2XiC0UrUAF2xMbcCak6kAEgGrEQsDWzP/hroVKeWVm5R/br+e+3mG0Q/ANbMXBZ8YIPoaXmsrFK0QpUgGHYBOL+VB3IABC96QTWBbbpkS3RM5KahYCdegTMILgZ+DtwLfBqMWq1DB3AqWg7U1ST7pSNa3AXiwDb9cjHgAWKVaftWQjYpUe6gXuBG3rkLmBWcaqVkr2x8DJRLh7BJhEinGlYlJEQUVkS+Ba29NyNLTlLyi+vA78EtkJbMQDzYCskRf8u7SDfbvI3qbMBGluyyiXOe05AH6JNWAo4FLgTvZhVkLoxsDXtawz8mOJ/h3YRrwEAcHYJ9G5VeRcLp/bi7UdUmEXRR78d5A3gLMxRs11YDphC8fe+XSTEABgOXFwC3VtNXseirULw9iUqRhfmUHY1MIPiH2ZJvvI4NlgvQrW5kuLvdTtJiAFQ55PANVh6W01E+peJWATQsWTzw3L1K8/Z6rAKFlq2N607+E/DcvC/is1qX8Os4bewWNiJWF7+cczO5T+559yJmMHTH/MAQ7GY2i4sUVEnVltgAczxbgywYM+fY5hdk2DhiNeXJzOB64Bzev6cWaw6UdkaC5n08hvggMi6tCon4fuoh2QCFPlT8xysKIDWZi6s0MaXsVj9stMNvAw83SPP9Pr7K8A7ifqtp+R9L+DcEdhe3NI9slTPnysAq2JGRRnpwnKwfwozoi4AfgU8V6RSERgC/CLgvHHA9yPrIoQQubMItlT0JsUvXQ0kr2AzzxMwI2V1bE+wSnQAywDbA/8HnAf8BzM4ir7//clM4AqsSl6rciBh135oEcqWmJPw3b8sWwAiP7zvhWgh1gXOx5bKi/6Y9P3YXwochsX+LpTqBrQIQ4A1gC9hy84PUD5/jP9g6VqHJroHKZgf2w7yXuvjtNZ15oEMgGoiA6BidAI7Y9nhiv5o1LBENP/FQtD2JCxUpR2ZG5t5H445RL1P8b9lDduS+Q6tkQDqVMKucfsilC05MgCqiQyAijAE2AubvRT9kXgSOAPbT1alvzh0YTnsv4c5tBUd0jYR+BkwNuVFZ2A1YDr+67quCGVbABkA1UQGQIvTBeyDfXSL+hiMw8KsDkAz/LwYAXwU87R+guJ++0mU0xC4Af+1TEdFaQZCBkA1kQHQonRhYXxPU8zA/xJwGioAVBZWwUKvbse2XYowBH5OOUJKP0nYNZxShLItggyAaiIDoMXoAr6IhcTlPcg/C5yMLUUrJ0R5WRhzKLyWsGXwVjYEhhG2GvYWludB9I8MgGriek800yuWHbEXcbUc+3wFuAjz2r8vx35FOG9iCX3OwSIsdgP2wAy31IzECkd9BTMWf4oZBXlxCLBiwHk/wLayRHkYAsxbtBIlZTr5vleiQNbDHL/ymsVNxnJyb0v7Fo6pIisAR5Gvz8DLwL5YdEpqxhIWLfEges4HI68VgC7MeLyHYrayWkneAn6L1bkIxdunyJGlsIxseb0ItwP7I8/9dmATLBHRZPJ5tu7DyhKn5LeBuqXWqwrkYQCMIt+JTlVkArBDwP0moC+RA/NiGfHyGJzHA2diaWpF+7EAtmSf16rA1cDKCa5jPcIM5SsS6FJF8jAAVLApXCZhycS8ePsRidkV23dP/cA8CXwD7bEJowMLK7yM9I6D0zHfgLkj6n5rgB5TUNhqs6Q2ALZwti+ZU/7svOcE9CESsTxwPWkfkFnAX4DtyGdPVrQmS2Af6PGkfR6fxxxbs7JbYP8/jtB3u5DaAPils33JnDID//attw8RmWFYdreUy/3TsZoAWuYXHkYDR2JlllMOXJdjpZRDGAm8ENDnK1jZZ9EcqQ0A7f3HkfWc993bvojI5sDDpHsYpmFOhCFhUULUGQbsDTxKumd1IpbIyOuNf0xgf3s7+2l3UhsAf3W2L+lf1nLed2/7IgLzYjHa3aR5CMZjKWLLkJVNVIdOzEflMdINYHcB6zSpz5KY81NIH0pk5SO1AfBTZ/uSOWUytiLmwduHyMjWhC1ZNiOTsH3N+XO7GtGODMFm0M+S5jmejm2LDbYacHFA293kkxCpaqQ2ANZCcf9Z5XznPcfbhzIBhjMCOBE4mPizjxnA74BjgVcjt90qzIslglkIGNMji2BOMaOB4Zh1PApb0m7kLNONJZSZiFnVE3v+ezKWLe5N7D6/CbwBvBP9asrNLGxr6RIs5fD3gcUjtj8U+BEW27w3Vu+iL5sCuwe0/Xvg3+GqiUT8Fzgdi0wSft7EjGZRQjYiTZnebuCPtMce/yjMweWzwOFYueG/YPvSRZfGnYYVR7oVs8KPwlLvboLl5a86c2G5BN4i/r2dgGWG600nlinO29ZE4hoq7UQeeQC6gF87+5HYinKz22Z9cfWlFQAfQ7GPwXeIXzHvHz3t3hO53aIZhkUrrA6s2fPnGsAylHffdhgWOrcE8JF+/n08NsN5CEs7W//7xLwUTMxUrJLeucDRwNexZz8G82AfhU8BXwZex1ILrx/Q1omY978oJzOxkuK/x4y+DWgPAzqEKdgW3NXAWaguQOlYFvgP8a2954DP5HgdqVkW+AJwKuaclXf1uqKkG1vavhjbFlqf6pRVXoU0OS3eBPYkLCzxOWwbToShaoDVxPseiSbYCXiXuIPfFOCHtPYg1gGsDRyGWa6vU/yHuEwyEbgJ2//+BPEy5RXFDuRbeKiR7JL4WquODIBq4n2PRAOGYuEsscP7riJbxaciWRpzFLsEc5gr+kPQSjIV2+o5AliX8m6BNGIYZvBNoLj7eHPqi2wDZABUE++7JAZgSayaXsyB62ksbW8r0Ql8GMtDUJbZX1XkDeAiLPVtq2WxWwpz2sz7ns0k3EFKzEYGQDXxvk+iH7Ym7nL2LMzxqVUG+SGY89up5FPISGJbQjdiYVOt5Ci1C/muBP0qn8uqPDIAqon3fRK96MC8nmMmsHgMCx8rO51Y9bjzsBj5oj+I7SzTgb9hXvLeYiBFsCAWLpn6voyjtYyjMiMDoJp43ynRwwgsBj/WYDUDOAGLqS4zq2PhVC9R/IdPMqdMxsKotsWfVz9vPo5556e6F4fmdymVRwZANfG+UwKrXBYzxO+/hMU158W8wEHAfRT/gZM0Ly9jxtoqc/6kpWFebBUp9rU/gTkgijjIAKgm3veq7dmAePvc3cAvsDS1ZWRNLMlEkR7ckjjP2T+AnSnvqsCuxA2d/U2+6lceGQDVxPVeVSVRSSi7YtnOvBWX+uNNYD/gughtxWQolmjoa1i54lahhiWIeQnLzf9uL6n/dz2vP1iI3ZSev09hdn6FLiztMMyuH7BAL1mw198XxaI/ymrA1enAHFXrhah+iVWjLFMNg0uBOzDfgK0jtLc/5ptzUM+fQoiMtGIccgw6sJS+RxPnHvwVS2f6eoS2YjEKS7/5LcqbL30S5iT5CLZ3/Bz2wX+x58/pBejUgRUdWhoLdVsKS1u8CpbCeGwBOjXDFCwL4c+we1oWOrG8AT8izhL+tVjRIKVKzcZJ+Gb1Z2NGnSg3NxatQNkZgj3MMZYlp2GOSWUypBYCjiN+5sKsS9aPAhdiSXA+iSVCKtN9a5YFgS2AA4EzgduwlYii73FdZgGXYYmGysTBxLvG/2BGmgjHuwUgqaa0FcOBK4hz457DqtmVhaWx8puTKP6hehtLEnMU5r0+OuF1l4GhwIbY8vSFwJMU/xt0Y7/Bpgmvu1mGET+J1HNYkSkRhgwASY02YhTmOBXjpv0NmwmWgUWxUrrTKO4heh+rBXAQ5fZQz5OFMB+Ts0kbGteM3AxslvRqG3NYPzrFkHfov1qjGBwZAJIabcJChNUb7yvd2ItTBs/r+bE8A0XM+GdiaZKPwWaY7e5M2gwrYo6Yf6K4REt/xvwY8mRhLIFPqmuahOUfED5kAEhqtAFLA4+T/UZNoBwVyEZi++h57/HPxPa7v4GtOohwhgPbYKmWQ0rhZpFZmDNXXsWoYvnbNJJpVKukdh7IAJDUqDirEifD3VPkP3PqSwewF/Aq+T0ck4Ere/qt+j5+UXRhKZjPIN+6C1OxiIH5E17bOpjhmMf1TMeKKonmkAEg6abCrEKc2dVNpB0km2EDLKY6rwfjDiyEsBXy0FeJIVi1yEuwsL48fus3gS9i4XqxuTmna6jLTCwXhxicIyj+AyQpVt6ioqxMnJnyRRSbfnRhbAk1ZnGigeQVyp9mtp2YHws1vIt8BoM7iZu+epec9O4r3cDXI15HVdmS4j9AkmLlWirIisRZSv0RxcWpd2Jx0+8NomNW6QZuAHakHI6Non9Ww7YIUqdwnoWlil4go74jCIt8eBXzjXgrwrV8I+M1VJ0hwMMU/xGSFCc7UDFWIPue/wzgS3kr3otVMQ/7lD/8RCx9rGb7rcV8WOKpZ0n7fLwFfCGDnt8P7HefnvNXinCN3cBXM1xDO7Ax+W01ScolF1IxlsNSyGa5KeOxxDVFMBT4HuaclepHfw44HDn0tTpDsEJA/yTtIHEV/oiPxTED09vX3XzQD2ERslernIV8AgZjc6zKZNEfJEk+MgtLGDcUWjMVa38sA9yC5W0P5U3s4/9ADIWcrIcVc1knUftPAsdjueJnJupDFMNGwA+w5bwU7/N7wDeBC5o8/kJgT2cfNSyfxJ19/v8oLAplG2d7vZmFrSz8PkMbVWckVl9hS8zwqsp3QcxmMrblc0nPn5VhYSxML4tV9ArFpBXtAo7Fth1SWHuPAnug/f12YH1sxt5NmmfpWgYvKvWhwP4vatDmMCxvQRbdZwCfHUR3IUSLMZLs4XEvYL4DebM0cGuAvs3Iw8De6MPfjqyJzdZTxN+Pw2aK/dFBWMTCZAZfuRuCle3Oovs0lDFQiMowFLiebIPCs8CyeSuOhUilyOT3Mha/rw+/WB/LYZHCwLwAM757s09gWz9o8no6sL3LLHqPp1wFvIQQAXSQfUbwKLBYznrPiw2esQfkiVgM/6j8LkW0CNsADxH/mXsUWKunj3kIC719kTkNiUZ0AKdk1PtNLMpACNGinEi2QeA+YEzOOq8HPJNR774yE/g1MDbH6xCtx1AsOc6bxH3+JmErTscHnr9r4PX8JKPeT6N3RoiW5BCyvfyPYNUB82RvbK8z5uB7C7B6nhchWp75sBl0bP+AEMe/f5HN2zzrSsA9+FYfhBAF81mypcV9hnyX/YeSfd+yr7yD5W5XqI4IZT3ilMcOlVnAuhmvoQNLZpVFjytIUwNBCBGZtQlLMFKXl8nX4W8h4idquRQLexQiK53Y8v375G8A/CbSNXQAv8qoywmRdBFCJGIh4HnCX/I3yDft7YeIW9r1SaxkrBCxWQJLtpPXx38ccfffO7E8All02jeiPkKIiAzF9rtDX+53SZdhrz8+R7z9/m5sC2FEjvqL9uTzpAlN7SuHJ9B9KPCXDDpNA7ZIoJcQIiNZlvgmAR/JUddvEK907+tYlT4h8mIRsn1IB5OngeGJdB9BtsRa71BMThAhxAAcSPgLPZ38ls2HAGdm0LWv/JHsJVmFCKEDM2RTVIn7ZGLdF8CifEL1+w8wV2IdhRBNsAX2EQ99mb+Yk57zAH/OoGdvGYfl7heiaFYjezW+3vKPnPRegmxVQc/JSU8hxAAsQbakJSflpOcYbNYQY4C8H1g+J72FaIbhwFnEeb7fBzbLSe81sbS/oboekJOeQog+DMGShIS+vFeST2zvIsRLsfo75OgnysvemD9N1ud8ElZyOw+2Jzzh0VRg45z0FEL04jjCB5h7gblz0HEpLDQv64A4FdtvFaLsrIrl/8/6zE8jv9K8B2fQ80XkhyNErmxBuNX+CrZ1kJpliJPT/0U0yxCtxSjgMrI/+zPJL/Y+SybOK3LSUYi2Z2HgVcJe1AlkTy3aDKsRJ8HPzWh2IVqTDuAowvL/95ZZ5LPXPgS4MYOeB+agoxBtTSdwPWEvaDewcw46roplFMz68T8fGJaDvkKkZA9sCyvLu9ANfC0HXccAzwXqOIXZZY+FEAn4NuGDyE9y0G95ss/8u7GZk4r4iKqwGfA22VcC9spB13UJz9D5KKocKEQSNiQ83v82LA1oSpYkfPZQl6nAFxLrKUQRrEh2h9gZ5LOKt1cGHU/PQT8h2orhhGfuepP0Tn9jgccD9avLO+SbjliIvFmQbKG7dSP5YznoGuoU2A1sk4N+QrQNJxL2Ms4ifTzxaLJnQnsd7R+K9mA4cBXZ3pdJpE8WNBy4J1C/l4H5E+snRFuwEbb0F/Ii/jCxbqOAuwN1q8sLwEqJ9RSiTAwDLifbe/Me6at3roBlJgzR77zEuglRebIs/f8dC+1JRRfhEQl1eQpYOqGOQpSVLuACsr0/bwArJ9Zz9wz67ZRYNyEqTejS/6vYvnxKfhmoW10eARZNrKMQZaaT7O/RM1j4Xkp+Hajbq9gWoRDCyUaEZ/vbIbFuhwbqVZf7SD9oCdEKdAA/Jdv7dAtpc2aMJNzJ91cJ9RKikmRZ+k9dpnNnzLkwy8xfH38hPkiWVLw14LeJ9Qv1RZqFonuEcPFdwgaBl0m75LYeMDFQtxrwNLBYQv2EaFU6gLPJZgR8M7GOxwTq9TgwV2LdhKgESxH2kU0df7sE4TUIalhRn6UT6idEqzMEuJTwd2wm8ImE+nUBdwXqdkxCvYSoDKHhQWcm1GkYcGegXjXgNRTqJ0QzDAOuJfxdG4fV40jFyoSlCp6KhRUKIQbg44S99E8DcyfU64xAvWpYDvQ1E+omRNUYAfyT8HfuaSzrYCq+E6jXnxPqJERLM4wwT9tZpM0K9oUAnXpb/akzlglRReYDHiL83buedAW1ugjP/rl9Ip2EaGmOJOyFOi2hTmsQ7vTXjZVCFUKEsTS2fRZqBByeULf1CIsKeAKV+RbiAywJTMD/Mr1OOq//UVh5z9DB56hEegnRTqxPuBE+HfhQQt1OCtTr2wl1EqLluIiwFyllffAsucovIN3yoxDtxmcIz73xNDBvIr1GAM8G6DQeWCSRTkJEJ+XHbB3gXiwtqId/AVtiL1Rsvkh4QqFbMGfG6fHUEaLtORw4OfDcSzBfnhR8Crg64LyzgK9F1iU1HcAW2Lg7Fv+YLcrPJCxZ3VVYifrkhBTUmUE6z/plMQs9ZLbxHGm9j4VoZ84lfFVuv4R6hYQtTqe1QoNXInvlU0nryATSJ9Zi60Dlfp5InyHYykKITlOADRLpJURKFgS2AnbpJZtQvpr2I4D7CXs/JwKrJNJreez99+p0WSJ9YrMiFs5c9EdJkr8cTyI6CLMoXyXdnt4RAfrUZf9EOgkRmyFYxrxLgBcY/H37Lbat1VWEsn1YHniPsHf0ftJ54B8boE83sHEifWJyG8V/iCTFSDc2GYjOLoEKpdrLWweYFqjTuYl0EiImwzEj9yXCnvNXgQOBoXkr3odPYQNTyDX8IJFOI7FaJF59bk6kTyw2pPiPkKRY+SORGYrFw3oVuZ00DonDCU86cj+2NClEmfkYYe9cf/J4T3tFcgJhuk8l3VbAfoE6paxhkpWspc8lrS+vEpkDAhXZIrYiPRwTqM84bElSiLLSCfyM+IPCLCx5V1HhrkMITxd8K2k82DuBBwL1KSsnUvwHSFKszCIiQzFvea8S18dUohcrY7OCkBuTMg+BEFkZji3fpRwc/khxvgFLAO82oWN/cmAinT4WqE9ZVwFCkx1JqiXR2Dug825g3ZhK9NAB3BSgTw0rWypEWenE4tPzGBx+k9M19cfuDfRqJO8DiyfSKSS0uayrADIAJDUi0UlYet1LYinQh9A9u1dQvL8oNz8k3wHiu/lcVr9c3ECvRhKSwKcZ1iXMSbGMqwAyACQ1IvGZgI6nY3GosRlDWGxrN7BtAn2EiMV2hHvJh8osisuDMT/hkQ27JNLpigBdbkmkSxZkAEhqROKegI5/FavzPpwfoEsNOCORPkLEoAt4jGIGibsoLj3sRwkzel7DCn/FZg3C6heULS+ADABJLYan77bADc5zpmCz/1ci9N+bTbE9N+91PQ2sDUyOrI8QsfgK8OsC+/8ixeXFOB04KOC844HvR9YFbGvi885zLifdqkQIJ+GrXngl8NdEuoh45D5G3Izf8kiR8rcDuDNAlxrFxz4L0YgO4HmKnS3cl/oiGzAvYcl4JmERBbFZGZjp1GUmsEICXULxrgCo1HFr4H1HMrFxQIfTgSWzdtwPuwXoUsNKFgtRZjYl/MM9C9s6uAN4PUM7NSyrZlGE+BnVsC3BFFwSoMsvE+kSggyAapKrAXBhQIcpXsjhhNXvfgdYOIE+QsTkdMI+/KcAi/Zpa33gLwHt1YCfJrq+ZrmGsPuQItR4Hfy+CZOBhRLoEoIMgGqSmwGwMP5EO92YE01sDnfqUZcvJ9BFiNh4nf9m0Xi/uQPbhvO+L7fFvSw3S2HlTL16/yORPtcF6FJkWGVvZABUk9wMgO8FdHZtlg4HYEHCqoj9i+LSnQrRLEOxbTPPs/2TJtrtBP7tbHc8xUUD1DkM/7teA3ZMoMsWAXq8gKU7LhoZANUkFwOgC3gxoLPNQjtswCkBeswE1kygixCxWRXfsz0Dy4XRDJ9wtl0Dlo1wTVnoAh7Gr/ejpEltfEeALjsl0MOLDIBq4noWQ1+InfA78v2b+GkxFwW+GnDe77AqgSI/lsASyqwOjMXKrM7CCi89j1VfvBf7gInZLOI8/kEsEVYz3IoZw55xYB6nPrGZCfwftvzuYVUsQ+jZkfX5OXCZ85yvkS5boRDJCanWtXMCPUJm/xOY0zFKpGEsFof9IM39NhMx7+rt0fZMnY/ge75vdLY/ydl+Coe6EG7E/+4/Q/xVgC5sWd+jRzewUmQ9vGgFoJp43wk3q+P3fn2S+HuHi2Betd4LPiqyHmJOxmAhT6HVGGvAf4FP5a14CfGG2j7paHtu/O/yelkvKBJrE5aRb88EuhwRoEeKXCgeZABUk+QGwC8COjk89Goa8NMAPV7GBj2Rjt0JL+Xan1xNeUKnimAlfPfLk3Dm8862a5SrWNbv8Ov/MPEnIwvgX0l5ExgWWQ8PMgCqiet98C6zdmHpez2x89Mwf4G3nH01YmEs7t/7MS8ynWnVGYLVUwjxyRiMl7BEMPckaLvsdGJ+Ep689hcBew1yzFzA3ficYd/EtnXKwmLYiod3HPgM8KfIuvwaS9fs4dPAVZH1aBZvKuAjaC66pD+WAfbBfIAWphxREGVjIrZFdQ2z812EEHpeU+yI3+JOUfI3pJDFIxQfwlRVhmK5wmPN+vuT8aSJImkFbsF/v77ToL25MCPB22aqePos/Bj/dfwngR7rBuhR1Mcf8lsBOBybBKYcG6omdwKLh9zsgL5c/DGgg60CL2QgRhOWDMRbvEM0RwdwHvm8GONpv/DN0fjj9etyPfBhZju+DcdmnQ8EtvfNlBcayBjCxoOPJ9DlP04dplNcJtI8DIDDiVspAAAgAElEQVTQBG0SeAJ79714+2ma0VgVP0/jTxLfm/tQpw414HG07JSKg8n3xXiWsBejFdkEeI7s92wiFhoY4jRbl1mkKawTg5AVwZsT6PHVAD2+lUCPZkhtACyLZv5ZJcRR1NtH0+wf0Pj/BVxAI4YQlvN/sP1QEcYq+I3CGPK7PC6uQDqxTJszKH4QqksZl//rLIwZOd5r+nBkPeYN0OP+yDo0S2oD4Bhn+5I55T1se9WDt4+m+Zez4WnE997e2alDDVuF0Ow/DSG50GPJJjlcXxEshn1six58eks38T+WsQmJCkrhn3RugB4rJ9BjMFIbAKEFpyQflNWd993bflMsiz9e+A9OxZshJAHRvgn0EOaQV+SL8ff0l5g7O2LRMkUPOn3l8pQXHYmQvCBTiT9J2dypQw34QWQdmiG1AXCTs31J/7Kh87672m/WK35X/Hv5FzqPH4y18DsUvoh5O4v4HFJw/x8FVitYh1gMB07Fwn+azeOfF++SJo9HbF4HznGeMxxLDxyT27Bxx8NukXUoA88XrUAFqFGS++j1Qn6X+EkuznbqEGK1iuaYj3AHn3eA3wJHA8djW0shGd1q2Cym1VkZ2wcueqbRn8wkjbd8KlbC/yw9TXxH5ROdOtTwL/VmJfUKwE7O9iVzSkjtHG8fg7I4/uV/ryU+GPPiz7Q1CcvQJeKzG/4HrRsbGPszDDfCUv962/xviovLkf0Ic17LSw5Nd+nJuBb/dX4ssg5rBujww8g6DEZqA6ADuN3Zh2S2zMS2k7x4+xmUrwU0um2A4o34coAOv4qsg5hNSDrowcKdxmDhmp42uylXatpmmRe4mOIHmYFkBnBAsqtPy8fxX28KHwevQftIAh0akUcegMWAx5z9SOzjf2DA/Sagr0H5m7PBt4hfces2pw7d5L+k1k7chO/3uInmllm3dLZbo/WyA26MpfwsepAZSN4jvgGfJx3Yx9RzzdOJXyH0SKcONWD5yDo0Iq9MgPMBJ2Nbf0U/22WXWVjWzyxjmqvPwT7U82ODsocrMAsmFivhD0H6O/lb1O2EN03lb7EHbjBuBh7Cl+1vGcL2yvKmE8uLcRz+2N6BuAvL0X4gYY66vakB52MphN/Irlph1IDTgbMc5wzF6oQcH1GPK7E0xR4+ia2uVYn3sef+SKxIlYqx9c8srObJO0Ur0ps98VsxW0fWISTXt8rIpsVrza/oaPtCZ9tfz3w1A7Mo8FngFOCvwB3Y0u4j2F7zacBBwKqDtLMIYfXrG80UTuSDhsTGWF4Gb/KgqcClwIc8N6bkzI0VUPLch2eJ7wz4sFOHPENbVQ2wmnjHkoZc7mzsNeIm3RmCWUVeHWJvQYgP4o1V96SQPdPZ9hOYs1qsJdwhWLU4bwGeR4HDmLNq3yewGXWMD3/9+d6mgf5jsP37P2H3pq9BMBPbl70YWzmoqqPsr/Hf240i63Ccs//p2JJ5HsgAqCbRDIChWPEVT2NnRr6YbQMu6OTIOog5eR7fb7Kjo+2QZE/1D9v1wB7AyMDr+jzZc++/gxXNGQn8DH8ETSO5Dn/xmGHYNsni2JbeCOf5rcomFD92rBegQ145AWQAVJNoBsCmAY15Bvpm+F2ADlVJDlNmvLPj85tsd0lsFpT1Qzkeq1D4UZorAT2GsPCxRhJSoW4gmYatcsReoq46Xg/054l7jzvwG5TnRey/ETIAqol3bBmQo5wNTSWug0cXVsHMo8NdEfsXA/MrfL9LN4N7tnZg9dFjfoRr2BbSiQwcFbIKcSrupZIngfUHuXeif47Af783jqyDd0vrpcj9D4QMgGrifd4HxFv8J7YDy0cDLiY0dlL42AP/bzMO+037YwRhqz1euQ9bnl+kp99VKWfu/bpcwJw+BaJ5Fse2hjz3/KeRdfiks/8aZpSmRgZANfE+a/0yD/5Ur7FL/3ot5ym0T534IlkY22sP+aB1Y0vte2OhnVsC3wVeCGwvVGZg++kv5txvszIelbCOhfdZfZ642wDzYKujHh1SRrbUkQFQTbxjTb/sENCQJ3Z7MDqBV539XxWxf9E/WwOvUPwHsspyD76wSdGYffH/BrFDIr3lna+M3H9/yACoJq5nfSAHqYGWagfiNSzmNRab4A/ryuOlaVe6gGOwWPbFilWlstSwvAIfBp4qWJcqcQ3+xGS7RNbhBufxWxE3nFqIfhkoXt5rANyADWCx+LTz+BnY0rKIz3JYzHhs5ygxmzeBffB/KMTgvItlmGyUO6Ev+wNbRNTBG9s/GvNXmRFRh754s3lmYXUs0+KGhIfoVp1ubEvyauAS4mbTdbEA/tjlXSPr4M2g9bfI/Qtjd/wZ1ST+Z7fulCjScCDF/86tLiFbAB3AsfgdMdtd/kt4XQhXX/2tAGyEzwmmhu1xxWJx/IV8tPwfl7mxfOr7Fa1IhZkBfB/zOu8e5NhlsRnp2NRKDcAszPfjRiw0t9W4CjiD5nJCiHgcBfygaCVakDWxqLoNKeB9OxqfFfF45P73cfY/C82gYrIO/rK8eckM4JfA0zn3Ox74CfYRXhnbIjua8BDC52ku7ezCWHGtmNkEs8g04OfA8CZ0LxveiqKSD4p3BWAl/HUpJB+UkMy63j7m4DpnA+cGKNmIi5z9/zty/+1KB/AN/CFLeclMLHywruumWEKidxP3ey8D1zKYF7PUvW3+eYD2erMIVqCm6Pven/wDSzHcSnyb4u9bK4vXADi+BDq3uozHb2x7+/gAHfiz733FqWAjOoDXnf0fF7H/dmUM9lEq+oEfSKYAnxtA9+FY8Z6r8OeuGExeZvDc+8OAB53tvsvg22x/iXwtseWHg+hfNtal+HvWyuI1AEJzhUg+KGs477u3/Q+wYkADMeP/1w7of/OI/bcjsWP7xxHX6ecx7LlohgWxJCp3Ruq7WeN2q4C2G21brRlJ/5TyPq21FdCJRVsUfd9aVbwGQGhRL8kHZQPnfXe139cpxhvqNR6rjR4LT6gOwETadwtgLixEbzkspe2SzvO7sGW6mLH9N2EOnBtiqaSz8A7mJLcONsNu9pwzsTwSK2OrQ88F9l/DymE3wy3YrN7DUg3+zfseFMG8xC+fm5Ju4jori8Y8W7QCFaCb8PEriNPxWRCxw+/+5Oy/nWL/RwBfwHwkHqZ/B5sJwH+AU7GEMgMtMy8D3NHP+aFS92jvm7xkCyzH/zuOth7CZt6x4oU7sEJE5zuv6S1nP14nsy0atOXN0laU5FW6NhZfovh71qriXQH4RAl0bnUJMVhdffQNA/RWHbszQMFGeFcgbozcfxlZEsuX/3kGTygyD7ZktAFwCJZY4jQsBGpazzG7AL8hXt2EFzDD5I5+/u2WHunClsk3wELalsVmkOOxpeTXsQ/ordh2RExqPe0+wWwnwmYYhRk0s5o8foRTr0Yhaa2SBW6gRGJlpR3Gi7JwPbYNsHXRirQoM7BxPzc6sMHYY0FsF7H/pZx91/DnC2gl5gK+B0wiuyX5DGZAnB2hrd5yGa1TgGkE/utr1r9lPsxR0dP2Wg3a+2mArkXIHk3enzLxBMXft1aUkERAY7CMhkXr3moyDd9kpTfevv7HkgEnjwlUsj92dfb9HnGrdpWJpbGl8KIfxIFkEnGjP/LiNXzX+dsm2/2Gs90a5rA4EDIA0nEuxd+3VpTQYkAjsWRAZa28WSaZhkVjrRd0pw1Xn72X8Lyz6TeIm6XIu/x/F3YRVWMD7CEoa3Kjh7AUwY8WrUgAj+C7r/tifiaNKk2uDvzYqccLmF+EyJ9/Y79rs4wjrlPmV/AZz7cB34zYf51DCJ9lepiMOeP+CHv3xtI6W1x5MgEzkqbm2WkWAyD2B8BbgvOuyP2XgfWwwiVzF6zHQPwSOIycH9KI3Iyv0NUQrDDH9zFfit7FWTqwVatf4XdYvN15vIiHd9wYjQ3MXqfQgbgFnwGwIJaMKjavJ2izETVsBe61nPsVDchiAMQM/xuGf9mjauF/C2NREGX8+L+LeVA3mgm3AtfhTxw1F7Yk/y3MqelV7KOwLRZNEcI1gecNxD+x6I+sfAoLKa0yD2NbWJ73bC3ihRA+5jx+eWycLqw6nKguvQ2A1ZznxlwBWBkbaJulBtwdsf+i6cQc6hrFhhfFv4A9gZeKViQC92GVtho54A3E4sBeEXR4j/jhq9cBP4vQzlJU3wCYiRlLWzrOiWkAPIHFdzdbmGgYZmg+Hal/If5H/SHswG8AxFwB8K4+PEW19lD3pnwZDWcBx2BhPFX4+Nc5teD+z8ZmoKI4vNsAIQbjQEzGikF5WDli/0L8j7oBsAQW9+yhSAMgxZ5YUYygfPUMXsLi9n9I83HwrcIFwJMF9T0OOLmgvsVsvONHTAMA/NsAK0XuXwhgtgGwrPO8N4g7Ay/S/6BoDmDganNF8Ccs/e6tRSuSiJnAgRQTQXI0BdT3FnPwsPP41Yib9Mi7faoVAJGE+kO9tPO82B9gb8WjKhkAWWKpp2NOaRDukFZnKnAocNYgx3UAOwKfBlYgXspeDzWssMtdWFy3d4vin1ja60Mi69WIG3r6FMXzNPbuNFvSeC6sUJp35j4QWgEQpSDUAIi5hDoCK2jjoSoGwPL4qz2Brb4cCVyKZW8Ei6/dDwtZ80YSzMAKuzw0yHFjMWfFzZztp2J74DtYaOJghktfDsNWnjxhgaE8ihl6Vcxb0YrMwMYwz8RjLeIZAM84j/eu0ArRFPUtAK8BENMpbBV8iSGmUJ1KUzsEnPMEVtv8bGZ//MG2ZU7EPuTe7ZmhTZwzD5ZLvSwf/zojsPwE+zvPm4mtYmStWjgYT2Eps73VAkVavJMIr5N0I150Hr8YzUcNCNE09RWAZZznxTQAVnQe/zjVcUzzDirTsOQzje7/o1hxnr86216P2dsJ/XEEzefGL4KfA1djWwPNMgGrWnYudl9jcwewM/GSyIh4eA0A7ySpEa9gY1izE59hwEKYkd+KbIQZ6BtTzjwnZWAmZhheBZxDTsnWQrcAXo6ogzf2vSrL/2CrHx6uxuLYB+NvWKXGTRxtr8PA8emdwJcdbRXBPFjBI2+Y32SsrO2tWEpfbzRMf8zEvP2P5oPZA0V58I4jMXN0zMAy8S3uOGcJWs8AGILlpziE6tZticlKWNrpb2FJuZKnW+/EfpglnefFXAHwvlhVWf4H/333JJDxJi5pVGp4ccpbm6A3G2Y49wxsReZcwj/aNew3Whsr5amPf3nxjiOxk3R5twE8xkJZOAErlKWPv4/lse3WRVN31IkN7N4sfEWuAHhfnDLjdQrz7O2/4Gx7aIN/m9/ZVlEskPH8l4EvYtENR9H8LPFZbAtiNeCTtGahpHbDO44sQdx9+JD+W4nVsagiEcZiWAGlpHRhOeg9vE3c/Qnv9kOVDABvfm/Pb7WQs+1Gcc7tZsG/iCVnOg6LfNgYs8rHYmGPM7Hl2GeBe4DnilFTZOBdzAek2S2f4dhkqZGfjAfvKmqrrQDsjar+ZWU34CDM8T0JXTSuS94fsdPCelcAvDPbMjPRefzHgPOaPHZbZ9uxBraq8Qbxi/eIcvAiviRkS1GcAdBqKwBrF61ABZgbc5Jvxu8riE6KNQBG4Vu2rUXuv2i8P+yuNOeJvyWwhbPtx53HC9HqeCcTMf0APNEqAGMi9p0HjbYURfMkvY8hBkDMes6LOY9/k4TLIQXwgPP4LuCPNHYeXBH4fYAu2rcW7YZ3OzGmAeDNCzE6Yt958FTRClSAmSR2eg8xAMZF7N/bd0znwzJwR8A5qwL/xvLZj+j1/0djHrd34zesXsASDAnRTnjHk5jL8O85j28VR9w6lxatQAX4O/7nxEWID8CEiP17vbarVAIYzIHsMfw12BfDst+dhpUWnYl5rocWLLmUuGlqnyBbjYM6m1J8+V5RXbzjScxZeNVXAP6JhcTuWLQiLcpULN17Urrw7y29P/ghTeM1AKqYTvVc4CeB53ZhH/6s/CFCG72ZTJySzWMjtCHEQHgNgHkj9l11AwBgT8wI+EjRirQYU7B7590idhOyBSADIC7nE/eeerkWuK/A/oUoCu940ihZlpf3gW7H8SOwUMRW4n1ga2xrskoZXFMxHvPfWhe4Mo8Ou/BbtUUaAFXbAgBzbDwa+EUBfc/EcvwL0Y54DYCYKwDdmD+VZwycH0sh3ErMwLYqT8OMmLGosFF/TKKAVM9d+K3K8RH7964+VHEFAOBMLAPdWjn3ezrt5/3fweyEPnkzFTP4vAmgRBqK3AIAc/DyGACjaT0DoDdTMJ8lURK68KUBhrgrAN59raoaADOxCn63kd9e32201+x/A+B7WIKkEYMcm5JZWAnik4HrC9RDFLsCAP6QZu9YLURDOvGvAMQ0ALx9ezPntRKPAJ8BpufQ18vALrRPsZqvYaGTO1Psxx8sPepWwHXAKbRfmuUyMQlf9EtMHwCw8t4ehkXuX7Q5nfitypgfYe8DncfHsUhuwsLnUiY7ehTzym3lpUQP22NbHWXMS/5NzEFKFEMN35gygriZ2bzjmbLriaiErADMiti/DIA5uRz7QKeoeXBLwrbLyk8pt9PRD4k/sxTN4x1TYm4DePvWCoCISsgKQMyEMTIA+uc+rLb9hfhChQZiHHAw8FESZ5YqGWvhT7KUN/PiL9wk4uEdU2Iak1oBEIUSsgIQE+8D3S4GAMBbWEnN9YEbCDO83scyBq4KnEHc1ZtWYKWiFWiSlYtWoI3xjikxJ0BaARCF0oX/odIKQL48AHwCKwC0C/BZrNTm3AMc/wqWhe8y4AqqVTzJSxGhfiG0ip5VxOuIV6QBoBUAEZUuLATN8yGWAVAMLwE/75EOrDLZsszO/z8Tc/DzlhkVop3xRsLEHP+8fcsAEFEp2gDwJkQJLXZTNWqYI187OfMJkQJvdEjM8c/bd5EJpEbQehUJxSDUDQAP2gMTQlQFrw9UDKfcOt7xzLtdEZNjekRUiE6KNQC8S2AyAIQQMfEaAEVugRZpAIgK0oX/Ixwzc5kyYYkyMQGLvsjKaPyFrkQxFLmvLh8oUSghWwAjsIEyBtoCEGXiSmDfCO18BzghQjsiPVoBEG1LJ/7Y8FER+9cWgBCiSLwO0JML6htkAIjIdFJsKkzvA110IRchRHUYji+z3wTiJtNSIjRRKJ34l/NjrgB4+9a+qhAiFt7xZFzk/ov0AYi1jStal/e78Jf3jWkAeOtxV80A6ADWA1ajuNWNScD9WBIhIdoJ73gSu46GtwhUzC2AhyK2JVqT/3bht2pjGgDvOI+vkgGwDXAa5SlWczdwEPCfohURIicWdB4f2wDwjmdTI/b9N+A1YNGIbYrW4oJO/CsAMX0AvCsA3he2rOyFFfgpy8cfYCPgX8DHi1ZEiJwocgtgBL5VvxpxDZApwDeJG9UgWoc7gPM6KXYFoB23AFYCzsafBjQP5gL+AIwpWhEhcqDILYCQvmOnAr4UOBB/NJZobW4FdgJmFr0F0I4GwOEUW4J5MOYHvgYcW7QiQiSmyC0A71gWI0FVf/wa+CdwCLAltiXgiYwQrcFEzO/jYuASelJahzgBxpwden0AFovYd1G0whL7tsgAENXHu/8dcwvAawC8HbHvvjwFHJywfVFSQnwAFo/Y/xsBfZdx6dxDzPuXiiWKVkCIHFjKebx3vGpEWVYARBvTib9+fMwP2Nv4Mmt10fqrAK1Q0rgVdBQiK0s7j38uYt9lWgEQbUon8LLznJizwxrwkvMcr9UuhBD9sYzz+JgGgHci452oCTEoncArznPGEneG+KLzeK/VLoQQfRmJz5+pG/9kpRHeiYxWAER0OrEHy5NgohNYJKIOLziP1wqAECIr3nHkVeJm4vNOZOQDIKLTiS3Dv+o8L6YfgHcFYNmIfQsh2pNlnMc/H7l/rwGiLQARnfpS/ivAco7zYhoA3hWAMmXPS00NSxqUlbmBPSK0I0RV8I4jz0fsuwO/ARDT/0AIYLYB4HUEjGkAPOs8frWIfZedbuCACO0sgQwAIXqzuvP45yP2vRC+NMCz8E+UhBiUesYnryNgTEc8bxW6BVEBCyFENrwGQMwZuHf8fIm4pYCFAGYbAEUuw7+LVaXy4H15hRCiTgf+lcSnIvbvNQCeidi3EP+jbgA84Twv9j78I87jZQAIIUJZAl9V0xrw34j9r+A8XgaASEKoAbA05lgWC68B0E5+AEKIuHgnEM/iT5kes38ZACIJdQPgJWCS87yVI+rxsPP4dSL2LYRoL7zjxwOR+/dOYLyO0kI0Rd0AqOHf44q5DeB1BFwXnxetEELU+ZDz+Psj9t2Jf+zUCoBIQu+6z487z425DP8wPfWJm2QoZgQIIYSXjZ3HPxix7+XwT160AiCS0NsAKNIRcDx+A8T7EgshxDL4U5nHXAHw7v+/Tlz/AyH+R28D4EnnubEjAf7tPF4GgBDCyybO49/CnyelEV4D4L6IfQvxAXobAN59+BWIuw9/l/N47z6eEEJs5Dw+tgOg1wCI3b8Q/6O3AfAIvqqAXcD6EXXxrgAsjb+mthCivfGuANwTuf+iIxCE+B+9DYAZwEPO82POwh/BfAE8bBWxfyFEtZkXWM95zs0R+x8NrOI8R1sAIhmdff7ba+3G3IefBdzrPOdjEfsXQlSbrbEIomaZCdwZsf+NmXPMbcR4FAEgEtL3YfR+gGM74nlfto9heb2FEGIwtnEefzcwIWL/If4HtYj9C/EBshoASxK3NPA/nMcvRvxoBCFENfGuGN4UuX+v/0HM8EMh5qCvAfAwMMXZRsxVgNvwpSQGbQMIIQZnKWAl5zk3R+y/A/8KgAwAkZS+BsBM/FWvYjoCTgdudZ4jA0AIMRjecWI6cEfE/lcEFnSeowgAkZT+HFKKdAQE+Lvz+C2BkZF1EEJUi+2dx98NTI7Yv3eiNB5/kTQhXPRnAHhn4BsAwyPoUudG5/FzA9tG7F8IUS1GAts5z4m9/7+Z8/jbsMgoIZLRnwFwCz7P05HAR+KoA1gugted53wmYv9CiGqxHf5Vwvci6+Ddgrg5cv9CzEF/BsDr+AsDfTyCLnVq+FcBdgSGRdRBCFEdQiYI3wHmi9T/iljmUg83R+pbiAEZKCnFLc52YhoAAFc5jx+NJfkQQojeDMcmCF4WBn4QSQfv+DgBRQCIHIhlAKwNLJpRl97cgD8cUNsAQoi+bEP4TP4QYOVIOni4FYvIEiIpAxkANzvb6cD/kDdiMvBX5zk740vzKYSoPlkmBkOBn2Xsvwt/zRLvBEyIIAYyAF4DnnS2FXsb4Ern8Qvh9/QVQlSXEcBnM7axA/CJDOdviH8F4uYM/QnRNI0KU3jDYGLn5b8WS8bhYb+I/QshWpvPEseR72eEry56vf8noAqAIicaGQDXO9sai7/WdSPex18bYAdsJUAIIfaN1M6qwNcDz/U6IP4L7f+LnOhq8G9/B6YCczna25G43quX41t+GwZ8ATg1og5CiNZjafx77404CrgIeNtxzlJYojQPf3YeH4v5gU2BRfCVLBatwSQss+SDvf9nIwNgErYN4PkA7wIc51ZtYC4HTsOy/TXLvsgAEKLd2Zu4H7L5sbHtQMc5n8G3LVojfwNgXuBkbPtUTtTV52EsuuUmGPwFudbZ+JrAKgFKDcR4/M6A6wDrRtRBCNFadAD7JGh3f2Atx/HeCIR7gFed52RhNBZy+BX08W8X1gD+hq2URzcAwFYBYnJewDlfi6yDEKJ12BZYPkG7Q4BfNHnsItiSuoerncdn5Sx8Bo2oBl3AOcDygxkAL+IvD7xrkEoDczPwvPOcPfCX3hRCVINvJGx7K5oLLdwJ/xbENX51glkR2C3H/kS5mAs4vJkH1LsntQbmNRuLbuB85zkjsGUtIUR7sQrpq4OezODO0d78A89hhdDyInbYtmg9tm3GACjDNsD5+CoUgm0DaF9LiPbiYNJ/2JYFDm3w7wsAWzrbzHP2D7B4zv2J8rFEMwbAXcALzoZjGwDP4c8JsASqDyBEOzEa8/73MA3zjPZyJLDYAP+2O/7JR977/40iwER7MLQZA6AG/MHZcOxtAIDTA845JLIOQojy8mVgHuc5fwC+in+FcR7gxAH+zRuB8C7mjS9ErjTrpHJJQNv7BpzTiGvx1yf4MLBZZD2EEOVjGHBQwHmnALcTNsbtCXykz/9bDdjI2c4VKPufKIBmDYAHgUecbX8Rq8Udi24sbMVLrJreQojy8iUs+5+HvzM7M9q38Zcg78DCAnuPo/s62wC4IOAcITLjCVPxbgOMAT7pPGcwzsGSA3n4GHNa6UKI6jAU+4B7OaXX318BfhLQxvrYSgBYnoA9GxzbH89jKxBC5I7HEeQS4Fh8Hrb7Y+l8YzEBiwg42Hne98hW0lMIUV72BZZxnvM4cxY8OxlbufSuJJyAZSzdHFjUeW5IhFMR3EWfPPKilLjC3z0GwDPA3cDGjnM+hmXkesaj1CCchlXm8qxebIfty90dUQ8hRPEMxTzyvZzCnB/eKcAR+Fc7F+vRYQXneTXgQuc5RXElYSskIl9cBoA3U9XFzuM7sCITMXkauCrgvKMi6yGEKJ69sLh8D28z8If3UsI88g/Fsv95uJ24kyMhXHgNgIuwEsEe9iN+zOlx+JfNtseiAoQQ1WAuwpx8f4XN9vujhqUS7g7Qxev0LOc/USheA+Bd/Hv6i2Ef35g8gD9FcQfwc5T+Uoiq8A38e/8TGTynyP2Yw3FKpgKXJe5DiIaE1Mv+dcA5KarzHYt/FWBj4mcpFELkzxjgOwHnnQK82cRx3wfeD2i/Wa4GxiVsX4hBCTEAbsOfE+DjxC87eS9wXcB5JxA3P4EQIn+OxlL/engX+FmTx76JbTWmIvUKgxCDEmIAAPzGeXwHcHhgX404Gv8qwHKEZQwTQpSDlYEDAs77Cb5Z/WnAEwH9DMajWBIiIQol1AC4AJjsPGd3YMnA/gbiXuCGgPO+h1XsEkK0HifhL7bzOnCG85wZwGHOc+3h/VAAACAASURBVJrhdFoj9l9UnFADYBwWLuNhKPCtwP4acSQwy3nO/MDxCXQRQqTl4/jD7QB+jD/VL8BfCJtkDMR7tE7sv6g4oQYAhOXl/zL+fbvBeBDLpuXlK8AmkXURQqRjBPDLgPNexL9t2ZtvYasBMTiHMENEiOhkic+/G0uY4am2NworvTlQGc1QfgDsBsztOKcTiwfegHgvtxAiHd/HMot6ORaYlqHfx4EzgW9maANspfLMjG20IsOxbKzrA2ML1qWsTAGexcLbn8ur06wJek7GX273ECwUJ8sL2ZdXgZ9iToEe1sIyeJ2Uoe81MCNiYeLnGOjAUpNmZT7n8fP06deb33wscfRe2Xn8cn36Xc95/prE0XsL5/Ef6tOvt5zsVsRJtrWa8/gdgSWaOG4C5kx3KzDdq1QPqxHmSPwIYSuEffkhsAewUIY2rsGK/7QT22KrL0sVrUiL8HPgbGzVyZt0L3c6MI/WmlP2T6DLPJgh4NVlEv5UomAf/tsD+pNI2lVeB/bBTwfwr4D+uoEtA/obiK8G6NBbYuqSlZPw6R5SbfFTwExnPxKTGwkz6r39ZOZLAZ2+gKXOjE2ILjX8+QQ2wsoSF/2QSCStKEfjI/S9/r2zn8EYgmUhDdGlbJX0UhsA82N5F4p+1lpZQla8vH1kZjhhM++s+2n9MQS4J0CXGs0XLRqBGTBFPxwSSatKN7Zt0QxLYZ7z3j7ex7911QzbBehSw+qolInUBsC3nO1L5pSX8W8ru/rIEgVQZxqD59bujyMxp8CYzMIShHjDAgFOpbmtgC+g/SwhstBBc2l8O4HzCIscOgZ4LeC8wQiNHNodWCemIiVni6IVqACL4y8x7SKGAQDmTT/Rec7CpFkFuJcwg2QU5iw0ZJDjPhbQthDig2zJ4Huc36L5lYLePETYGDAYixKeGGgINsloF+YvWoGKkDRhXSwD4D3C4nMPAxaMpENvjgJeCjhvM+D/BjlGYSxCZGcYjQe3NQlL1lUDvo45n8XmGHyhxn3ZnPYpRpZi9aUdeTVl47EMALA82+Od58xHnLCrvkwADg4894c0Xqp7J7BdIcRsZmETh/4YjmXLCynadREWbhibVYEvRmjnZMyPqOr8tWgFKsBjhE1kmyamAfAO8IuA8w4CFouoR52rgasCzhuGDSIjB/j3m0MVEkL8j9sZOAHX8cDaAW2+xeAreKGcQJxcC0uTpjBa2biYHBPaVJQfFa2Al/kwQ8Dr7fjrRPosidUtCPHAPG+ANufFSoUW7SEqkbSyfJL+2QmLEghp8zMDtJmVjwTqM5BMpLkESinJIw/AuoRFcEjCttQJ6Cc6RwYoMRN7WFKwd4A+dfnKAG1+HIt+KPohkUhaUQYa3FYg3GC/YIA2s9IB3BmoUyMpOiwwDwMAYCUsqU3Rz1yryFvA14LutOHqL3bqWrCMfM9gXv4e7mC2pR2by4DPBZw3DdPpnn7+bTPgt9gDLoQYnInAcdg+eN/3fAT2oQ1Z+n8JS+s9LpN2/fM5bPyITQ3YFLvmIjgJ30f9CMzPK5TlgA3xpyVvF2ZgaaJvJzxdNji/nzH2tPoyESv283PneR/GZusx8nb35avYy+ZNDDIcuBzLKf9un3+7FVgdC2faCNsaEELMyTTgKSzjZt/3qM5ZhH38a1gSrxQf/5GYsZKCDiws8EPYlkfVebZHRBswArPKvcsfr5POQtyO8L3F64jrMCmEmM1XCF8yTRlbf2IGvZqVfRPq34i8tgBEvnifv2TsGaBMjbBIgmY5M1CnGuYFLISIy0ewqmch7+RjpAupWwNbik1tALxK/IyozSADoJqUxgAIdZ6Zgb18KRiJ1fYOfVm/lEgvIdqRFTCnp5B3cTq2p5yCDmyLL/XHv8jJhQyAalIaAwBgfSzhh1epW/EXQWiWlQmv5DcdpQIWIgYLkM0YT5FGvE5o9cGLgL8FnDcNWDHh9fSHDIBqUioDAMypL+Rl2iuhTnsE6lTD4lpXS6ibEFVnGHAL4e/gJQl1GwO8HaBTvfrgWlhYs/f8PyW8pv6QAVBNSmcAjMVejpAPbcpkGWcE6FSX51BNACFC6CB8UlDD9v1T7pn/LlCvQ3u1cVZgGx9PeF19kQFQTUpnAAB8N0CxGnBNQp2GkS3Bx11YzgMhRPMcS/g7N460S+WbExYp9DAwtFc7Y7BwR287D5EmNLs/ZABUk1IaAMOwOOCQl37vhHotQba0vv+kPQp7CBGDQwh/17pJl+oXrMrfk4G6bd1Pe98MbOvrKS6uH2QAVBPX85bK0a4/tgf+EnDeOCwq4JW46vyPbYDrCbe8/4INTFmyNwlRdb4C/Ipw597jge/HU2cOzga+HHDeH4DP9/P/hwIPYlUEPbwH/D1ADy9rYQ7RzZIlE+AoYGdgA2zrVDlV5mQilkH3GmwlKJTcZvUh/J4wqzjEcPBwYKBedbkUGJJYRyFalT0Iiwaqyw2k/Wh8KlCvCcDiDdrdLrDdMkroCsBngDdKoH+rSDf2nQzdXvb2lysLER73u19i3X4eqFddziVd6KIQrcrOWG6P0PfqUSxkMBULE/6BOqiJ9q8NbLtsEmIA7E549tV2l9uwVPRevP3kzl4BStawrYAlE+rVCVwVqFtdzkRGgBB1tiU8y18N2/ZbOrGOVwfqdgvNrUqsRDUqh3oNgIUIz7ciMQnZ8vL2UQg3OBTsLbeQ1kt2BPDvQN3qcmFiHYVoBXYEphD+Ho0H1kmsY2gNgkn4ohF+GthPmcRrABxRAp1bXd7Av/Xl7aMQlsGcHkJuyvGJdVsUeCFQt7pcwgfDgoRoJ/Yg27L/NMw5NyXLY3v4Ifod2k97jZiP1t8H9xoAoSsrkg+Kx1GTgPYLIzRMZha2tJiSNTFv3Cw/3NWE7eEI0cocQDaHv26skFhKsuQAuZMwh9/9A/sri3gNgCyZHiWzZWPnffe2XxhDCC+48SaNvW9jsAnhM4S63IjFFwvRDhxGdqevI3LQMzQL6FT8YX11hgD3BfZbBvEaABeXQOcqiPc7522/UJbBnPtCbsy/SL/XvhUwOVC/utxGWi9mIYqmAziO7IPdGTnomqUOSFbjZPMMfRctXgMgtBy8ZLY86LznBPRROFleyB/noN8OZPfifQIrfSpE1RiOOb5mHezOJX2CmDUxB74Q/f4ZSb/zAvsvWrwGwFCsbkPRereyfNp5zwnooxSEJgiaBXwiB/12IazCV295C9g0B12FyIsFibPX+zvSf/znIzzV71vE23Kcm+yRRkVISB6A1Wh958ei5MSA+01AP6VgPuB5wm7UW8ByOei4D9n3N6fSf9pQIVqNFbCVrawD3Tmk//h3EJ7joxvLFBiT4Vgu/tDtzyIkNBPgUsAVZHMMbSd5gWxOsK7+ypS0ZjPgJsI8bB8FPoyVHU7JF4HfkC3tbw04CvhRFI2EyJ+PYB/UBTO2cw4Wi9+dWaPGfAc4IfDcM2ku418Ic2O5DhZL1H4j9sRn2GSpBQCWcXED5BQ9ELOwj//9ZHsfanHUKYYfEW45XU8++fh3IU5mr0tQOWHRehxAtux+dTmbfIrCfJzw7bv/AnPloGMRqBpgNfE+46ViKOGhgTXgtJz03I5wZ6Le8giwSk46C5GFkcD5ZH/ma9gqWh4f/zUJX2afDKyeg45FIQOgmrS0AQCWie9VwgeXA3PSczPi7OGNx1YVhCgrK2IhSTE+/nnVy1gMeDGDnvvmoGORyACoJi1vAIAl4QldZp9B+jSiddbDkhLFGBh/jWUoE6JMfJLsWTFr2L7mMTnpPIpsSXfyyEdQNDIAqkklDACAQwh/gd/Fn0M5lFWBlzLo2ltuw5IjCVE0w4GfEaec6zTSp/et0wVcl0HX22kPQ1wGQDWpjAEA4fkBasDTwCI56bkM8HgGXXvL+1R/+VGUm7UwB7hYz/NHc9T91xl0fY1iPPKLQAZANamUATACuJfwF/oh8kvDOwr4cwZd+8oVwJicdBcCbG/+G8Tx8q9hvjzr5qj/kRl0nY6l6m0XZABUk0oZAGAJR7LsQd5JfuF2XcCpGXTtK68B2+eku2hvlgZuJt6z+xCwZI7670W27YqDc9S1DMgAqCaVMwDAYnmnE/5y30i+pXn3J06ugBo2qP0GmD9H/UX70IE9rzGz0t0IjM7xGrKm6p4ELJ+jvmVABkA1cT37qavpxeJvwNew5CEhbAP8gdkDRWrOxtKkxljGrw/QnwIOxcpsChGDNYBfEa9GRQ3LYf4DLLNZHnwK8xXKkgRsJLb6sSXwTHaVRB/GALsBG2L3WsxJNxa2ejXmiCr64QSyzUzOI58Y5DrLYkuhsWZWNeCvtN9sRcRlBFZJM8uqWl8ZB+yU50VgCbli+SvUsGiednm38loB2IfWqnlQBvkz4b5r3r5aig5sJp/l5p6as86jgCsz6txXJgPfpT3ClURctsNmuTGfxwfJv9z11th7EHvwbRcjIA8D4EvOPiSz5V7CVku8/bQcw7Da3Flu7i/JJxVpb/YmTvrg3vIktq1RpqJOopysBFxK/IHqIvIv8LIJMCGC7gPJS+Rv0ORNagNgUeKPd+0mxznvOQF9tCRjCK/tXZe88pH3Zk0s/3/sB+UWbH9NiL4shKXfnUHcZ24a5peTNxthuQVSD75ZVwJGYKstB2Mz4XUytJWC1AbAd53tS+aUt/D7tnj7aFlWJHsa3gux0L08GUm2ZCUDSTfmDLV0fpciSsxcWBncFPuvj2GlXfNmc/LdTw41Ar4OvN1Pe3dj6cPLQGoDIGZOlHYWb7E4b/stzbpkz1N+OcXspX+OODnW+8oULIVrXlkQRbkYBnwZqy0e+9nqBn6BzW7zZkfS7PkPJh4joBOLqmjU3iTKkdsjtQFws7N9Sf+ykfO+e9tveWLsB15LMXW/l8ZCPlI8OJOxwbpdUpu2O8OArwLPk+Z5eh7YKqdr6cuexI1Y8EozRkAnFv7bTHtTKd4ISG0AXOhsX9K/eCdy3vYrwdbYzDfLjf47+TszgW1BHEY6h5kpwOnAEnldkMiVubAl5yylbweT3wHz5nVBfTgYyymQRf/fY9sWWdpoZAR4Pv51KdoISG0A7OZsXzKn/Md5zwnoozLsQPbse3dQXP79ZbEY/1QP01TM8XH1vC5IJGUBbFB+hXTPzOvkH9vfm2P60ckr9SRBi5LGCAj5+Pd+J4syAlIbAEOAB5x9SGZLN/AJ5z0noJ9KkTUlaA2rIphXKeH+2Avz/kz5YN2I7anmHQUhsrMats+cMsSqGwvvWyina+pLJ7ZqlfU6LueDTr6xjYAsH/+6FGUE5JEHYHnSrkxVWb4XcL8J6Kdy7EP2JcN3gC3yVrwXC2EDcOqH7CngECxZkSgvndhH4q9kK3jTjPyXYqvijSROvoJrgKH9tB/LCFiR7B//uhRhBOSVCXAscC5xMzZWWR7B0luH4uqvqglkvoSF2mXJDz4d86a+MIpGYWwHnAUsk7ificBlWKrkW7GHQxTPslgCqX16/p6S97El9zPIp15GfyyO5UJfP2M7f8ZWA6cN8O+LYsnEvCFWvZlKXMfhacBngOsittmIk/B91I8AfpKhv1HAWphBkGVcrioTsNXnpzO2o7G7h92I4zl8KsVm2huBvXx5xT+/iBV0WS6PixNzMBf28bqR9LP9uvyZfEv39sc6xAldvIbmKn+OBR6O0F9MmUa22Z8HVQOsJt5nrtLsRJylp4vIt5xwf4zFVgNiZ3QbSGZhkRFfARbO4frameGYT8Z5wHjy++A8CGyW/vIGZVfixPj/Hl9irxjbAbElr+0AGQDVxPu8VZ5tieMwdSvliKlflfyzbM3EEnscQvEzxaowN5YM6hLySW3bW17AtreKLgfegW07xFjpuJiwpeV2NQJkAFQT77PWFmxOnJnVa1jN8DKwFVYxKu/BqRu4C/NS3Qjt53lYFtgf+BPFZLV7DTPiil7NAnP2+yPxru0Zwo3TdjQCZABUE+9z1jZsDLxL9hdzBrYnXwYHyk4sS9rjFDdQvYuFW32V9iij6mF+zLHrLCzioqjf6B3smS0i0VV/rIJtP8S+zixGwCK0lxEgA6CaeJ+xtmJt4GXivJxXA6PzVX9AOjHHsfsoftB6DvOZOBirUNhfKFZVWR7YAzgNy+KVNSdFVhkP/BCYL+VFO9mbtKV8nwGWCtStnYwAGQDVxPt8tR1LEC9D1TNYQaKy0IENFvVQvjLIFOA2rEDR5zEjrIjiSzHpwJbzd8C2Qq4he2XKmPIW8COKy2rZH3Nj8eB5XH9ZjICZWEjynzK2k8IIkAFQTbzPVlsyCrieOC/5FOwlLxubAzdQ7IdoIJmBbVtcDhyLeYFviEU6lIl5sNTJOwD/h+XEv5u0M9gs8ihwAMVU62vEGliCkzzvRRYjYDGy+wzNxLJ6gq2Clc0IkAFQTbzPVdvShSULijXgXEq5Zlx11gcuIHuxpLxkCmYc/A34LXAUcBDwBSwx0obYUnvo9stIbBVobcyR8rNYqOORWM6Hq4H7sX3zou9FM9Ldc68+QTn8UvryJYpxeKwRZgR0YDUzsvTb++Nfp2xGgAyAauJ9ptqeI4iXcOU1LJ67jCwIHEqxDoOpZDLmjPguVrb2mR55q+f/5ZVEKU+ZApwDrEk5WQALcSz6PnmMgFQf/zplMgJkAFQT1/NUxhlDEewKnE+81J7nYB/b8ZHai0kHFsp4APBpWn8/vt14AHtWf48ZOGVkJ6xgkbeW+UBMIFu9imex1Z4XGxzTga0I7p+hn1nAfjROHz4UC3/8dIZ+YqQN9qYCrhvSotwog2sgH8KKfMSaeTxHeXIGDMTCwHew/NNFz9QkA8trmBPlWv3/jKVhAeIWsZoGfB2bwT+Tsa1GKwGpZ/59GQpcmbG/rCsB3hUASTVF9GIMloM91s3txmYVZYm/bsTqWFa2Jyn+oZTYAF8vatMKoZTbEy/EtoZFVWzVq/0lyW6oPs+cRZU6gDMztjsTC2/0EMMIyFI7QAaApIaYgy7gZOIWYnkc2DrPi8hAB5Y06afEKc4iaV4mYx/9/bEkQq3Agth2RMz7cBuWna8vsVcCYs38vR//OkWuBMgAkNQQA/I54hdm+T39D2xlpQPYBPg5to9a9MNaRXkV+wh9EotQaCV2x7YnYt6PM2nslxLLCFiaYj/+dYZioaVZ9AgxAmQASGqIhqyCxVbHvOHjsHzsrZhDfwUs5e8VxEmr3K5yH5b/YEPKGbo3GGthxaFi3pNJwL5N9h/DCMhaICzGxx/smmdl1KWG3wiQASCpIQZlFHGLltTlPszxsFUZgm0VfA/7GEyj+Ie5rPIUcDaWJrgMFSVDmR9Lcxy7JPWDwGpOXWIYAaFSto9/XTxGwDER+5W0pkxCNM0Xib8lMAtbhlwwx+tIxdyYn8O3gcuwKIiiH/AiZCpwJ3DK/7d3p7GSFWUAhl8uXBFkYBhW2WbYJAaQEFHBqMQR40oE/SFRQQYR1LhGjcYYEVdwxw0IYhQNChHcooIrCYoSUBBFDWgQEHAQhkFZhmXm+uPr47TNZW73OVVn6/dJKneSyT2nqrtv11d1qr4ipsh3rvKitsQMsS4hdbrjdcDnKL/9tokgoK2d//Dnb5wg4JUZ7m3pVrkKTWRP4ss99Ruxiug425bCtaptiex97wW+Q9pV4m0otxBZ+D4FHE8cj9yGo3ZTOpg42Cj1a/cvYt1DVXUGAW3v/IsyThCwBLgnYx0s7S/vQRPbBDiJ9NOgc0QegtfQzfUB41pCdJSvINL8ngNcRrsO0xkua4gFkD8jRqsnAs+gO6v0y9qHePSVcjdMUX5G2kchdQQBXen8hz+3CwUB766hHpZ2lhuARV1cgNQWBxNJT/bMcO0/E8/Wv53h2m22FbHQcDdgu0HZdqRsP/hZdsX8w0RmuXuIL8l/E6PR24gA7FZiZP+Pwb9vL3mfrlpKBLhHE8FuSvcPrv1JIrBIaTdiLcroPv8U1hKPAM+peJ1jiSyhM1UrNKaFMgZuBJxOBLWaHjcTZ4dc23RFum4R8QedK0q7jDjVT480S4zCi7ITkQazKAcQByHtTSSR2Zr0HVqf7EjMcORazPlLYlYhp91Iv121ayP/0TLOTMARxPvTRP0s9ZVbifwu/1tz5gxAGs8jIukcow+Io4s/QvyRSiktIdafvIk8eQjuI2azPkv6Uf98Us4EdHXkP2rcswM2JY7kNlDun7uJE06VyebAx8izNqAolxJn0xu4qaodgQ+T96TES8jziGwhy+jXPv8zaf7sAEljOJA8q6aHyzXENh4jdU1qX2I0uoZ8n8/VwBtoJlCdIXIu9KXzP4N4HdtwgJCkMcwAJ5A+b8BouQF4C91LIav6PYM4ZyDHqv7h8n1gl5raNGoj4Itj1HFDZS3w6gR1OZbqnf9Z/P9jg6YPEJI0gaXA98j7hTsHrCSmc5fV0ip1xSyx3fK35P8M/h54Zj3NmldfR/6jZondQVWu7UyAVKPDiGn73F/Ca4mFPi+h37kEtGG7Ax+knsRLq4lZqCYfR01L51/YjtjKahAgdcTGxGOBleT/Up4j9nqeRHPTsarXpkTq4Z9Sz3autcBXiMWETZq2zn8x1U8PNAiQGrIlcAqRFKWOQOBhIg3vi9nwMavqpv2AzwB3UM/naY7YlnpAHY0bwxnY+RsESB2zO3A++RdlDZc7gS8RjyR8RNBdOxP79n9DfZ+dOWJ3y/Ia2jeu12PnbxAgddhTgB9Q7xf5HPBP4PPEwq2mEpRofLsBb6OZjG1/BV5Ou/JPbEqkcLbzNwiQOu9pxNRq3YHAHLFe4JNE2mFzC7TH7sA7iZF+nTNFRbmR2M8/m7uhJRxG+Xatxc7fIEBqoYOBi2gmEJgjVnV/izje1gWE9XoMcCjwIeBKmvsM/I14/9u8ZuQEyrfvtQnufyz96vwNAqQWOYRIqtJUJzDcGZxGjLj6dtZ9G+xBdGbnkzct77jv9Ql0YxboaMq382Jgswr3XkH6JD+jtgIur3iPssVkQVJLHAScCzxI88HAf4CfACcTByBtmbHdfbUn8CpiC90tNP+ezhFJfI6iW2tBnki1Nv8IeGyJ+6bo/OsY+VetozMBUovsApwKrKL5DmP4S+Ya4iTEY4C9srW+m7Yntl+eTCRoqnOr3jjv3XeB52RrfX6XUm8Q0JXO/07gqcAFFa9jECC1zBbAG4Hrab4Tma/cTiSj+QzxrPUQ+j9TMEMs2Hs+8A7gPODvNP9ezFfuJt6bJk7pS20/qp+3MW4Q0KXO/8DB9WYxCJB6aQY4gpiSr3tbWJnyd2IUfCqxgOpQ4vl3mxeajdoCeDKRX/8DREd/NfUldapSrgfeDCxK/qo0aznVj/5dKAjoYudfMAjQo2rTvl6Vt4zoVFcQ+8W7ZI7ISXAjsR3xZuCmQbmLWBg3XHJYDGwN7ESkti1+7jz0cwciB3uX3E98+X8ZuIR4rftoObFgtsqpmBcBRxKd3bAVRPKsKusjzmR90qL5LAZ+TOQEKWsVsVD3qnn+bxb4JvDSCtd/YPD7P6xwDbWMAUC/zBBfAscRswN9XLVfBAV3D34+PPR/c8wfJGxCjHwXEZ3E44hV1pvRz6OUryA6/W8Qr9M0yBEE9KHzLxgESFNkG2LK93c0P/1syV9uBT4N7M/0Svk4oMvT/o/GxwHSFNoLeDfNJpexpC+3EemcD6VbW/hyShEEXE3/Ov/CLHBhxfsaBEgdtZQ4v/2XNJNe1lKt3AGcAxxONxL2NOGZRM6Kpt6jOpL83EXkCCljY+LxUJX7myxI6rhlwNuBnxN/0E13bpb5y9XAR4mOzVMcx5NiJqBMaevIf5QzAZL+Z3NiIdEp+Kig6XIvsb3zLcCuG3rTtEF1zwS0feQ/ypkASfPaHTiRGCXcRfOdYp/LfcQ2vZOBZ9PO0/e6qq6ZgK6M/Ec5EyBpQXsQ6X7PBK7F9QNVSnGmwvuJWZcyOek1vtwzAV0b+Y9KEQQ4EyBNkW2IPPcfBn5B7DdvumNtY7kXuIxYrX8ccAA+x29CrpmAro78RzkTIKmSpcQXwLuIleq/I74Umu6E6yo3sf4chGOIXPV29u2ROgjoS+dfMAiYMmYCVG4bE3kI9icOoFk6KMsGPx/XWM0mNwesJNIVXwf8hcixf92g3Ntc1TSmFBkDIab9TyQ+E/OpK8NfarPEGRdHVriGGQM7wgBATduO9UHBrkTO/W2AJUM/i5Ijbe9DPPK8gTuI8wluIpLt/GNQbgMezFAH1Svn2QHQ3c6/YBAwJQwA1CWbEYHApsTMQnHM8PC/i7z/DwH3DP3uataP1u4jjpFdjaP2aZUrCOh6518wCJAk9VaK3QEXs34XR9tX+0/K3QGSpN5KFQTsSL86/4JBgCSpt1LsDqj6+3Wu9p+UuwMkSb3V5AFCbRz5j3ImQJLUW00EAV3o/AsGAZKk3qozCOhS518wCJAk9VYdQUAXO/+CQYAkqbdyBgFd7vwLBgGSpN7KEQT0ofMvGARIknorZRDQp86/YBAgSeqtFHkC1gGH1F3xmswC36ba67MGeEHdFZckaSGpMgZuVnfFa5JiJuA+4nWWJKlVDAI2LEUQsBo4oO6KS5K0kBSPAy5i/QFCfXMc1V6bOeAGYOu6Ky5J0kKcCZjfUcQx3FUDgDniqGaPq5cktY4zAf/vaOBh0nT+RXlDrS2QJGlMzgSElCP/4fJvYKca2yFJ0timPQjI1fkX5Zz6miJJ0mSm9XFAjmn/0bKO/iVPkiT1yLTNBOQe+Q+XC2pqkyRJpUxLEFBn51/MAuxbS8skSSqp748DUkz7l/n9z9XROEmSqujrTECKkf/ZwKtL/N7tRKZBSZJarW8zASlG/mcBM4PrXVLi91+YtYWSJCXSlyAgdecP8PQS1zg9XxMlSUqr648DUk37z4xeGPjVhNf5c4b2SZKUTVdnAnKM/IcdW+J6j0/aQkmSMuvaTMDLyTfyLywGHpzwG+FINQAAA0RJREFUmi9K10RJkurRlZmA3CP/YZdPeN23JWifJEm1a/tMQB0j/2FnT3jtL1ZsnyRJjUkxE/Aj0s8E1DnyL7x1wut/t0L7JElqXNuCgCY6f4i9/ZPc4+cl2ydJUmu05XFA3dP+w5474X2uKHEPSZJap+mZgKZG/oXDJrzXVSXvI0lS6zQVBDTd+cPkAcClFe4lSVLr1P04oMlp/2ErJrznDyreT5Kk1qlrJqANI//CJya879cS3FOSpNbJPRPQlpF/4eIJ7/2+RPeVJKl1cs0EvIr2jPwBHgOsmvD+RyW6tyRJrZQ6CGhb5w9wRIk67J/w/pIktVKqIOB42tf5A5w/YR3uyFAHSZJaKUUQULXk6Px3AO6fsB4XJK6DJEmt1mQQkKPzB/hUibqcmKEekiS1WordAZOWlKv9h+0DrJmwLg8C22aoiyRJrVfnTECukf8mwK9K1Od7GeoiSVJn1BEE5Or8AT5esk5HZKqPJEmdkfNxQK5pf4ATStbpTxnrJElSp+SYCcg58n8d5bciHpOpTpIkdVLKICDnM/9J8/0Pl2sG15AkSUNSBAFriS12GyWu277AZRXqtQ54VuI6SZLUG6lmAn49uFZVOwKnEVv3qtTHk/8kSVpAyscBVxIzAttPcP/HAi8DLmTyPf7zlRuAxRO+BppQ6ikfSVIzlgPfBzZPdL21wB+APw7Kn4j0vRB9xzJgv0E5CNgy0X0fInY6XJ7oepIk9V4bzg6oWl6X/FWRJGkKNJE2OFU5OcPrIUnS1FhO94KAL2R5JSRJmjIHAStpvmMfp5yCa9IkSUrmCcB1NN/BP1p5AI/5lSQpi0XA12m+sx8tNwJPz9huSZIErADupPmOfx3wVWCrvM2VJEmFJUSWvrIH81QtVxO7FCRJUgOeBJxLfYHAH4BXAhvX0ThJkrRhexKn9d1C+k5/DfAd4HBc4S9JUivNAM8hHg/8nnhOX6bTXwmcBxwPbF1rCzQxozJJ0qhtgQOBvYF9gMcTHfoWwCxwN3APsIrYZng9cC3wFyIQkCRJkiRJkiRJkiRJkiRJkiRJkiRJkiRJkiRJkiRJkiRJkiRJkiRJkiRJkiRJkiRJkiRJkiRJkiRJaov/Ai//NdHvopmJAAAAAElFTkSuQmCC;" vertex="1" parent="1">
          <mxGeometry x="180" y="-2" width="60" height="60" as="geometry" />
        </mxCell>
        <mxCell id="blwYtq8k7Kkv4hBBUEDL-7" style="edgeStyle=orthogonalEdgeStyle;rounded=0;orthogonalLoop=1;jettySize=auto;html=1;entryX=0;entryY=0.5;entryDx=0;entryDy=0;" edge="1" parent="1" source="blwYtq8k7Kkv4hBBUEDL-3" target="blwYtq8k7Kkv4hBBUEDL-6">
          <mxGeometry relative="1" as="geometry" />
        </mxCell>
        <mxCell id="blwYtq8k7Kkv4hBBUEDL-3" value="" style="shape=image;verticalLabelPosition=bottom;labelBackgroundColor=default;verticalAlign=top;aspect=fixed;imageAspect=0;image=data:image/png,iVBORw0KGgoAAAANSUhEUgAAAgAAAAIACAYAAAD0eNT6AAAABHNCSVQICAgIfAhkiAAAAAlwSFlzAAAOxAAADsQBlSsOGwAAABl0RVh0U29mdHdhcmUAd3d3Lmlua3NjYXBlLm9yZ5vuPBoAACAASURBVHic7d13vC5Fffjxz72X2+lN6UWkg9gVsQGWGNGomGiMxm6sWH8aSyS2qBEVWzQWEhKNHbuCPZYoIiIK0kR6RwQu/ZbfH3OOHM495Xl2Zmd2dj/v1+v78sXL+zz7nXl2Z+bszs6AJEmSJEmSJEmSJEmSJEmSJEmSJEmSJEmSJEmSJEmSJEmSJEmSJEmSJEmSJEmSJEmabkHpBCbcGTgYuC+wJ7ArsAWwIbC4YF7SbcAq4GrgXOAM4GfA94HLCual29l+qKs63X6UHABsATwFeCpwr4J5SE39Avgv4FOEC1z52H6odoNsP7YH3gvcAKwzjB7EKuA9wHaobbYfRt9iEO3HYuAI4HrKV7hhtBE3AEcCS1Fqth9G3yN7+5HrEcAewGeAu2U6nlTSKcDfAGeVTqQnbD80JNnaj4VtHwB4AnASXrwajgMI5/zjSifSA7YfGpps7ceilr//6cCxwLKWjyN1zVLgcOAKwsWs8T0d2w8NU5b2o80BwPOAj5HnLoPURQuBRwN/BE4snEttbD80dK23H20NAJ4AHIMXrwTwcOBUwjvAmp/th3S71tqPNiYB7gb8Eti4he+WarUKuDcOAuZj+yGtr5X2I/UIewnwebx4pek2JCz44cp0s7P9kGbWSvuR+hHAqwirc0la3zbAdcBPSyfSUbYf0uyStx8pHwFsB5wJrEz4nVLfrAJ2By4tnUjH2H5I80vafqR8BPAqvHil+WwIvLJ0Eh1k+yHNL2n7keoOwBbABcCKRN8n9dkNwE4MaAOQedh+SKNL1n6kugPwFLx4pVGtBJ5UOokOsf2QRte59uMXpNsQ4VTCph/74C1BlbeScC4eAfyGdOf5z3MWouNsP9RXvW8/tgHWEl+gm4Hn4+If6q5FwAuBW4g/39cCW+dNv5NsPzQUvWw/nkyai/ehuROXGjqYNBfx3+ROvINsPzQ0vWo/jia+IP+QPWspzouIP+/fkz3r7rH90BD1pv04nrhCnIq37VSfRcBviTv3v5k96+6x/dAQdaL9SHHh7Bb5+Y8TnmdINVlDOHdjxF47fWD7oSHqTftxNXGjmL3zpywlsS9x5/5V+VPuHNsPDVUv2o/YyQwb5k9ZSmIj4s79m/On3Dm2Hxqq4u1HipUA13UgB6kUz/841p+GrOj57+QZSZIGyAGAJEkD5ABAkqQBcgAgSdIAOQCQJGmAHABIkjRADgAkSRogBwCSJA2QAwBJkgbIAYAkSQPkAECSpAFyACBJ0gA5AJAkaYAcAEiSNEAOACRJGqANSiegxu4J3BfYAdge2AnYFFgJbAwsAzYEbgFunPjMKuA64NKJuAw4Dvi/nIlLymohcC/gscCDgG2AOxPaihRuILQllwI/BL4CnASsTfT96rB1kaFm3kl83a8DnpE78Z7x/I9j/bXrUOBU0rQV48QZwBOBBe0XsWrVn//VF6BSzyLNhfrg3In3jOd/HOuvHdsCPyJ/xz89fjyRi2ZW/flffQEqdRBpLtAdcifeM57/cay/9O4DXEz5zn8yLiE8rtT6qj//qy9ApbYivu5vxomgsTz/41h/ae0JXEP5Tn96XAfs22K5a1X9+V99ASp2NXF1f0aiPFYCD0/0XbXx/I9j/aWzJfB7ynf2s8XvgS1aK32dip7//vWX16HAz4B7JPq+syM/f26SLODpwPHAr3Dij1TKvwC7lk5iDrsCby2dhNJyBD+/g4DvcXuZ/yfR9/4ncXX/gQQ5LATOnPa9vwQemeC7a+D5H8f6S2Mv4DbK/5U/X6zGRwFTVX/+V1+AFt0F+DozXwQpRuqvneG7x4lXJMjhsXN8/7eBvRMcQ9LcjqF85z5qfKKlOqhR9f1n9QVowWLgCMLCO7OV+0MJjvOEOb5/lHhcghy+P88xbgHeTliUSFJ6i4mfD5QzrsJF6CZV339WX4DEHkR4Nj9fuW8C7hR5rP1GOM5ccbfI499jjGP9AXhI5PEkre9gynfq48ZDW6mJ+lTff1ZfgEQ2AI4k3N4ftexvizzmsjGPNz02jjz+f495vLXAR4AVkceVdLsXUr5DHzee30pN1Kf6/rP6AiSwJ2Ht63HLfi2wSeSx/9DguOuAKyKPux1wa8Njn4ZzA6RU3kb5Dn3ciP3jpy+K9p++BhjvCYTO/54NPrsx8LzI45/Z8HOxrwC+iPDssYm9gZ8TXhmUFGer0gk0EPv4Uwk4AGhuAfBq4LPE7ar1csKt/KZKDABWAM+J+DyESYGfAY7GCUFSjBrb8Rpz1gyG+AhgBfB50t0Oi+lMmz7/e0uBY84UN+DjAKmJpYRn6ZdS/pb+uHExYUOzpncR+6L6/rP6AjSwGDiBdBfDOcCihrnsBbwS+BvgQML6Anfi9rkFi4HNJmJ34IET/7bpYhwLCUsIpyj3WuBJDfOQhmoJ8FzgQtJchy9okMOjEh37PMIr00sb5NAH1fef1RegoY2BU0g3CKjlefhfka7Mr8mcu9QFWwDbEAbl43R8i4GXkH6nv6c1KMODE+dwHuFOaJM/hFZS7wCi+v6z+gJE2A64gDQXwK+oYw39H5KmvMfkTlwqZBvgZcB3gcu543VwG2Hp7A8S7s7N5v7AqaS59qZHk2W792opl58z9/ok+xH2E/gu4S2qqfV4JuHR7NOJf8U5l+r7z+oLEGkf0m2/eWjm3Mc1zsI/c8X/Uu+IXRrV9sCnGG+tjpOBp3D7JLlNCKuGrhnjO8aNnRqUbRlhMbM28rmVsHro8inHexR33E9lvriRsNfJ5g3KllP1/Wf1BUjgUJq/Ez8ZtwAvzp34mHYEPk5cWc+k+xelFOslzL0U+HxxMmGvjksivmOUOC+ijP/bcm7nEP6a/27Ed1wF/F1EGdtWff9ZfQESeTJhUtu45b8VOBbYLX/Kje1MWNFv3FUIrwLumj9dKZtFwPtpt2NMGe+KKOsRHch/1Hg73XzEWn3/WX0BEno945X9B4RHCLXaE/gmo5X1VsKa5VKffZTynd2osYa4AfmmxN3lyB3/GlHWtlTff1ZfgMQ+wvxlvoRwx6Av/pr1JzdNj6eXSk7K5FmU7+TGiY8lKPMbO1COcaJrb1tV339WX4DEFgFfYvbyfhHYslh27dkK+AIzl/mtBfOSctidMPGsdAc3alwObJ2g3MtIty5IjriWZpMe21J9/1l9AVqwIfAL7ljOVcCzSyaVyTO44+zgz9HNZ29SSt+gfOc2atxK2q259yDdm1A54riEZY9Vff9ZfQFashVwFqGMFwH3KptOVgcQ9ho4ibh9ElSnZxAGwUNxOOU7tVHjZuDxLdTBQdQ1CHhUC3XQRPX9Z/UFaNEewJdJc6utNlvijl9DdCThuv4JsFHZVLLYkHRL8rYdF5P2L//p9gNO70A5R4lziNuELZXq+8/qC6DqdOHC1fqO5I7X9hAGAe+gfGc2X9xCmJy8WUt1MNUywpyf6zKWr2m8saU6GEf1/Wf1BSCctK5M133LCJ3M6TgI6Jojmfn67vMgYG/iFwBrM/4EHAXs0FYFzGEz4HW0v5BRTNwE3KWtChhR9f1n9QUA3gScDRxSOhHN6v7c8fbiG8qmoymOZO5rvK+DgHGWps0ZFwEvohvzMJYQVuL7HeXrZab4WntFH0n1/WftBdiRsCf9OsJKfscSdutSNywnrOI1fdXBGwlbH6usIxntOu/bIODJlO+8psfVwEvp5t2xRYRdB1NtnpYyHttiuedTe/9ZfQG+yPo5XUqzLTKV1oMJk3VmO3e+Wi41MXrn37dBwMak35I3JtYAH6aOP1xWAm8jzEsoXW+T8QdgRZuFnkPt/WfVBTiUuXP7CmWenw3dCsJf/aPsgPaQMikO3pE0u977MAh4N+U7rck4D3hoq6Vtxz6EbZBL199kvKXd4s6q5v4TqLsAP2b+/G4AXk24haX2PYgwH2PU8+fHZdIctCOJu+ZrHgTsR9h7PkWncwrjb6g1GWuAf6Oefe9nsoQw/6rp3YC1hLVGUvwWNxNWc8yt5v4TqLcAD58nr+lxMnDPIpkOw8aEV5Wa7Kj4sAL5DtWRpGlwaxwELCDdFrgXEibp7QN8itEHFWuB4wmTYvtiL+DTjF4Hawjrq9yX8IfZySN+br44vu2CzqDW/vPPai1Akwv5NuBoXN0utUcRt5jKz/KnPEhHkqahnYzaBgFPI13Zp29Ksz3wYuDrwPnc8fHXZYQ3Dl5LePUwpcXAA4CXESZA/5gwUW/qe/w3AqdN5PZBwkTD/Um/xPeOhDr4GuG5/GQdrCHUybeAV7D+q3v3Y7THhaPE4YnLNJ9a+88/q7EADx0zx+lxNm5tm8q7SHPhPjB34gPzTNJ2/pPxI7rxutp8NiV0xCnKPMpfmksJ79K3MTltCWE54M8TNsdpWo5Lgf8EngBs0EKe40i1DfPknZlcauw/76DGAhw3Zo4zxVrCyFNxnkKaC/ezuRMfmJXA90nzW02PGu4EvJ80Zb2FsER4CVsTnrlfOU+OTeJ84FWEgVIJm5OuXO/ImHeN/ecd1FaAbUkziedHuMtdKt8l/ve4Dd/YaNtQBwF70Xyy3vR4c+bcIdTrW7h9vZM243rCUsAl7uo8p0G+M8Wt5FshsLb+cz21FeDIiFwnYzVwt8x599lepBmUvS134gM0xEHAsaQp3/nknz/0GMqsWXDxxLFzWgj8NEHu6wgTknOIzbO4mgqwAWGZzFpOjiH5OPG/yyX4umYOQxoE7ES61/4Oy5j3ctJcU7HxsYlccrkHae7W3Ey4W9y22DyLq6kA4776N1PcCuycOe8h2JFw0cX+Pg/JnPdQDWUQ8HzSlOlLGXPeBvhVorxTxC/J+3gu1XyNZ2XINTbH4moqwL8nyPdjmXMekg8R//t8OHvWwzWEQcCniS/LjcAumfLdETgrQc6p4xLCIko5bEyaXQiPzZBrbI7F1VKARcDlkbmuAe6aMeehuSvx7/NeTXjNSXn0fRBwBvHleF2mXO9KmGfQxm+RIq4gzPfJ4akJ8j0tQ56xORZXSwEenCDXb2XMd6i+RfPf51fAP1P38qg16vMgIMUEuk8Rbsu3aYdEubYdF9D+44BNSfMY4IKW8yRBjsXVUoADCctHrorI9XEZ8x2qRzP673ELYVGVFxJufaqcvg4Crhkxx/nij7S3w+hKuvXMf744ifYmBh5Gmtv/64CrWspxqtgci6utAEsJuwAeBZw+Rp6XUH61qyHYgLkf1fyRsOjP04BNCuWomfVxEDDOxlSjxNGE19VS+ljiHHPERxPXAcARpFsSeB1hLkXbYnMsrvYC7Aw8l9CpzLUs5gcK5TdE0ycDnkt49fIwwtrl6q6+DQK+lCj3qZFy69nHtJBfrkj5WuSLWsjvywnzm01sjsVVX4ApNgAOIuxFP32byRr33K7VAwmN/WtIv/mJ2tenQcAbWyjDWtJsOrMUOKeF/HLFRaRZGOkhpFurYWrkWLWx+v6z+gLMYRfgBcBn8Pa/NI6+DALuSrMtqueLywib/cR4VQt55Y7YTnYJ8LuWcsvxx0f1/Wf1BZDUir4MAppsHT5K/EtETlsDf2opr5yxCtgqoh7auPW/Dvi/iJzGUX3/WX0BJLWmD4OAQ2nnLsCVwLKGOb2thXzOB94HPIKwY+FKwmz97YG/JOySl2Ip9enR9C7AAtKs0zBT/GXDnMZVff9ZfQEktaoPg4D/aCn/RzfIZRlpt/S9EHgmo+2jsQj4O8I78qmOfznNFu+6R8IcpsZnGuTSVPX9Z/UFkNS62gcBm9POs+ajGuRyeMLjH0ezrXs3Aj6XMI/HN8jh5QmPPxnnAndqkEtT1fef1RdAUha1DwK2I/2s++Mb5PH5RMd+L3FrEiwgPDJIkcsnGhz/E4mOPRkXAbs2yCNG9f1n9QWQ5tBGZ2W0EzkGATsAP0yY86ljHn8xcF2C4x5HmgWJFhBumcfmc9HEd43jmwmOOxm/BHYb8/gpxOZdXPUFkOaQuxMz4iLHIGAh8ErCLn+x+Z4+5rEPSnDMC2l22382m5JmE6Jxdws8IcExbyMszFRqgbHY/KOkXpJSkko6EPgq7e4IuRZ4F7A78MXI77p+zH9/n8jjQVjcaFWC75n0J+CfEnzPwWP+++sij3cCsC/wesJAYHAcAEjqmwfTbHLduC4ifsb4FWP++7tFHu8C4D8jv2MmnyTcWYgx7lbrV0Ye76PAmZHfUTUHAJL66PnkWcktduvpi8b897HPqb9E2DAntdWEtwJi7DTmv7848niD3zbcAYCkPloEPCfDcWLnG1w25r/fPvJ434z8/Fy+G/n5ncf895dGHq/UFtOd4QBAUl8dmuEYsX9FjvssPnb/gHMjPz+X0yI/P+7g5obI4w1+AOAGN+q6JYT3xzeb+N8Nx/zvA/OnrI4Y95ZyE7Gz6W8a898vjzzeJZGfn8vVkZ8fd1nkGyOP5wCgdAIZfJrx73Qs4/YL7RGEWb/KbzFwS8Tnb06ViKoU/ZpUBuPmGNsWtfH8P9V3j9tOj7tuQOrPV28IA4BHE7fn9ArSvjKj0cX+teMAYNguyHCMcV/jm27c1xWvB7aION4WjD/xcFTbRH5+3Fv6KyKPF/vbVW8IcwBibxPFdkJqLvYCdwAwbN/OcIzYd9HHPcdjO639Iz8/lz0jP3/tmP8+5g87cADgAGAEKVfM0nhi694BwHCtAT6W4TixncjWY/772HftHxz5+bk8LPLz496x2TbyeLGDt+o5AJjfnZNkoSZibykOfoQ/YB9k/GV2m4g9x8Y9x2MXrnkKo237O67FwBMjv+P3Y/777SKPN/j2YQgDgKsiPx/73q2ai6372IVCVKcfENbqb9sewLMiv2PLMf/97yKPtx3w5MjvmMmTie+QTxnz38fMhQB4EgNv34cwAIi9ZbZDkizUROwtvtiFQlSfnwCPod213ZcAbwV+Czw88rvGfRXtx5HHA3hbg+POZRPg7Qm+58QGx43xeOAs4FUMoy9czxAKnXt9aqWzV+TnvQMwLD8B/oJ2b+3uSeioXkuat6hWj/nvTyb+2fUOwCdI8xrcQsJci9jHdX8CThrzMykGecuBdwLfxz/2Gim6neEIXhiZ308z5KiZ/Zy43+4F+VPWHFYSGtrYNmOm+DHtL+yyG2FQmTLvJuvnfyHRsd9H3CBgAfDeRLk02VTp44mOPRnnk2fxqKlicy6u6wX4y8j8rmcYd0q6ZiFh/YWY3+6Q7FlrNrV3/tsRZqmnzv3IBrk8LuHxPwNs2iCHTQiDl1R5/FWDHF6W8PiT8Ttg8wa5NBWbb3FdL8COCXKMfb9V49uX+N/tTtmz1kxq7/wh7KLXRv4PapDLEsLk5lQ5XAD8PaM90lgMPI20d0KuYPwFkQAOSJjD1DimQS5NxeZaXA0FiL1Y/iFTnrrdi4lvVFReHzr/J7SU/wU0n0fw5hbyOR94N/Aowq3wzYClwK6EuRXvJv0jkHU0uwsC4RHEaS3ksxY4uGFO44rNtbgaCvD9yBw/mylP3S72Oed38qesafrQ+UOYeNdGGV4bkdOWxD8i60Jcz/ivQk71/Jby+mFETuOIzbO4GgoQO1EldptLje+9wOU0/82Oyp+ypuhL579/S2U4n/iVLt/WUm45442RdbABcGoLea0lzxtgsXkWV0MB/rpBXqcR3m09lGFsmtRFC4F7Aq8mNPprGP33e2yBfBX0pfMHeEcLZVhDuKUeayVhINFGPeeIC4hfzx/gIODWFvJ7Y4Lc5hObY3E1FGAL5u88biJsHnIEYeKgumcrwnKjxxLeG56rgY1dJUzN9KnzBzg+Ue5T49UJ83tsC/nlihSDoEnPayG/4xLmN5vYHIurpQCnzHDsKwidyROBjTPmoniLCCP/txMWEJn6u55cMK8h61vnD2Hr3FRlWEvzCW9z+VDCHHPFv7VQD88iLA6UKsczWshxulr6z1nVUoCjJo43eWv/IHy/v092I9y9OR74l8K5DFEfO38IdwZTlOEK4PCWclxGexMV24hfTOTchr8g3aDt6pZynKqW/nNWtRRgB+I3q5C0vr52/hA6gdgyfILw+KpN2wJ/SJBr23Eh7S+5uwlpViiMXUZ+FLX0n7OqvgCSGutz5w9pJtm9KFOuexD35kzbcclEjjn8fYJ8Y3deHEX1/Wf1BZDUSN87fwgTwWLLci3xm+WMane6eSfg/IncctiEMNiIzfmTGXKtvv+svgCSxjaEzh/gpaQp07EZc94W+GWivFPEd2n/EchUqSZFPjdDrtX3n9UXQNJYhtL5A9yFsGVvbLnWAg/OmPdS4OgEeceW+WjC/gG53JM0v9et5NkeuPr+s/oCSBrZkDr/SZ8mTflOI29nCHAYcF5k3k3iTNK+5z+KhcD/Jch9HfAfmXKuvv+svgCSRjLEzh9gP8ZbhXKueFXm3AFWAG8hrLvfdsf/R8Jjk9wDHUi3GNBqYK9MOVfff1ZfABXlWgx1GGrnP+nDpCnrDYSd9krYAngTcOU8OTaJ3wOvp9wKnFuQrlzvy5h39f1n9QVoaGfgvwhbZqqZrQi3Co/AgUDXPZN2Ov8fEb8pTg6bExbzSVHmz49wvLYWygFYAjyGsMvpNTQvx58IM+UPoZ3rdwWhfR1lv4CPj5DvKHEZsGnKQsyj+v6z+gKMaQFhduh1hPy/UDadqn2FO3YEe5ZNR/N4NWk7/xr+8p8q5SDoEdO+e2fgZcA3Ca/MrZ34d2sJC9KcQHh8sFviMi0C7j1x7I8APyD8NX81cAvh0ccfCa8W/oiwqNFLgPtOfDal3YD/R9jK+1LuWF+XE+5A/SPrtxMHcnt9xcbTEpdpPtX3n9UXYAx7AT9h/TI8pWRSlXoO69fjTYQLvMTzQ40m1SCgts4fwuD/p6Qp/9mEv/IPAD7H6DPX1xAGzvdouaw5HQB8mdHnWawFvk7o+Ddg5n1emsT/En7jnKrvP6svwAg2IDR8NzNzGa4nTBTSaO5OeBY62znxa+A+xbLTfGIHATV2/pMOIM1rZusI7+o3nVx4G2F/k+XtFrdVywj7djTdwGct8KuGn52pPku04dX3n9UXYB53Y/3d5maKPwBbFsqxJnci7AM+X32uIdySrOH58BA1HQTU3PlPeh9pOp0U8Xvgge0WtxX7k67zThFHtVvcWVXff1ZfgFksJ+waOM7o9DuECTaa2XJCBzBuA3dIiWQ1r3EHAX3o/CEsNXsZ5TutybiNsPnNJm0WOpGNgXcRFtopXW+TcTHltoOvvv+svgAzeABhI4gm5fki4ZGB7mgx8DWanyefxTssXTTqIKAvnf+kp1K+45oelxHehe/iHJrFhHk/KdboTx1PbrHc86m+/6y+AFOsIPzVH7vox3+QfzJJly0kvC4Ue65cCjwxc+6a33yDgL51/hCu7x9SvvOaKc4ldLZtvko4qmXAswl38krXy0zxvfaKPpLq+8/qCzDhENJs/TkZHyX9azI1Wgx8irQXbc6FOjSa2QYBfez8J+1L8wlsOeIK4M3A1m1VwBy2njh2qrUT2ohbgb3bqoARxZahuOoLMOFQ0r1LOhlfohuj8FKWEh6JpKzTNcCDchZCI5s+COhz5z/pKMp3ZPPFjcB7yDOhdiXw7oljli73fPGOlupgHLFlKK76AkzxHtKfZC/PWoJueSDp/0J6W9YSaFyTg4AhdP4Qyngx5TuzUeJc2n299p5091b/9LiQbrxhFFuO4qovwBRLCe+gpzrJvo9vBTybdPV5MtZnDZ5BNxrXXJ5E+Q5t1FgFPLyFOjiEPJsNpYrDW6iDJmLLUVz1BZhmf9LcvjqNOl7LyeHtxNfndeTboUsa13cp36mNGjcRlv9NZX/CwKJ0uUaNExKWPVZsWYqrvgAzOJy4+QBXkn7N7potIGyc1LQ+19KdEbs0kz2p47n3ZJxPmnffV1LPbf91hN9o9wTlTqX6/rP6Asyi6V+tNwH3L5Bv1y0hvHLTpE6PzJ+uNLZnUb6DGyfelaDMb+1AOcaJZyQoc0rV95/VF2AWC4GvMl5Z1lJ2UYmu24Kw/e84dfpl3CpY9fgo5Tu5UeNWYJuIsm5J+IOndDlGjQ9HlLUt1fef1RdgDhsDv2D0sry6TJpV2ZWwteco9fkzhjWZTPVbQJo5L7ni9RFlfVUH8h81jqabf0hU339WX4B5bAn8lvnL8fFExyuxaMeo9iTNugb3Zu7dANcBpwKbJziWVMILCBNXm7aLP5z4jrZfMTwlooyptkaeLS4hvEZ9csR3XDdRj11Vff9ZfQFGsC1zT3T5AWleT9uFcFvu24Qlb7uwpvcGwOMJGx2tJSwxmsLhzL7k8jnE3ZqUumAbwrLgtzBex/+YKd+xCfBB4pcnny3WAJs1KNsK2tvQZ81EmSffoloIPIXxBgK3AccS2u4uq77/rL4AI9qFsOXv9PxPAzZNdIz3T/vuS4EPAQeTd1nhhcBBhNtml07L6ZyEubyC9evzbGCnRN8vdcEWwAuBbwDnccc3jFYR/oB4O2Hr8dkcyGh3IpvE/RqUab+Wcvn1PPkcRGgnT2T9AcilhD9UjqDbd1Knqr7/rL4AY7gz4ZbZZO4pX/fbgrnfpb0S+BzwIsIa5CmfZy0E9pn47i8AV82RxzrCHYFUpg56TqP7I3Yp1nLCX93Lx/zcEuBlpN+KeOodh1EdkjiHi4EXM95OqksJ9TgZNaq+/6y+AGPajLDMaerX/V7PePW2Cvg5YdbxXRocbwPgI4SJduMu4vGzBsebzSLCngknEgZBkua2FHgu6eYH/G2DHB6T6NiXESZPjzsY6ovq+8/qC9DAStJuSLOU9W+1jxP7NTzulRHHfHDDY85k5URIGt1ywu3umOu4VFwKPJ/Q9g1Z9f1n9QXogOfQvP7W0rzzjJnF+/WGx5SU1v9QvkMfN1K9NVW7ov1nF9+LHJoFhOd6TV1CeKWuibMijvso4ICIz0tKY23pBBqoMefecQBQ3mHEbXJzdqHPwrC3Opa64orSjXZX3QAAIABJREFUCTRwWekE5ACgC14R+flzIj4bOwB4Er6yJ5V2cekEGriwdAJyAFDavYifTPj7iM/GDgAWAy+N/A5Jcc4onUADNeasGTgJsLnPEF9/MdvkbkjctsfrCK8Q+vqeVM4y4pYdzh1XMt77/n3mJMCB2oU0C+rEPAJYRfyzuJWE13kklXEz8M3SSYzhy8Dq0kkoDe8ANPM+0oymN4rM44cJcrgcF/Lw/G/G+kvjANrbLyBl3Abs3VId1Kjo+e8dgDI2A56R4HsuA66P/I7YeQAQ1t1+eoLvkdTMKcAnSycxgo8Ap5dOQoEDgDI2B75PGLHHiLn9PylmLQAIt/K+QNy2opLivQq4oHQSczgb+KfSSSgtb+E1ty1hHewLaFZ3xyTI4XENj30J8CZguwQ51MzzP471l9Y+wJ8of6t/elw7kZvuqPrzv/oCdMBi4JHAx5h/J76p8foExx5nW8+rCXtsHzaRszz/Y1l/6T2A9DsGxsSFwL1bLXG9qj//qy9Ax2wAHAocDZzK3K/pPSnB8ZYz++ShNcDJwFHAw/DVnZl4/sex/tqxPXF7faSK7xO2UdfMqj//qy9Ax21BuE3/XsLFdDW31929Eh3j/Invuwr4DvBuwiuKmyf6/j7z/I9j/bVnAeFu3ank7/hPB544kYNmV/T8T/HjxCbhCTK+7YB9gR/TfCOgqe5DWE60xiVFS/P8j2P9tW8h4Rb8YYSVR7eZiFRbcN9AmBN0CeG14q8Q7hw6QJtf0fPfAYAUx/M/jvWnISt6/vsaoCRJA+QAQJKkAXIAIEnSADkAkCRpgBwASJI0QA4AJEkaIAcAkiQNkAMASZIGyAGAJEkD5ABAkqQBcgAgSdIAOQCQJGmAHABIkjRADgAkSRogBwCSJA1QigHArZGf3yhBDlIJG0d+/pYkWdTN9kNDVbz9SDEAWBX5+R0S5CCVsGPk569PkkXdbD80VMXbjxQDgGsiP/+wBDlIJcSeu39KkkXdbD80VL1oP74FrIuI3wCLsmctxVkEnEbcuf+N7Fl3j+2HhqgT7UeKOwBnRn5+X+AfEuQh5fRCYO/I74i9dvrA9kND1Jv248nEjWLWESYzHJI7camhQwmT12LP+7/OnXgH2X5oaHrVftwZWEuai/hFeDtP3bUIeAlpLt61wNZ50+8k2w8NRW/bjxOJL9Bk/BZ4GeHW3oY5CyHNYEPCufhy4p/ZTY3/y1mIjrP9UF8Nov14MekKZowXqwiN3nsJJ1rb9gOOIky+ujZD+foaLxy34nvM9qN5XAucSrgmc13/RxPanFUZymfMHJ1qP7bAk6ELsRr4ALBk7p+rkWWEC391B8pZe6wiXDMKbD/SxGrCHwJLx6v+kSwFPgSs6UA5hx6dbD/eQ/mKMUJ8l7SDgGXANztQrr7Eu8ar/kGw/UgX3yBcs6ksBb7XgXIZITrZfmyHo/guxfvn/rnG8t8dKE9f4jrCxDfdke1H2vjv8ap/Tv/WgfIYITrdfvw/yleQEWI1sM/cP9dIXt6BsvQpXjFe9Q+K7UfaePl41T+j/fC2f5ei0+3HYuBkyleSEeLdc/9c8zoEuK0D5ehL/JJwjWhmth9p4zbi10d4bwfKYYSoov3YnXCbonRlGWGmflM7A1d2oAx9iWuB3cb5AQbK9iNtXEm4lptK+eqa0TxaaT9SLAU83VnA3xNuG6msnRp+bgXwRWDLhLkM2RrgqcA5pROpgO1HWlsSruUVDT/vbovlVdl+PJfyoyajmWM6kHdfYi3w7PGqX9h+pI5Pjlf9f1Y676FH1e3H0/EZcukY1ys6kHNfYjXwvPGqX1M8HduPlNFkUmDpnIccvWg//gqf6ZWMcTjpL11cCzxmvOrXDGw/0kWTSYGlcx5q9Kr9uCvO7i0Vo9oZJ/2lil/ihL+UbD/SxbiTAkvnO8ToZfuxAXAEjuZzxyiWAyd1INfa4wbgSNpZinnobD/SxSmMPimwdK5DikG0H9sQ3k931a88MQpX+ouLVYTNWDq7QleP2H6kiVFXCiyd5xBikO3HFoT9u39Gmv3AjZljPq701yzWErbkfCGw+Qj1rLRsP+JjlEmBpXPsa3Si/VhQ6sDTbA08FLgfsCewC7AVYS/lXt8OyWCu3/gQ4FuE26ua2a2EEfqVwB+AMwidzveBKwrmpdvZfjSzGngkYfOw2azLlEtf2X4oSuxIczY7EU7AlKPaI5KUWNJsXkraa/ZqYNc5jtdW+yNpBG1cgG1M+ku5+5ik2X2CtNfuXJMCHQBIBbVxAR6T4Hunxq9ovtSopPEsA35B2mt4tpUCHQBIBaW+AFOv9HcV4ZmrpHx2JP0jvJkmBToAkApKeQGmXunvNsLkK0n5HUSYZJbqep6cFDiVAwCpoFQX4E446U/qm7YnBToAkApKcQE66U/qrzYnBToAkApKcQEek+B7poaT/qTuaHNSoAMAqaDYC9BJf1L/tTUp0AGAVFDsBZh60t/B7RZXUkMPJf317gBAKijliD42XtpyWSXFST0p0AGAVFDpC3gynPQn1SH1pEAHAFIhpS/gdTjpT6rJMuBEyrcbDgCkSKUvYCf9SfVpY1KgAwAps5IX72rg4e0XUVILUq8U6ABAyqzkxeukP6lupScFSopQ6sJ10p/UDyUnBUqKUOKiddKf1B8lJwVKipD7gr0aJ/1JfVNqUqCkCDkv1tXAI/IUS1JmJSYFSoqQ82J10p/Ub7knBUqKkOtCddKfNAw5JwVKipDjIp26/7ekfss5KVBShLYv0KuBXbOVRlIX5JoUKClCmxenk/6k4coxKVBShDYvTif9ScPW9qRASRHaujA/mbMQkjqrzUmBkiK0cVE66U/SpDYnBUqKkPqCdNKfpOl2BC7HAYDUKSkvRif9SZpNG5MCJUVIeTG+LHPukuqSelKgpAipLkQn/UkaRcpJgZIi3Ej8ReikP0mjSjUpcFXuxKW+OZ24i/BKYOfcSUuq2k7ErxT42+xZaywLSyegeX0v4rOrgb8BzkuTiqSBOJ/QdqyO+I6YtksScDdgDc1G4C8vkK+k/mg6KXANsG+BfKXe+TfGvwDd3ldSCscyfvvzgSKZSj20lHA7bdSL7+uEiTySFGsp8DVGb3++M/EZSYksAz4ErGX2C2818B68+CSltRR4N3Abc9/2/wC2P1Jr9gPeT5hhewPwJ+DXwL8C+xTMS1L/7U1oa34NXEtog35LaJN85i9JkiRJkiRJkiRJkiRJkiRJkiRJkiRJkiRJkiRJkiRJkiRJkiRJkiRJkiRJkiRJkiRJkiRJkiRJkiRJkiRJkiRJkiRJktQPm06EJA2d7WFhC0on0CNLgbsB9wL2AHYBdgS2AzYGlkz797cC1wGXAOcD5wFnAicBvwZuzpG0JLXA9lC9tgg4EHgLcCLhBF6XKG4lnPhvBQ6aOJYkdZXtoQbhfsC/AVeR7gSfL64GPkK4wCSpK2wP1XsrgJcAvyPfST5bnAm8FFjZaoklaWa2hxqEzYB/Aq6k/Ik+Pa4CjgQ2b6vwkjSF7aEGYQPgucDllD+x54s/Aq8mTLqRpNRsDzUYBwOnU/5EHjfOAA5toT4kDZftoQZhOfB2YA3lT96msZYwOWajxHUjaVhsDzUY9wDOpvwJmyp+D9wnaQ1JGgrbQw3GU4AbKH+Spo6bgeckrCdJ/Wd7qEFYBLyP8idm2/EhXDhD0txsDzUYS4DPUP5kzBVfBpYlqTlJfWN7qMFYAXyL8idh7vg2sGGC+pPUH7aHGozFwDcof/KViu/hyFdSYHtoezgYC4FPU/6kKx1fIizsIWm4bA9tDwflvZQ/2boSH4ysS0l1sz20PWRB6QQy+TvgvzId6zbCdpgnAr8CzgUuAP4EXD/xb5YT9sfeeSLuSlhxaz/y/SbPBI7JdCxJ3ZGzPVwH/IZwu/1s4LyJ+ANw08S/2QjYFNgRuAtwAOG9/fuS769z28Oe2p/232u9BfgC8ARg44hc7ww8Dfg8YSDRZs43ERb8kDQcOdrD24DPAU8ltGlNbQIcDnyR0MbaHmosywlrQrd10lwOvAHYsoXcdwTeCVzTYv7n4Daa0lC03R5eA7wD2KGF3LcktLVtbkhke9gz76KdE+U64HWEV2jatiHwWsLjgzbKcnSGMkgqr8328DXkea1uBWEgYHuoOd0fWE36E+TLwLYZyzFp24ljpy7PGuCBGcshKb+22sPjgG0ylmPSdsBXG+RrezgAi4Bfk/bEuJEwUaS0ZxFySVm20/BVGKmv2moPn5GzELN4NuH5ve2h/uyZpD0hLiHMTO2KexDeLEhZxudlLYGkXFK3h+cBd89ZgHncHbgI20MRJrqk7BzPJ7ym1zXbAKeSrpyXE/cGg6TuWUHazvF0YPusJRjNDoS/3FOV8zLC64mqzCtIdxKcRZiN31VbES7IVOX9x7zpS2pZyvbwdEKb01V3An6H7eFgLSbdX/8XUGay37h2IF2ZLwGW5k1fUktStofn0c2//KfbjnR3PGwPK/N3pPnhV9GtZ/7zuSfpJgZ2YaKjpHip2sMb6dYz//nYHg7UiaT50Z+VO/EEnk2asv86d+KSWpGqPezCbP9xPQ/bw0HZkzQ/+JdzJ57QV0hTB3fLnbikpFK1h8flTjyhVOum2B5W4M3E/9A3EzajqNV2hMcXsfXwr7kTl5RUivbwOsos8pPKDqRZMdD2sALnEv9DvzN71um9nvh6uJiwX7ikOqVoD1+TPev0XoftYe/tQ/yPfDlh96narQSuIL4+3BlLqlOK9vAa8qzt37aVhHf6bQ9n0JdRzcMSfMd7gWsTfE9pNwDvS/A9KepUUn4PT/Ad/054nFi7GwhliWV72GHfIG50dxPtbOlbytbE75/9nexZS0ohtj28jW4vgDaunQmb/Nge9tBCwmSVmB/3c9mzbt8XiKuTG3FDDKk2tocz+za2h+vpwyOAuxC/ZvOnUyTSMV+L/PxyYI8UiUjKJkV7+JUUiXTMJyI/38v2sA8DgNgV+1YTRod9cwJh5BrD91+lusS2h3293f0NQlsfo3ftYR8GAPtFfv5nhFtmfXMx8NvI79g/RSKSsoltD38DXJoikY65Fjgp8jt61x72YQCwU+TnT0ySRTd9L/LzsXUrKa/Yaza2zeiy2La+d+1hHwYA20V+vs9rPZ8d+fkadkOUdLvY9vCsJFl0068iP9+79rAPA4DYLSrPSZJFN50f+fnYxkRSXrHt4Xkpkuio30d+vnftYR8GAJtFfv6iJFl003mRn988RRKSsoltD89LkURHXRj5+d61h30YACyJ/Pw1SbLoptjBzdIkWUjKJbY9jO0kuyy2re9de9iHAUDsj3JTkiy66ebIz8c2JpLysj2c3Y2Rn+9de9iHAUDs6kx9qIPZrI38/AbAghSJSMoitj2MbTO6LLat71172IfOL3ZU14cdr2azMvLzNxK/mJCkfGwPZxe7QmLv2sM+DABiF/HZOEkW3RS7vXEfF0iS+iz2mt00SRbdFDsA6F176AAg/rWZLovd0asP2yNLQxLbHu6QJItusj2cpg8DgMsjP79nkiy66S6Rn78iSRaScoltD2PbjC6L3cynd+1hHwYAsYs77JUki26K3Rgktm4l5RV7zd49SRbdFNvW96497MMA4NzIzx+UJItuuk/k52PrVlJesdfsfZNk0U2xbX3v2sM+DABi17u/B/2cCLgpcK/I74itW0l5xV6z9yZ+8nAXbUb83Y3etYd9GADEbvG4AXBoikQ65uHEvxP8ixSJSMomtj1cDDwsRSId8zBgUeR32B521CWE9zObxhfzp9y644irk6vo2aIX0kDEtodfyJ9y676C7WFvfYm4H/cWYIvsWbdnK0KZYurka9mzlpRCivZwy+xZt2cr4FZsD9fTh0cAAN+O/PwS4PkpEumIFxK/bnVsnUoqw/bwjl5AeLQRw/aww3YibnS3DriS+KVzu2BDQlli62O33IlLSiJFe3g5sCJ34i3YCLga28Pe+zXxP/I/Zs86vSOJr4czcictKakU7eEbsmed3huwPRyE1xP/Q68ifrnIknYglCG2Ht6cO3FJSaVoD68DtsudeEK7cPsGPraHPbcDsIb4H/tLuRNP6BvEl38tsGvuxCUllao9/GruxBP6GraHg/It4n/wddQ5AeYfSFP27+ZOXFIrUrWHz86deAIvxvZwcB5Hmh/9JupaE/tehJxTlP2JmXOX1I4ht4c3Y3s4OAuA35Dmh78Y2Dlr9s1sD1xAmjKfQ/xqWZK6IXV7uFPe9BvZhfiFkGwPK/ZU0vz46wizP7fOm/5YtiHkmKq8z8ybvqSWpWwPTwPulDf9sWwNnInt4aBtAJxFupPgTLp5J2BH0p7svyd+8SBJ3ZK6Pfwd4a5j1+yC7aEmHEa6E2Ed4fbXPbKWYG4HA1eQtoyPz1oCSbmkbg8vAu6ZtQRzuxfpbvvbHvbEN0l7QtwMHJG1BOtbMJFD7LrW0+N7OQshKbvjSdtm3Ag8L2sJZvZi0k34sz3skT1JNzN+anyFMpNhdifNe/4zDWz2zVgOSfm11R5+mbDmQG67kOY9f9vDHnsF6U+QdcANwOsI6+63bTPgPaT/q38yXpOhDJLKa6s9vJ6w8mCO9nAjwvK+KVb4sz3suYXAD2jnRFlH2CP6DbSzdeauhCUor2ox/5/iay7SULTdHl4OvInw13lqWwFvJM3GPraHA7ITaXbHmytuIdwKeyKwaUSumwB/C3yHNMt4zhVXA3eJyFVSfXK0h2sI2+c+mdCmNbUZ8NeEx65t3QEddHu4oHQCmTwUOIHwSkzb1gAnAz8mvKN/JnAh8CfCRj2rCRfFJoTXae4KHADclzCbNccIdA3wF7jHtTREOdvD1cBJwInAKcDZhLcIrp2IDQiPDjYlvNq8O7AXcBBh9UHbQyWRam3oPsTLI+tSUt1sD20PB+ftlD/ZSsf7omtRUh/YHtoeDsoC4EOUP+lKxTEM57GPpLnZHtoeDs5C4KOUP/lyx39MlF2SJtkeapBeTfmTMFccjSe7pNnZHmpwng/cRvkTsq1YDbwkWW1J6jPbQw3Og0i/kUQX4krgEQnrSVL/2R5qcLYivBdb+iRNFSdSZr8CSfWzPRyI2mdAbkVYRGcPwmYXuwN3IiwssRmwEvd0TmE1Yb3v6wiLeJwH/IawsMdPJ/4/SeltTfirfB9ub+M2IyycsyGwuFxqIjwyWUVY6O0awsJvZwCnAT8ibNveWbUNAJYDhwIHT8R+1FeGvlkN/Bz4KvBZ4A9l05Gqd2/CMroPI3T8tnF1WkcYCJwA/A9hRUSNaQHwQOBjhFFW6dtJxuyxFvghYU+EHMuMSn2xMfBK4HTKX8dGO3HaxG+8EZrXUuC5hLWjS/9wxvhxLvD3uLuWNJfNgX8G/kj5a9bIE38EjiQ8ytE0y4GXEp41l/6hjPj4DeEOjqTbLQCeRnhGXPoaNcrE1cARuCbBn/0l8HvK/zBG2lhLeIQTszWo1Be7AT+h/HVpdCN+zAC3Ip5qB+CLlP8hjHbjQsK2m9JQPY4wW7z0tWh0K64DnsQAPYZwK6T0D2Dki88Snn1KQ7EQeA/lrz2j23EUA3kksAFhO8q1lK90I39cCjwWqf+WAJ+i/DVn1BGfpOfrO2xGWCShdEUb5ePjODdA/bUE+DrlrzOjrvgaPR0EbENYQa50BRvdCe8GqI8WAP9J+evLqDM+RcuPA3K/o70bYaGYPTMfV922IWECzI6E8+OWsulISbwHeF7pJFSt/QjL2X+7dCIpbEtYJrb0qMrodng3QH3wRMpfS0Y/4sm0JNca05sAPyBs3CON4nPAPxBWzZJqchfglzi3RWlcC9yDsLpqUjleN1hCmNBg569xPBH4Na4boLosAI7Fzl/pbAL8By38wZ5jAPAO4KAMx1H/bA98A9cNUD2eBRxYOgn1zgMJS0cn1fYjgMcCx2U4zmXA9wjb0p5BuFVyNWGf5ttaPvYQbETogHcFHgA8FHgIeResuIiwOdQ3Mx5TGsfmhP3gt2zhu68jvE74PcKdsfMIu6PavpW1GNgU2Jlwl/tgwpL2bez4dwWwB+F377wdaHeHq6uAo4F75SqQ7mAn4C2EQVbOCTGuG6CuehPpz/czgWcCKzKWQ3FWEO4EnUX68+GfMpYjSltr+19I2EHJC6IbtiX/u87uKaCu2Zi0f/DcCLyCsGKq6rQYeBVwE+nOi6tp5+5CUo8gfaN/K+Ev/g0zlkOjewRwAXkHAs4NUFe8knTn9VnAvnnTV4vuB1xCuvPj5XnTH89y0m/pewZwt5yFUCObEG7R5xwEeDdAXXA6ac7nk4GtMueu9m1PmLuR4hz5Tebcx/JS0jbwn8e/+mvzF4SOOedAwLkBKuXepDmHz8LOv8+2Jyx0luJcuXvm3EeyGDifdI36MfgMrFabAB8h726PriKoEt5N/Ll7I972H4L7ATcTf778a+7ER/Fc0jXmH86cu9rh3AD13W+IP2dfkT1rlfJPxJ8vp2TPeh4LgLNJ04B/nvwbFak9mxLu5uQcBDg3QDlsTfxdrjPxTueQbEj8o4A1tLPeRGMPIk3DfTbhlRr1j3cD1DeHE3+OPjN71irt+cSfN4/PnvUcPkp8gW7B2f59590A9cmRxJ2b1+KaJkO0krC6Y8y584bsWc9iGXAN8Q31v+ROXMU8Eu8GqH6fIu6c/FT+lNURnybu3Pnv/CnP7DDiG+eLCKMiDcemhF2ucg4CvBuglE4i7nx8dv6U1RGxk+ZPzJ/yzN5DfMN8RPas1RWPJP+6Ad4NUArnEXce3jt7xuqK+xF37pybP+WZnUJcQa7C52BD590A1egq4s7BTs3kVlZbE3fuXJk/5fVtRfxrMO/LnrW66tHAxeQdCLiKoJq6hbhzb0n+lNURS4k7d27On/L6Hk58A+yWvppqM8rsMPhB4GWE/bz3wMZZ84s97zRsRc+fBbFfALyYuL/gLwW2w4tB6/sL4N8Ja2iXcilwGuF529T4HWH5Vg1bbLuVog1WvYqePylWn9oj8vPfx85fM/smYX30dxJmzJawzUTMxMGBpGqlGADsHvn5nyfIQf11LfA84GuEzYVm64xLmG1wsIawxsHZwDkTcfZE/AG4NVeCkjSbFLeffkPcLlaPAE5IkIf6bxPK3g1IxTsH/eEjAMUoev6kOPn+AOwc8fm70KH3GVWFw+je3YAUvHNQHwcAilH9AOBq4hZU2QL4Y4I8NCybAu+g/rsB4/DOQfc4AFCM6gcAtxD3utRS/MumVgsoP4HzMcCH6d/dgHF456AcBwCKUf3543uww7IvYefH3wG3ATcR/gp9P3CfQjltDvwXedcNqCVWE+4afIC4uTqaWen2r/Txa1e6/kofP1r1BdBIlhLeyZ9v1cfvAAcVyvGxhNvkpTvdrsZawmJHy5tWsNZTuv0rffzala6/0sePVn0BNK9lwI8Z73f9NvCAArluTtgms3Rn2+X4LuE3VbzS7V/p49eudP2VPn606gugeX2A5r/vCZQZCHg3YO74QPOq1RSl27/Sx69d6forffxo1RdAc9qX+M2e1lFmILAF8MkEufcx1gB7N69aTSjd/pU+fu1K11/p40ervgCa09Gk7XiOBw7MWgL4K7wbMFMcHVOpAsq3f6WPX7vS9Vf6+NGqL4DmdArtdD65BwJbAMcS/vLN2cl2OU6LqlFB+fav9PFrV7r+Sh8/WvUF0Jyuod1O6Hjg/tlKA/sT1g04K3E5aozrI+tS5du/0sevXen6K3r8FIsIxCZRfCEDzSlXI/ET4PXADzIdD8KrjdsBuwL7EJ6J7zoROwMLM+ZSitdfnNLtX+nj1650/RU9vgMAzSf3XwklBgIzGcrgwOsvTun2r/Txa1e6/hwAJMhB7Sl1m/AnwOuAHxY6/lyWANtz+4Bg6gBhJ2BRudTG5vUXp3T7V/r4tStdfw4AEuSg9pR+Tvgdwh2BnxfOY1S1DQ68/uKUbv9KH792pevPAUCCHNSe0gOASbUNBGYyfXAwdYBQanDg9RendPtX+vi1K11/DgAS5KD2dGUAMKkPA4GZLAZ2IP/gwOsvTun2r/Txa1e6/hwAJMhB7enaAGDSN4B/Bk4snUgGS4BdgLtOxG5TYtfI7/b6i1O6/St9/NqVrj8HAAlyUHu6OgCY9B3CZMEhDARm4vVXVun6L3382pWuv6LH78urTBquQwmPA74N3KdwLpJUDQcA6gsHApI0BgcA6hsHApI0AgcA6qupA4F7F85FkjrHAYDaVnoS4eRA4KvAPQvnIkmd4QBAbTsA+BxlBwILgEcDJ+EdAUlKpvR2impXqt93f+CzwNoE35ki+jIQ8Porq3T9lz5+7UrXX+njR6u+AJpT6t/XgUBaXn9lla7/0sevXen6K3p8FwLSfNr6ffcnLOl7+Bz/Ru2z7uOUbv9KH792peuv6PGdA6BSTgX+mm7MEZCkwXEAoNImBwJ3x4GAJGXjIwDNJ/fvezfC2v4+GsjDOo5Tuv0rffzala6/osd3AKD5lPp9HQjkYd3GKd3+lT5+7UrXnwOABDmoPaV/XwcC7bJO45S+Pkofv3al688BQIIc1J6u/L73IwwE/jLhd8q6jFX6+ih9/NqVrj/fApBG8DPgMOBA4GuFc5Gk6jkAUG0mBwL3x4FArOtKJyCpHAcAqtXUOwLHF86lVheUTkBSOQ4AVLv/Ax6JjwaaOKF0ApLqVnotZbWrtt/3QELHFpt332M1sHfDOtbtSl8fpY9fu9L1V/r40aovgOZU6+/7ABwIzBVHN69aTVH6+ih9/NqVrr/Sx49WfQE0p9p/3wcQdvwr3eF2Kb4NLI6pVP1Z6euj9PFrV7r+Sh8/WvUF0Jz68vseBHyH8p1vyVhN+Mvfzj+d0tdH6ePXrnT9FT2+CwFpPn37fe8D/B1wCLADsFHZdFq3CjiP8Djk48DpRbPpn9LXR+nj1650/RU9vgMAzccV8YjJAAABWUlEQVTfV5pd6euj9PFrV7r+ih7f1wAlSRogBwCSJA2QAwBJkgbIAYAkSQPkAECSpAFyACBJ0gA5AJAkaYAcAEiSNEAOACRJGiAHAJIkDZADAEmSBsgBgCRJA+QAQJKkAXIAIEnSADkAkCRpgBwASJI0QA4AJEkaIAcAkiQNkAMASZIGyAGAJEkD5ABAkqQBcgAgSdIAOQCQJGmAHABIkjRADgAkSRogBwCSJA2QAwBJkgbIAYAkSQPkAECSpAFyACBJ0gA5AJAkaYAcAEiSNEAOACRJGiAHAJIkDZADAEmSBsgBgCRJA+QAQJKkAXIAIEnSADkAkCRpgBwASJI0QA4AJEkaIAcAkiQNkAMASZIGyAGAJEkD5ABAkqQBcgAgSdIAOQCQJEmSJEmSJEmSJEmSJEmSJEmSJEmSJEmSJEmSJEmSJEmSJEmSJEmSJEmSJEmSJEmSJAn4/0o45MZrC+/WAAAAAElFTkSuQmCC;" vertex="1" parent="1">
          <mxGeometry x="360" y="-3" width="61" height="61" as="geometry" />
        </mxCell>
        <mxCell id="blwYtq8k7Kkv4hBBUEDL-9" style="edgeStyle=orthogonalEdgeStyle;rounded=0;orthogonalLoop=1;jettySize=auto;html=1;exitX=1;exitY=0.5;exitDx=0;exitDy=0;entryX=0;entryY=0.5;entryDx=0;entryDy=0;" edge="1" parent="1" source="blwYtq8k7Kkv4hBBUEDL-6" target="blwYtq8k7Kkv4hBBUEDL-8">
          <mxGeometry relative="1" as="geometry" />
        </mxCell>
        <mxCell id="blwYtq8k7Kkv4hBBUEDL-6" value="" style="shape=image;verticalLabelPosition=bottom;labelBackgroundColor=default;verticalAlign=top;aspect=fixed;imageAspect=0;image=data:image/png,iVBORw0KGgoAAAANSUhEUgAAAIAAAACACAMAAAD04JH5AAAAaVBMVEX///8AAABeXl78/Pyurq5oaGjW1tbOzs7x8fH09PTZ2dm8vLyVlZXT09NVVVXt7e1ycnLh4eGPj48oKCjDw8O0tLQ0NDR7e3saGhoQEBCHh4eoqKiioqI9PT1jY2NtbW0hISFMTExFRUUqfSHbAAAGgElEQVR4nO1bCbOyOgw1ArLKLpuA4v//kS9p1Y+lRUTsnTfjmbkzV60kbdPkJKm73Q8/rIfjptrfSdfcDACS41/Jd3zgOP/NItTwRJeqF2/70EeiK5bvNDBCYqqUbyZj+YhYnSmkAvGIUJV8TywfoFYi3t7L5EOhQr41Mb8eFMjXshn5pQL5c/OH/PsKtHPyIfq6fKn9M3zfGx5n5cdfl78T+b8nvO/Ln9uARkEoiOTifdf+vvxdKBZe7HVHgXSJBfpnU1kM9MfCy7ZWycXMkfg4sNRSwbEPPCmVvtsF4w1QTQLzP1ZgsgBwVqvAeaKAGvr1gNZNFFDg+nsYn0FQEvt6mJggQKVSviaIw8qSAIIoEbmoVEAUBw2VCgjkK1VAcAYwECtUoBIpcFMnX5wMZeoUEHPBRJ0C9UcKaFZgfaiAOB17KhDVVRWGeeWJ2GFa7bMyaz9iL4E4HeEKBHX/02pIj9N//uOTQys8hNwIg0mM2B8eXzsMz84HoUN4CJkf0K+C9ytKUYLThEOvz5wlFYFQkyQqSeWF5fTt1WYQFZIVmC1VTLF6D05Lni5Rso/9WgUEXGQE/xRYwcG7zY/q1irwSnxz2GmmmwZ46ubqV9CslD/l40N4O5fXDYs4EHDnzxWYeyZKTdPe9rfHSL4I2coKwrwJxKPj3p6kZyNZFxFm65IgOO7S8UmwSgFrdgHewUoFJIX5FSjW+eJ4MwXKdYWky3YKHF5Lm0KbBLX1WNVeDGYPgQIFIsFBU6qAs538/6kCM+VhRQqIWJ9KBexuM/krHdFrPrQUK2PBdkawNpsWJ4YrsMoTEzYKR+5a+ZiabeGOP5CPOH3skD/taGn6m2nQEPt1B2AA232Rd8hRbnXJxlznE8ING8raSZIQy1Ft3c/WjnE728Dtw9C/0tbSgsiNDf/WZMm1LPsH5HoLdTc9Hg8Ix3E2ML1ZPewgilDM4WhyHA/RH95r++GHb2DRKbIXGv6K4kB6XVBYs27Lil/x+4wwKOH6elQH5ZKF0lf0OTH4FS/Xjaq4C6gGpTfvdvlY5HvF5F0a9LqJbVMdy3/PS+Kjq+ZR3nUk38XM1TAe/cNIvhUtFBVk/PNgWXQMEvB3/r1BXsvaxHsA7XzvHTnyOuAJQLce1fIMFlljB2DhLoT80ShHNMgDSKmZwF409EKIiO3/nRZ6yzquMRuu8wuSxIlFdwWOrIGOjw/4N6AVPsvO2Bpl7BkHWFSsMnlv/sgmp8PVh9t0Cewr7DVWQklZPffGNZngAmzRczZzfFIhtFrNdPV/yLjJRrRvaMF5wNMa16vyMLyEFSL29nwqmk8n/AJNlLGjbro1DkPgEEJ49wBnSs3QtE2PNZuCNGUSXTdlJj6memwuVoNnPKYXHXUbJjfZzPsMK1oyF31CZ4v6S9xVupBpGpn2gWZj93MduobpVCFhv28Nwwjzu6G24DnsnKOpW7gM3f4ONujugDzYWxntf0Aq4Yb3BhlhWHm8Ru1AGVX4t2OzwWk1za3zcdRlQFuHW4371rEFs1GNC01QYxgMwqnl/Ix1ELr0n2AQM5mYGzO6ZbPA/4TDhmCJccrXAmTHLHisIj65TOSdIVr0hjXUMMjAdZFfpA017tOUtutteAQNiwiyNHzsn2GDDG7ZLSh8dsGPlnaV9v2olno3h3zuwfWze+osbmBpt2ezT5fHnPh5mzgqZi41HKB8tEy6xdWa49MDanL3ZcXPXkww15U5PUsk1pczlh9++A7cQkIQUynhtpsNrxweZe13U3qvD73IbbPr1vSzBgEpoVlKr4egXyw3q88wko7TiYzRIw18P8EPnMvYuSAVvVL8svMN7v/iOp9LYinJiPihlJoFoAnXxJhXh+S/ww1++eIQrfJxOkQ9+yYXEV25Yf6ST7hmh9HTwyiRLg59U5gex6UgjlhBHVBr2tsdcr/rkM20Rkb7n8M5og/OOzNsEcSEDJ8UcpEHJoyURZwgem/9ONLuVeMsol6tAUYK112vLkYBzoPwArkLyfCqg0s7lyGZwzWIjCGPXAhiroQ0pdVlXewI2WQDxSXP4xo57Yksj11ysYIr2lyh617s1Wf8hOgTu4J1QivAo0Lvueknp4LmV/F8eDgN6qnEnOeMexIouNOY6ltcwcV9tlhuM86t+O2Mg+BnTgZPsFffnhjiwlipZkzoTMvpaj7lOS6f+bnc5BehtsznW/eVn1q4dpR98sMPQ/wH+mNTH1HIYwcAAAAASUVORK5CYII=;" vertex="1" parent="1">
          <mxGeometry x="550" y="-2" width="60" height="60" as="geometry" />
        </mxCell>
        <mxCell id="blwYtq8k7Kkv4hBBUEDL-8" value="" style="shape=image;verticalLabelPosition=bottom;labelBackgroundColor=default;verticalAlign=top;aspect=fixed;imageAspect=0;image=data:image/png,iVBORw0KGgoAAAANSUhEUgAAA1wAAAQ5CAYAAADWew6jAABmqUlEQVR42uzdZ5hX5bnw7c0MvQpIFwQsSDOiqLGLDVEQu2L3iD0iJsbKjjGWYMK2JYodDXaNMRZAUEEpIhaaUgURkNC78Hy83ude72Y/JttEwJn5lzk/nMfeR6IRZ7X7N2uta/3H//k//ycAAAAoe//hhwAAACC4AAAABBcAAACCCwAAQHABAAAILgAAAAQXAACA4AIAABBcAAAACC4AAADBBQAAILgAAAAQXAAAAIILAABAcAEAACC4AAAABBcAAIDgAgAAQHABAAAILgAAAMEFAACA4AIAABBcAAAAggsAAADBBQAAILgAAAAEFwAAAIILAABAcAEAAAguAAAABBcAAIDgAgAAEFwAAAAILgAAAMEFAAAguAAAABBcAAAAggsAAEBwAQAAILgAAAAEFwDFb+PGjbFs2bKYP39+TJ8+PSZNmhSvv/56PPTQQ/Gf//mfcemll0bfvn3j8MMPj7333jvatWsXTZs2jfr160eNGjWitLQ0/uM//iOT/v/0n6X/rlmzZtlfm/6eI444Ik4++eS47LLL4te//nUMGTIk3njjjeyflf6Z6Z+d/gzpz2KbACC4AChYK1eujBkzZsS7774bzz33XPzud7+LSy65JI499tjo0KFDNGjQIAunrUpKSjJVqlT5H1sD64d89+/Z+r/z3f/t9M/aa6+94rjjjsvCbtCgQfH8889nf7bPP/88Vq1aZZsBILgAyO87WNOmTYuXX3457rjjjrjwwgvjsMMOi1122SWqVau2zfFUUdKfqXXr1tkdtYsuuijuvPPO7M+e7oS5AwaA4AIgp7Zs2ZLdGRo7dmx29+r000+P7t27R/PmzaNq1ap5F1g/JP2ZW7Rokf07nHHGGXH33XfHBx98EKtXr87+XW1zAAQXAOVq06ZNsXz58hg/fnz23lW6g5XuEtWpU2e7HgHMd+nfpW7dutGmTZvsvbBbb701JkyYkP27p5+BfQEAwQVAmd3JSqHxySefxH333Rc9evSIRo0aRfXq1YsmsH5I+ndt3LhxHH300fHAAw/Ep59+GitWrHDnCwDBBcCOh9aXX36ZvdeUhl3suuuu/zPUorKE1vfd+Uo/gzQV8fLLL49XXnklm3xofwFAcAGwTTZv3pxNFxw8eHAcf/zx2ej1yhpYPyRNPzzhhBPinnvuyaYdpp+dfQgAwQXA94ZWmtA3cODA2H///bN3mETVtkk/qwMOOCD79leKVeEFgOACIPPtt9/GzJkzs1jo3Llz1KpVS0TtoPSz69KlS/zmN7+JWbNmZT9b+xiA4PKDAKik72jNmTMn7r333iwS8vFbWYUq/Sy7du0a999/f8ybN89wDQDBBUBlsmjRovjzn/+cffS3EL+ZVUjhlaY6Pvvss7F48WL7HoDgAqCYbdy4MUaPHh3nnHOOYRgVPFzj/PPPj3fffTfbBvZFAMEFQJFZuHBh9p7Wbrvtlo02F0IVK/3M99hjj+z9rnSH0T4JILgAKALr16+PkSNHxlFHHWXyYJ5MNDz22GOzO41p29hHAQQXAAUqvTd05513RsuWLcVOnmnVqlUMGjQolixZYl8FEFwAFJI0jnzChAlx2mmnRc2aNQVOHo+RP/PMM2PSpElGyAMILgAKwYYNG2Lo0KHRrVs3UVMgunfvHsOGDTNQA0BwAZDPli5dGgMHDowWLVoImQJ8xDAN1Fi2bJl9GUBwAZBvZs6cmY0er127toApUHXq1ImLLrooZs+ebZ8GEFwA5IPNmzdn72sdd9xxxr0Xyfj4E044IT788MNs29rHAQQXADkcjvHGG2/E/vvvL1aKzIEHHhhvvfWWYRoAgguAXMXWM888E3vttZdAKVKdO3eO559/3p0uAMEFQEVK0+wefvjhaNOmjTApcu3atYvHH388Nm3aZN8HEFwAlLc09v1Pf/qTSYSVbILhkCFDsm3vGAAQXACUk/Xr12ex1bRpUyFSyTRr1kx0AQguAMrzMcKHHnpIbFVizZs3j0ceecTjhQCCC4CyHpDx2GOPZQtu4VG5tWzZMp588kmDNAAEFwBlYcuWLfHnP//ZgAz+R9u2bePZZ591fAAILgB+rNdeey06dOhQaWKiSpUqUbVq1ahevXrUrFkzatWqFbVr1446der8g/Sfpf8u/TXpry0tLc3+3sryc+rUqVO8+eabjhEAwQXAjvrggw+ie/fuRRtWKZqaNGmS3bHp2LFjHHDAAXHSSSfFJZdcEjfccEPcddddcf/998ejjz4aTz31VAwbNiyT/v/0n6X/Lv01119/ffb39OnTJ/sIdPrf2nXXXbP/7fTPKNYQSz+v8ePHO1YABBcA22vGjBnRs2fPogqEBg0aZHdmjjrqqLjwwgvjzjvvjBdeeCE+/PDDWLx4cTYYJL2vlt5P2io9UvnvfPevTX9v+t9YtGhRTJw4Mfto8B133BEXXHBB9s9MIVa/fv2i+pmecMIJ8cUXXzhmAAQXANvqm2++iXPPPbfg78ykP3+aqnjsscfGL37xi2zwR7prl/79KvpnumTJknj//fezO2MDBgyIo48+OrsDVgw/4xSUS5cudewACC4AfsjatWuzR+Rq1KhRsAFQr1696NGjR/a434gRI2LOnDl59f2o9GeZPXt2DB8+PLvLdsQRR0TdunULNr7Se2w333xzrFu3zjEEILgA+FfSI3LpW1uNGzcuuEV/GlzRunXruOKKK7KQWbBgQfZ4X77/zFN8pT9rGkBx6aWXRqtWrbJ/l0L7+ae7denuXdqHHEsAgguA7zFq1KjsHadCWuiniYF77713/PrXv47p06dnd+gKcdGf/szpzz5t2rS45ZZbomvXrtnAjULaFl26dIl3333XsQQguAD4Z+kRt0IakpHuAqUJir/97W+zP3sxfYg3/bvMmjUrfvOb38S+++5bUHe8evXqFXPnznVMAQguALZasWJF9O/fP/uWVCG8o7XXXnvFwIED47PPPiv6bfPpp59m70ftueeeBRFc6RtmaUDJypUrHVsAgguANMr8iSeeiIYNGxbEWPeLL744xo4dG5s2bao02yi9i/bee+9lo+wLYax8o0aN4umnn872LccYgOACqNQmT56cfR8qnxfwJSUl2XtaaRG/fPnySrut0r/7k08+mb3fle8TDTt37pzdnXOMAQgugEpr2bJlcdppp2VBk893tc4777yYOnWqOyb/fUcyPUrZr1+/7GeTr9stPZ561llnVepABhBcAJVYGswwePDgvH5Ebffdd8/+jN4H+v67XYMGDYr27dvndSzfe++9RsUDCC6Ayie9B5WvjxKmx+UOOuig+Nvf/lYQ39LKlfQNr1dffTUOOOCAvH3EMD1aOG7cONsLQHABVB5LlizJHtPLxwV6tWrVok+fPvHxxx+7M7IN0s8ovYd34oknZj+7fNymF110USxdutT2AhBcAJXjUcLHH3886tWrl3cL81q1amWT+ObNm2dbbaf07asU0TVr1szLRwufeuopAQ0guACK3/Tp07MPBufbojwF4NVXXx3ffPON7fQj7lxeddVVeRnTBx54YHz++ee2E4DgAihe69ati+uuuy7vphKmOyDXX399NjXRdvpx/v73v2cfHs63YShpamH6gPP69ettJwDBBVCc7/q888470aJFi7xaiKcwSLGVQsF2KhvpLuEvf/nLvLvT1apVq2xYi20EILgAik4arX7yySfn1d2t2rVrxzXXXOMxwnJ6vDA9opnei8unD1iffvrpsWrVKtsIQHABFJc0tKBx48Z5s/iuXr16Nr0uhYHtUz4WLVoU559/fl5NL9x5551j2LBhtg+A4AIoHl999VUcffTReXWn46STTsr+XLZP+Zo/f342Mj6f7mz27Nkzi0HbB0BwARSFBx54IK/e5zn00ENj6tSptk0F+fTTT+Pggw/OqyEpDz30kG0DILgACt/MmTPjyCOPzJvFdseOHePtt9+2bSrYiBEjokOHDnmzHxxzzDExe/Zs2wZAcAEUrm+//Tb++Mc/Zu9L5cMiu2nTpvHII49kfy7bp2Jt2rQpu6uU3qHKh32hRo0aMWTIkOxD3LYPgOACKEhz587NHt/LlwX2gAEDYs2aNbZNjqxevTr69++fbYt82CfSndcvv/zStgEQXACFeXfr0UcfzYsJdVWqVMkGJRiSkR9DNNLjfGmb5MOkyieffNJdLgDBBVB40rj1Qw45JC/uZLRv3z7GjBmTfXzZtsmtrR/Abtu2bV6E+BFHHBFLly61bQAEF0BhLaqfffbZqFu3bl583Pjee++NjRs32jZ5Im2LwYMHR82aNXO+f6R99MUXXxTjAIILoLDe1Tn++OPz4u7W2WefHd98843tkmcWL14cp59+el7c5erdu7d3+wAEF1ARd2XSuxzp3SN2XPo5/u1vf4sWLVrkfDGdxpC/++679u88NWrUqNh9991zvp+0bNky3nzzzWzfdQz/OOkc6m4hILigklu3bl12xyNN0Js+fXp89NFH2cLvpZdeiqFDh2Zjw9P4anbMww8/nN3dqlq1ak4X0elxtdtvv90I+DyWRsXfeuutOf9sQNpXTzjhhGzfdQzvuHTuTOfQdC5N59R0bk3n2Hnz5mXn3HTutd+D4AKKdFGXPnCa7nQ89dRTccstt8RZZ50VP/3pT6NNmzbZwry0tJQylA8T6I466qiYM2eOYyDPpQ9jp8EV+fBooWO3bNWqVSs7x6ZzbXq0d+DAgfH000/He++9lx2b6dzsGADBBRRwZKXfrKaRz9dcc002hnqXXXbJ+V0XKkbjxo2zhZ1joTA88cQT0ahRI/tuJZDOwa1bt45jjz02rr322uyXYDNmzHAnGgQXUCjvYK1YsSL+8pe/xCWXXBL77bdfNGzYMC/utlBxSkpK4rTTTouVK1c6LgpEOm779u2bbTv7cOWRzs0ptPfff/+47LLL4q9//Wu2L3gHDAQXkId3sxYuXBhDhgzJHk1q1qyZO1mV2M4775x958mirbB+WTJy5Eh3uSr5na/mzZtHjx49sg+mf/311x45BMEF5Fp6BCW9jJ1e1u7WrVv2voCFi9+YX3755UZ8F6D0KYGLL77YHWmyb+d17949G2Iyf/58jxuC4AJyIU28+vOf/xxHHnlkzieckT/SeO9x48Y5RgrUmDFjsjvU9mWSdG4/+uijs4+oL1261DECgguoCOkbL2nC1XnnnRcNGjSwKOEfXH311d7dKvB3ua688kr7Mv8gnesvvPDCGDt2bHYNcKyA4ALKybJly2Lw4MGx1157ZSOHLUT4rjT57O2333asFLjhw4dndyrt03xXOud36tQp7rnnnli+fLljBQQXUNbSiPdzzz036tevb/HB90rv/6Q7JI6XwpYW0+eff759mu+VrgEXXHBBfP75544XEFxAWdi4cWM2vSyNDTZ5kH8lvffzwgsvOGaKRHpnp0mTJvZtvle1atWyjymPHj3aJEMQXMCPkSbNDR06NNq1a2eRwb91/PHHx5IlSxw3RWLRokXZh3Ht2/w7u+22WwwbNizWrl3ruAHBBWyvNPjgv/7rv0ws4wfVq1cve7fPcVNcBg0aFHXq1LGP82+lb3fdf//9sWrVKscNCC5gW6UL51133ZV9wNaCgh+SXqSfNWuWY6fIzJgxIzp06GAf5welx0/vvvvu7Ftujh0QXMA2PEaYLpwNGza0kOAHpff6rrjiCh9GLULp3Zyf/exnJpKyTRo1apTd6fZ4IQgu4N9Yv359PPDAA7HTTjtZQLDN3+dJQ1W2bNniGCoyaZu++eabvrfHNku/qHvooYdiw4YNjiEQXMA/Sx+zfOaZZ6JFixYWDmyzAw44IPs+m2OoOC1dujT2228/+zrbrFWrVtnEUr+EAcEF/JM03rdjx44WDGyzkpKSuO222/w2u8jveg8cODDb1vZ5tlXnzp3jvffecwyB4AK2Sh+wPOaYYywU2C5169a1qKoERo0aFbVq1bLPs92fipg5c6ZjCAQXsGLFirjmmmu8GM926969e8yZM8dxVORmz54d++yzj32e7R6o88tf/jL7xIjjCAQXVFppstzTTz8d9evXt0Bguw0YMMC3dyqBtGD++c9/bp9nh4bqPPvss9k7wo4lEFxQKU2fPj1+8pOfWBiwQwupV155xXFUSbz44ovZI6T2fbbXvvvuG1988YXjCAQXVM6X4a+88srssQ+LArZX3759Y+HChY6lSmL+/Plx4okn2vfZbtWqVYv+/fsbrgOCCyqf119/PVq2bGlBwHZr1qxZ9piQ46hySY8fN2nSxDHAdttll11i+PDhjiMQXFB5LF++PE455RQLAXbot9XpzuiaNWscS5XM6tWr47LLLnNXnB1yxhlnGKABggsqj3R3omnTphYBbPd3t3r16hVz5851HFXiiYXHHXdcVKlSxTHBdmnevHn2QWTHEQguKHrffPNNnHXWWRYAbJe0wD766KPjs88+cxxVYlu2bImPP/44evToIbrYbueee24sW7bMsQSCC4r/3S3vYbA9ateuHf369Ytp06Y5hsiiK4X3mWee6YPIbPddrjfffNNxBIILild6fv7qq6924WebHyHcY489YvDgwbFo0SLHEP/g66+/jrvvvjt23313d7vw/T4QXEAyZcqUaNeunYs+//KxwTQUI31vqUOHDnHzzTdnj4+tW7fO8cP3SvvG5MmT44YbbsjiPO07aR8SYPwraT9xtxwEFxSlTZs2xR//+McoLS3Ny4twWqilMfXpt+UdO3aMzp07U4H22WefOP744+Paa6+Nl156Kb766qvsW22OHbZF2lcWLFiQfSA53cHo2bNntk85tipWOnemc2g6l+brh6rTlMtHHnkkvv32W8cOCC4ovscJ04S5fPrNc40aNaJTp07ZEI/02Fr6Tsv06dNj8eLF2YvVVIz0mYC0YE4LoM2bN2fv6Dhm2NH3u9I+lPaltE+lfcsxVnHSo7/pHPrWW2/F73//++w9uxRh1atXz6s76X369PFYIQguKD7pJfd8GQWf3g1Kv40dOHBgjB8/3p0UgHJ65PODDz7IHg/ea6+9snNvvgzPSGFoG4HggqL6rXN6nDAfJorVrFkzLrjgghg3blxs3LjR9gEoZxs2bIj3338/G8uenizIh8mn6bFCd9NBcEHRSI/3pEdLcv3bzZ122il++9vfxpIlS2wXgAqWHjm89dZbo0GDBjl/yiHFn/e4QHBB0Vi6dGl07do157GVRkivXbvWNgHIkTVr1sRdd92V8+j6yU9+kr3jZ5uA4IKi8N5770Xr1q1zdmFNjzJef/31sXr1atsDIMfSwIo0kTQ94p2r60KbNm2y98tsDxBcUBSGDBmS3WHK1USqNB1x4cKFtgVAnpg/f34cd9xxOZtc27Bhw3jsscdsCxBcUByuu+667GOkubio7rzzzvH22297ORogj6Rzchof36hRo5xcG9Ko+htvvNG2AMEFxSENzMjV3a2LL744e2fAdgDIL+kx7/POOy9nd7nOOecc2wEEFxS+9MHjnj175uRiWrdu3Rg5cqTtAJCn3nzzzWxMey6uEelxc7+QA8EFBW/u3Llx8MEH5+Rievjhh8eXX35pOwDk8TXipz/9aU6uEYceemj2LpntAIILCtonn3wS3bp1y8nF9Je//KXJhAB5LE0s7N+/f06uEfvtt19MnTrVdgDBBYUtjd3t1KlTTi6mDz/8sG0AkOcefPDBnFwjunTpEhMmTLANQHBBYXvnnXdijz32yMkEqldeecU2AMhzL730UpSWllb4daJDhw4xZswY2wAEFxS2NLRit912q/ALafruV3oZ2zYAyG+vv/561K9fv8KvE7vvvnuMHj3aNgDBBYVt+PDh0a5duwq/kKZvu6RvvNgGAPkt/XIs/ZKsoq8T6ZeBJtmC4ALB9SOCK/2zbQMAwSW4QHCB4BJcAIJLcIHgAgQXAIILEFwguAQXgOASXCC4QHAJLgDBJbhAcAGCCwDBBQguEFyCC0BwCS4QXCC4BBeA4BJcILgAwQWA4AIEFwguwQUguAQXCC4QXIILQHAJLhBcgOACQHABggsEl+ACEFyCCwQXCC7BBSC4BBcILkBwASC4AMEFgktwAQguwQWCCwSX4AJAcIHgAgQXAIILEFwguAQXgOASXCC4QHAJLgAEFwguQHABILgAwQWCS3ABCC7BBYILBJfgAkBwgeACBBcAggsQXCC4BBeA4BJcILhAcAkuAAQXCC5AcAEguADBBXltxIgR0b59e8EFQN4F19tvv20bgOCirHz77bexYcOGWLt2baxcuTJWrFhBOVuzZk288sorseuuuwouAPIquNLTF6+++mp2rXLNrhirVq3K1mEbN26MLVu22P8FF4UqHchffvllfPzxxzF69Oh46aWX4qGHHorf//73cdttt8UNN9wQV199dVxxxRWUs6uuuip69+4d9evXF1wA5FVwNWjQIPr06ZNdq1yzK2ZNcM0112TrsDvvvDMefPDBeOGFF7Jr9Ycffhjz5s3L1nCOCcFFHkq/IZk/f3689dZbcc8998Tll18evXr1im7dukWLFi2ievXqFX4SJ/cEF4DgIr+VlpZm1+suXbpEz54947LLLou77747u/M4Z84cd8EEF7m0efPmWLRoUQwbNiwuvvjiOPTQQ6Nt27ZRs2ZNJzAEF4DgokBVq1YtWrVqFQcddFC2xhs6dGj2i/X0aojjRXBRAZGVnv0dO3Zs/OIXv8juYDVu3Dj77YgTFIILQHBRvHfA0usgY8aMyd7DT2tCx47gooxD65tvvom//e1vceqpp2aRlX774USE4AIQXFSeO19pDdi3b994+eWXY/HixcJLcFEWli5dGi+++GKcdtpp2cutTjgILgDBReVWt27dOOmkk7I1YvqlvONIcLEDNm3aFO+8805ccMEFQgvBBSC44H9J+825556bXe/Tp38cT4KLbZRGug8cODD23HNP72chuAAEF/xLJSUl2TfVbrrppmwN6ZgSXPwb6SN46a5Wjx49onbt2k4iCC4AwQXbJK0d0xpy1KhR7nYJLr7PsmXLsg/gtWnTJqpUqeLEgeACEFywXdIaMo2Uv/fee+Pvf/+740twsVX6sN3Pf/7zqFevnpMFggtAcMGPHqpx5ZVXxty5cx1jgoupU6dm4z2NeUdwAQguKCvVq1fPJhl+8sknjjPBVTlt2bIlPvroozj66KMNxkBwAQgu1y7KZaDG4YcfHhMnTszWno43wVWpYmv8+PGx//77e18LwQUguAQX5fpeV1pzTpgwQXQJrspj8uTJceCBB4otBBcAgosKi64PP/zQMSe4it/06dPj2GOPFVsILgAEFxXqyCOPjClTpjjuBFfxmjdvXpx66qne2UJwASC4yMk7XWktmtakjj3BVXRWrFgR1157bTYxxgGP4AJAcJGr6YUDBgyI5cuXO/4EV/H49ttv4/HHH48GDRo40BFcAAguciqtSR988MHYtGmTY1BwFYcPPvggdtttNwc4ggsAwUVeaNu2bYwdO9YxKLgK36JFi6JXr16GZCC4ABBc5NXkwhNOOCFbqzoOBVfBSt86+N3vfhd169Z1YCO4ABBc5JW0Rr3zzjtj8+bNjkXBVZjSB+a6du3qgEZwASC4yEudOnWK999/37EouArPypUr44orrnAgI7gAEFzktbRmTWtXx6PgKihvvPFGNG/e3EGM4AJAcJHXWrRoka1dHY+Cq2Ck7xpccsklDmAEFwCCi4Jw4YUXxrJlyxyTgqswvPfee9GsWTMHL4ILAMFFQWjcuHGMHj3aMSm48t/atWvj8ssvNwYewQWA4KKgxsRfeumlsWbNGsel4MpvU6dOzZ6DdeAiuAAQXBTau1zTpk1zXAqu/JW+YTBo0KCoWbOmgxbBBYDgoqDUqFEj7rjjDt/lElz5PQr+iCOOyMsDqE6dOtGhQ4c49NBD48QTT4xTTjklTj/99DjjjDMoR2eeeWYcfvjh2c9fcAGQT8GVPnqbrlHpWuWaXb7SmuvUU0+N3r17x2GHHZatyXKxNtgWhxxySKxYscKxKbjyU1rctmzZMq+exW3Tpk1ccMEF8ac//Skb5vHll1/GunXrbK8KNGLEiGjfvr3gAiCvgmv33XePUaNG2QYVaP369bFgwYIYM2ZMtjZLa7Rdd901r979T2tZ6wfBlbd+9atfRbVq1fLmcbIrr7wymzZjxGfuQ7xdu3aCC4C8Cq7ddtstRo4caRvkUPqU0DvvvJOt2dJ1Ox/WkNWrV48bbrjB9hFc+WfVqlVxwgkn5MVdrW7dusWLL77oi+GCS3ABCC7BVQDSI3xp7ZbWcPlwt6tXr14eKxRc+WfSpEmx99575/TgKC0tjeOOOy77s2zZssV2EVyCC0BwCa4CkdZuaQ2X1nJpTZfLNWXnzp1j/Pjxtovgyi9PPfVUNGzYMGcHRklJSRxzzDExZcoU20NwCS4AwSW4ClRay6U1XVrb5WpdmfbHJ5980vYQXPnl5ptvzulvIrp27RoTJkywLQSX4AIQXIKrwI0bNy66dOmS07XlwIEDbQvBlV/P3aYpM7k6IOrXr5/dYfv2229tD8EluAAEl+AqcGlNN3To0KhXr17O1pdpbes9LsGVN+bOnZs9b5urA+K8886Lv//977aF4BJcAIJLcBWJpUuXxjnnnJOz9eXRRx8ds2bNsi0EV36YPHlyzgZmNG7cOF577TXbQXAJLgDBJbiKzF//+tecjYtPjzSmIR62g+DKC2+//XY0a9YsJwdD3759Y+HChbaD4BJcAIJLcBWZr776Kvr06ZOTNWZa26Y1ru0guPLCK6+8kpMPHqfvNNx+++22geASXACCS3AVqdtuuy0n3+aqUaNG/OUvf7ENBFd+eO6553Lym4cWLVrEyy+/bBsILsEFILgEV5FKH0TO1ZNUzzzzjG0guPLDE088kZODIL035tlawSW4AASX4CpeEydOzD7/k4u15pAhQ2wDwZUf/vSnP+XkIDjkkENi3rx5toHgElwAgktwFak5c+bEQQcdlJO15n333RdbtmyxHQRXbqXvJPzhD3/IyUHQo0ePWLJkie0guAQXgOASXEVq0aJFceSRR+ZkrTl48ODYvHmz7SC4cmvTpk3xu9/9LmffR/D9LcEluAAEl+AqXt98800cddRROVlr/v73v89uLtgOgktw2Q6CS3ABCC7BJbgEl+ASXIJLcAkuAAQXgktwIbgQXAAILgSX4BJcgktwCS7BBSC4BJfgElyCS3AJLsEluAAQXAguwYXgQnABILgQXIJLcAkuwSW4BBeA4BJcgktwCS7BJbgEl+ACQHAhuAQXggvBBYDgQnAJLsEluASX4BJcAIJLcAkuwSW4BJfgElyCCwDBheASXAguBBcAggvBJbgEl+ASXIJLcAEILsEluASX4BJcgktwCS4ABBeCS3AhuCgX6WLWvn37Ct8/0sU7XcRtA4D89vrrr0f9+vUr/Dqx++67x+jRo20DwSW4BJfgElyF7Z133ok99tijwveP6tWrxyuvvGIbAOS5l19+OUpLSyv8OtGhQ4cYM2aMbSC4BJfgElyCq7C9//770bFjx5zsI4888ohtAJDnHnzwwZxcI7p06RITJkywDQSX4BJcgktwFbZPPvkk9tlnn5zsI7/4xS9i9erVtgNAnlq1alX0798/J9eI/fbbL6ZMmWI7CC7BJbgEl+AqbHPmzImDDz44J/vIIYccEl9++aXtAJCn5s6dGwceeGBOrhGHHnpozJ8/33YQXIJLcAkuwVXYVq5cGT179szJPlK3bl2DMwDyfGBGnTp1cnKN6NWrV6xZs8Z2EFyCS3AJLsFV+M4666yc7CNVqlSJ8847z2OFAHn6OGG/fv2yc3UurhHnnHOO7SC4BJfgElyCqzhcd911Ua1atZzsJ40bN87ucm3ZssW2AMgT6Zyc7m6lbybm4tqQJtneeOONtoXgElyCS3AJruIwZMiQnHzUcutdrnSiXrBggW0BkCfSu1NHHnlkzu5uNWzYMB577DHbQnAJLsEluARXcXjvvfeidevWOdlPkpo1a2ZTsJYvX257AORYOhdfffXV2bk5V9eFNm3aZJ8tsT0El+ASXIJLcBWFpUuXxt57752zC2uS7rDddtttsWLFCtsEIEfSOTidi3P11MNW6XMly5Yts00El+ASXIJLcBWHdLI6++yzo6SkJKcX2PQ+1/XXX5+dvG0XgIpfOKdzcK7e29oqXYvOPfdcC2nBJbgEl+ASXMX1cvSDDz4YtWvXzulFduuo+L59+8bEiRNj/fr1tg9AOUvn2nTOPemkk7JzcK6vA+la9OijjxqmJLgEl+ASXIKruEydOjWaNm2a8wvt1t9upnfKBg4cGJMnT87eJ9i8ebPtBFBG0jk1nVvTOfbmm2/Ozrm5fsphq2bNmsWMGTNsJ8EluASX4BJcxSV9APnEE0/M2USqfzXBcNddd42LLrooHnnkkRgxYkRMmjQppk2bFp9//nl88cUXAGyDdM5M5850Dk3n0ocffjg7t6bhFPl23k932tI3wFybBZfgElyCS3AV3XtcaTx8aWlp3lx4//ki3KRJk+jatWscfPDBccQRRwCwHdK5M51D07k0nyLru9I1KI2Dt4gWXIJLcAkuwVWUpkyZEnvssUdeXoQBKH577bVXdifONVlwCS7BJbgEV9E+Vpi+h+WiD0AuXHvttR4nFFyCS3AJLsFV3N588828GZ4BQOXRvHnzGD58uGux4BJcgktwCa7ilj6C3K9fPxd/ACrUeeedZ90guASX4BJcgqtyeOGFF7KxvBYAAFSEFi1axEsvveQaLLgEl+ASXIKrclixYkWceeaZFgEAVIizzz47e4/YNVhwCS7BJbgEV6WRnqNPH8K0EACgPKVvgY0cOdK1V3AJLsEluARX5bJhw4a45pprolq1ahYEAJSLdI1Jkwk3btzo2iu4BJfgElyCq/KZNWtW7LvvvhYFAJSL7t27x+zZs11zBZfgElyCS3BVTps3b47nnnsuGjdubGEAQJnaeeed4/nnn8+uNa65gktwCS7BJbgqrfQByuuuuy5KS0stEAAoE+macv311/vIseASXIJLcAkukjlz5sSJJ55okQBAmejTp0/MnTvXNVZwCS7BJbgEF1u99957sffee1soAPCj7LPPPjF27FjXVsEluASX4BJc/LNnn33WqHgAftQI+PTelmuq4BJcgktwCS6+RzqpPfjgg9mLzhYOAGyPJk2axJAhQyyQBZfgElyCS3Dx76xfvz7uueeeaNiwoQUEANskXTPStSNdQ1xLBZfgElyCS3DxA9auXRuDBw+ORo0aWUgA8G+lT4uka0a6driGCi7BJbgEl+BiO+503X///dGiRQsLCgC+V8uWLeOBBx5wZ0twCS7BJbgEFzu6fw0dOjQ6duwYVapUsbgAIJOuCZ07d46nn346u1a4ZgouwSW4BJfgYgdt2bIlhg8fnp1sRRcA6VqQ1gAjRozIrhGulYJLcAkuwSW4KIPomjp1alx66aVRr149Cw6ASipdAy6//PKYNm2a2BJcgktwCS7BRVlbvnx5NjZ+zz33dLcLoJLd1Urn/nQNSNcC10TBJbgEl+ASXJTjPjd58uTo16+f73UBVALpXJ/O+enc730twSW4BJfgElxUkNWrV8dTTz2V7QcNGjSwKAEoMuncns7xaTBGOue79gkuwSW4BJfgIgcWLFiQjY9PJ+OaNWtapAAUuHQuT+f0dG5P53jXOsEluASX4BJc5MFQjVmzZsUTTzwRffr0yX4r6h0vgMJ6Ryudu9M5/Mknn8zO6YZiILgEF4KLPAyvRYsWxahRo6J///7ZC9Z169aNqlWrWtAA5Jl0bk7n6A4dOsSAAQNi9OjR2TlcaCG4BBeCiwIIr3Xr1sXChQvjxRdfjMsuuyz222+/aN26ddSvXz9KSkosdgAqWDr3prtY6VyczslpvPvLL7+cnavTOVtoIbgEF4KLAo2vzZs3Z2OEx4wZE/fdd19cccUV0bt37zjooIOic+fO2cW/cePG2W9aq1evHqWlpdnjLQBsu3TuTOfQdC5N59R0bk3n2HSuTefcK6+8MnsvK52L0zk5nZtFFoJLcCG4KFLpt6lz5syJ8ePHx2uvvRbDhg2LIUOGxL333huDBw+Ou+++OwYNGgTANkjnzHTuTOfQdC5N59R0bk3n2HSuXb9+vWsPgktwIbgAABBcgktwCS7BBQAguASX4BJcggsAAMEluBBcAAAILsEluASX4AIAEFyCS3AJLsEFAIDgElwILgAABJfgElyCS3ABAAguwSW4BJfgAgBAcAkuPwTBBQCA4BJcgktwCS4AAMEluASX4BJcAAAILgSX4AIAQHAJLsEluAQXAIDgElyCS3AJLgAABBeCS3ABACC4BJfgElyCCwBAcAkuwSW4BBcAAIILwSW4AAAQXIJLcAkuwQUAILgEl+ASXIILAADBheASXAAACC7BJbgEl+ACABBcgktwCS7BBQCA4EJwCS4AAASX4BJcgktwAQAILsEluASX4AIAQHAhuAQXAACCS3AJLsEluAAABJfgElyCS3ABACC4EFyCCwAAwSW4BJfgElwAAIJLcAkuwSW4AAAQXAguwQUAgOASXIJLcAkuAAAEl+BCcAEAILgQXIILAADBJbgEl+ASXAAACC7BheACAEBwIbgEFwAAgktwCS7BJbgAABBcggvBBQCA4EJwCS4AAASX4BJcgktwAQAguAQXggsAAMGF4BJcAAAILsEluASX4AIAQHAJLgQXAACCC8EluAAAEFyCS3AJLsEFAIDgElwILgAABBeCS3ABACC4BJfgElyCCwAAwSW4EFwAAAguBJfgAgBAcAkuwSW4BBcAAIJLcCG4AAAQXAguwQUAgOASXIJLcAkuAAAEl+BCcAEAILgQXIILAADBJbgEl+ASXAAACC7BheACAEBwIbgEFwAAgktwCS7BJbgAABBcggvBBQCA4EJwCS4AAASX4BJcgktwAQAguAQXggsAAMGF4BJcAAAILsEluASX4AIAQHAJLgQXAACCy3YQXILLdgAAEFyCS3AJLsEFAIDgElwILgAABJfgElyCy3YAABBcgktwCS7BBQCA4BJcCC4AAASX4BJcgktwAQAILsEluASX4AIAQHAJLgQXAACCS3AJLsEluAAABJfgElyCS3ABACC4BBeCCwAAwSW4BJfgElwAAIJLcAkuwSW4AAAQXIILwQUAgOASXIJLcAkuAADBJbgEl+ASXAAACC7BheACAEBwCS7BJbgEFwCA4BJcgktwCS4AAASX4EJwAQAguASX4BJcggsAQHAJLsEluAQXAACCS3D5IQguAAAEl+ASXIJLcAEACC7BJbgEl+ACAEBwIbgEFwAAgktwCS7BJbgAAASX4BJcgktwAQAguBBcggsAAMEluASX4BJcAACCS3AJLsEluAAAEFwILsEFAIDgElyCS3AJLgAAwSW4BJfgElwAAAguBJfgAgBAcAkuwSW4BBcAgOASXIJLcAkuAAAEF4JLcAEAILgEl+ASXIILAEBwCS7BJbgEFwAAggvBJbgAABBcgktwCS7BBQAguASX4BJcggsAAMGF4BJcAAAILsEluASX4AIAEFyCS3AJLsEFAIDgQnAJLgAABJfgElyCS3BBedqyZUts3LgxZs2aFW+88UY89thjcc8998S9994bTzzxRIwcOTIWLFiQHd/pr/UzA0BwIbgEF7ANx+u8efPioYceihNPPDH23HPPaNGiRTRs2DDq16+fadSoUbRs2TI6duwYp59+ejz99NOxePHi7O/1MwRAcCG4BBfwPXe05s+fn93F6tKlS9SsWTOqVKnyg8dYSUlJ1K1bN/bff/94/PHHY+nSpX6eAAguBJfgAr4bW++++2707t07qlWrtsPHWwqvc889Nz7++OPYvHmzny0AggvBJbigcksXiRdeeCE6deq0TXe0tsXBBx8co0aNEl0ACC4El+CCyh1bzzzzTLRr167Mj71u3brFmDFjDNQAQHAhuAQXVM7Yev7556Nt27blcuylu2WHHXZYfP75537eAAguBJfggsr3GGGbNm3K9firWrVqXHrppbFmzRo/dwAEF4JLcEHlubNV3rG1VRop/+KLL/rZAyC4EFyCCyrHO1vl9Rjhv3LOOec4DgEQXAguwQViqzy0atUqRo8ebTsAILgQXIILDMgoD4MHD3ZBAkBwIbgEFxiQUR7SB5GXLl1qmwAguBBcggsMyChrBx54YMydO9d2AUBwIbgEF3hnq6ylP8f06dNtGwAEF4JLcIHYKmtNmjSJKVOm2D4ACC4El+ACAzLK43tcU6dOtY0AEFwILsEF3tkqax07dowvvvjCdgJAcCG4BBcUZmw999xzeRlbybHHHhtfffWVbQWA4EJwCS7wzlZZGzBgQKxevdr2AkBwIbgEF4itslS9evUYNmyY7QWA4EJwCS4ovMcI8zm2kv333z8+++wz2wwAwYXgElxgQEZZKikpiYEDB7oYASC4EFyCCwzIKGvdu3ePTz75xHYDQHAhuAQXeGerLDVs2DAeffRR2w0AwYXgElwgtspSzZo144YbbohVq1bZdgAILgSX4AIDMspKjRo14sorr4wlS5bYdgAILgSX4AIDMspKrVq14oorrohFixbZdgAILgSX4AIDMspK7dq14/LLL4+FCxfadgAILgSX4IL8j630weBdd921IO5spdj66quvbDsABBeCS3BRqLZs2ZKd2NIwhpkzZ8bkyZMzX3zxRaxcuTL77zZv3lw0sVUo72ylxwjFVm6PiRUrVmTHQToeJk2aBPxfH374YfZ/03Exd+7cWLt2bXa8pOPG+UNwCS7BJbgEF99ZUK5bty6mT58eDzzwQJx++unxk5/8JPbYY49o165dJv3/6T879dRT4957741p06ZlF9ZCfoywEO5spdhKd7a+/vpr+2oFS/t3Oibuu+++OO200/7hmEihDvw/6bjYc889s28DXnjhhTF06NCYN29ebNiwwflEcAkuwSW4BFflli6GEydOjKuuuipat26djRsvKSn5l9s8/Xfp8bZWrVrFZZddFhMmTIg1a9YYkGFARtFYv359jBs3LpsEmfbzHzomgH9UWlqanb86dOgQv/71r7Nf0BXDkxGCS3AJLsEluNhu6RG1dCJLv53ckQVllSpVski74447CuJxNwMy+CHpTuJdd91VEI+aQiFI15Z0d/iJJ56I5cuXO88ILsEluASX4Ko8ZsyYERdccEH2W8iyiIOzzjore/zKgAwDMgpV2n/79euXPcZpoQxlq0GDBvGrX/3KeU1wCS7BJbgEV+WJrZNOOimqVatWpo+Q9OzZM6ZOnWpAhgEZBSc98tS7d+9sP7Y4hvK7c5/Ob95JFVyCS3AJLsFV1NL7QOeee25UrVq1XB4dOeaYY/LqTpcBGfyQ9NjmGWecIbagAqR3Im+++eZsEq7zj+ASXIJLcAmuohyQceedd5brI1Nboysf7nQZkMG2HBPppX6PEULFPl74zDPPGKQhuASX4BJcgqv4jB8/PnbZZZcKeUn6uOOOiylTphiQYUBGXnv77bezcdYWwVCx9t1335gzZ47zkOASXIJLcAmu4vpNfhqSUVGPTaXoSu905SK6DMhgW6SJaelnb/ELuXmEOk24dZdLcAkuwSW4BFfRSN/aqujf5G+901WRjxcakMG2mjRpUjRv3tziF3J4l8udfcEluASX4BJcReP222/PHl3LxTdYKmqQhgEZbKuNGzfG4MGDfdAYcmjnnXfOztnOSYJLcAkuwSW4imJxefLJJ+f0w5flPUijkN7ZMiAj99KEtD59+mQf77bwhdxIj7j379/fOUlwCS7BJbgEV+GbPXt2HHTQQTm9sJbnII10DBiQwfZYunRp7Lbbbha9kGPp+3fr1693XhJcgktwCS7BVdjGjRsXnTp1yvmFtTwGaRiQwY6YOXNmNGzY0IIXcuywww6L+fPnOy8JLsEluASX4CpsI0eOzJvf5pflIA0DMvgxQ2TSt4AseCG3unfvXiHv+CK4BJcfguCiXI0YMSLat2+fNxfYshikYUAGP8aECRMEF+RJcFXkJFsEl+BCcFEu3n///ejYsWNeXWR/zCANAzL4sVLs77TTTha8kGOHHHJIzJ0713lJcAkuwSW4BFdh+/zzz+OAAw7IuwvtjgzSMCCDsrBkyZJo3bq1BS/kWK9evWL16tXOS4JLcAkuwSW4CtvatWuzEdj5eLHdnkEaBmRQVlauXJnFvrHwkDvp+EvnSeckwSW4BJfgElxF4aabbsreJcrX6PqhQRoGZFCWNmzYELfddpsPH0MOpUmhjz32mHOS4BJcgktwCa7iMHr06Nhll13y9sL77wZpGJBBeb3baDQ85E76XMmcOXOcjwSX4BJcgktwFYd169ZF37598/oRqu8bpGFABuW5gDj77LMtfCEHqlevHtddd52FtOASXIJLcAmu4rFly5Z48803o0mTJnl9Ef7uII3NmzcbkEG5evXVV6Np06YWwFDB9txzz+0amITgsh0El+CyHQrmLteAAQPy/r2V9Oc74YQT4vbbb8+r74cZkFF8VqxYEVdffXVUrVrVIhgqSJ06deL+++/P1i/OQ4JLcAkuwSW4is7s2bOzmMn3C3JaAKf3ofJ9ipwBGYVvxowZ2bnMQhgq5hdql156aSxbtsz5R3AJLsEluARX8Zo4cWL2sUkXfwMy+P9NmDAh9ttvP/s1lHNsnXLKKdkv/px3BJfgElyCS3BVigltBx10kO8QGZDBf7/j+OGHH8bhhx+evcxvH4eyVbNmzejXr1/MnDnTOUdwCS7BJbgEV+UxZswY0WVABt/xxRdfxGWXXWaQBpSh3XffPf7zP/8zFi9e7DwjuASX4BJcgqvy/VZ/7NixcfDBB4suAzL4ziCNNB3z1FNPjcaNG9vvYQelCbM/+9nPYvjw4QZkCC7BJbgEl+Cq3NGVHi/0TpcBGfyj9G7e66+/HgMHDozjjz8+2rZtmz0WVVpaCnyPunXrRocOHeLkk0+OQYMGxbvvvhsrV650PhFcgktwCS7BxdboSne6hJUBGfzvzymkx0enT58eH330UfYo7ujRo4HvSNeQyZMnZ4/lpkcHN2zY4PwhuASX4BJcgguDNAzIAADBJbgQXBikYUAGAAguBJfgwiANAzIAQHAJLsEluAQXBmkYkAEAgktwIbgwSMOADAAQXAguwYVBGgZkAIDgElyCS3AJLgzSMCADAASX4EJwYZCGARkAILhsB8EluGwHgzQMyAAAwSW4BJfgElwYpGFABgAILsGF4MIgDQMyAEBwCS7BJbhsB4M0DMgAAMEluASX4BJcGKRhQAYACC7BheDCIA0DMgBAcAkuwSW4BJfoKpRBGgZkAIDgElwILgzSMCADAASX4BJcgktwURiDNAzIAADBJbgQXBikYUAGAAguwSW4BJfgojAGaRiQAQCCC8EluDBIw4AMABBcgktwCS7BRWEM0jAgAwAEF4JLcGGQhgEZACC4BJfgElyCi8IYpGFABgAILgSX4MIgDQMyAEBwCS7BJbgEF4UxSKNmzZoGZACA4EJwCS4YN25cHHnkkVFaWlom+2C9evWif//+sXjxYj9fABBcCC7BBZ999lmcc8450aBBgx3e99L7YG3bts32/WXLlvm5AoDgQnAJLtgq7Td//OMf49BDD83ev9qe/a5x48bRr1+/eOutt2Ljxo1+ngAguBBcggv+WTqBfv755/HII4/EGWecEa1bt46qVatGSUnJ/5ImEO69997Z44N//etfY8mSJX6GACC4EFyCC7YlvNLJfOrUqfHGG29kd75uvfXWuOWWW+LOO++MJ598Mvue1+zZs2PVqlXZAA4/NwAQXAguwQU7uE9v2LAh1q9fnz0yuHnzZj8XABBcCC7BBQCA4BJcgktwCS4AAASX4EJwAQAguBBcggsAAMEluASX4BJcAAAILsGF4AIAQHDZDoJLcNkOAACCS3AJLsEluAAAEFyCC8EFAIDgElyCS3DZDgAAgktwCS7BJbgAABBcggvBBQCA4BJcgktwCS4AAMEluASX4BJcAAAILsGF4AIAQHAJLsEluAQXAIDgElyCS3AJLgAABJfgQnABACC4BJfgElyCCwBAcAkuwSW4BBcAAIJLcCG4AAAQXIJLcAkuwQUAILgEl+ASXIILAADBJbgQXAAACC7BJbgEl+ACABBcgktwCS7BBQCA4BJcCC4AAASX4BJcgktwAQAILsEluASX4AIAQHAJLj8EwQUAgOASXIJLcAkuAADBJbgEl+ASXAAACC4El+ACAEBwCS7BJbgEFwCA4BJcgktwCS4AAAQXgktwAQAguASX4BJcggsAQHAJLsEluAQXAACCC8EluAAAEFyCS3AJLsEFACC4BJfgElyCCwAAwYXgElwAAAguwSW4BJfgAgAQXIJLcAkuwQUAgOBCcAkuAAAEl+ASXIJLcAEACC7BJbgEl+ACAEBwIbgEFwAAgktwCS7BJbgAAASX4BJcgktwAQAguBBcggsAAMEluASX4BJcAACCS3AJLsEluAAAEFwILsEFAIDgElyCS3AJLgAABJfgQnABACC4EFyCCwAAwSW4BJfgElwAAAguwYXgAgBAcCG4BBcAAIJLcAkuwSW4AAAQXIILwQUAgOBCcAkuAAAEl+ASXIJLcAEAILgEF4ILAADBheASXAAACC7BJbgEl+ACAEBwCS4EFwAAggvBJbgAABBcgktwCS7BBQCA4BJcCC4AAAQXgktwAQAguASX4BJcggsAAMEluBBcAAAILgSX4AIAQHAJLsEluAQXAACCS3AhuAAAEFwILsEFAIDgElyCS3AJLgAABJfgQnABACC4EFyCCwAAwSW4BJfgElwAAAguwYXgAgBAcCG4BBcAAIJLcAkuwSW4AAAQXIILwQUAgOBCcAkuAAAEl+ASXIJLcAEAILgEF4ILit3mzZtj48aNsX79+kz6/9N/5mcDgOASXIJLcAku2AFr1qyJefPmxfjx4+Ppp5+Ou+66K2688ca46aab4u67747nn38+Jk2aFAsWLMgCzM8MAMGF4BJcwA9YtWpVjB49Om655Zb46U9/GnXq1InS0tIoKSn5X3baaafo0aNHFmMpzNatW+dnCIDgQnAJLuD7HhtMd6x+/vOfR+vWrbfrOEvx1aFDh+wO2IwZM/w8ARBcCC7BBWy1YcOGGDp0aHTr1i2qVKmyw8dbjRo14rDDDos33ngjO+79bAEQXAguwQWVWnoMMF0sWrZsWWbHXbt27eKZZ57xbhcAggvBJbigcg/GSAMwGjduXObHXqtWreKll14yzRAAwYXgElxQOWMrXSTKI7a26tSpU3zwwQd+3gAILgSX4ILK9RhhurO18847l+vxl94HO+2002LJkiV+7gAILgSX4ILKEVvpeCzPO1vf1aBBg3j00Uf97AEQXAguwQXFH1uDBg2qsNjaqk+fPvHVV1/ZBgAILgSX4AIDMspa+memUfG2AwCCC8EluMCAjHJwxx13GBMPgOBCcAkuMCCjPBieAYDgQnAJLjAgo5x069YtZs+ebbsAILgQXIILDMgoa61bt45p06bZNgAILgSX4AIDMspakyZNYsqUKbYPAIILwSW4wICMstaqVSt3uAAQXAguwQUGZJSHvffeO2bNmmU7ASC4EFyCCwzIKI+PH3/99de2FQCCC8EluMCAjLJ20003xdq1a20vAAQXgktwgQEZZalOnTrx8ssv214ACC4El+ACAzLKWroIen8LAMGF4BJcYEBGGatVq1b84Q9/sM0AEFwILsEFBmSUxzE4d+5c2w0AwYXgElxgQEZZat26dbz66qu2GwCCC8EluMCAjLLUsGHDGDx4cGzcuNG2A0BwIbgEFxiQUZax9Zvf/MYYeAAEF4JLcIEBGeURW6tWrbLtABBcCC7BBQZklJWddtopi60VK1bYdgAILgSX4AIDMspKgwYN4tZbb42VK1fadgAILgSX4KJQpfeCFixYENOmTYsPP/wwRo8eHaNGjYqJEydm/1n674rh3aFCGpCR7myl2Fq9erV9NEdh/tVXX8X06dP/55gYOXIk8B3vvPNOdnyk42ThwoXZceP8IbgEl+ASXIKL/7Zly5ZYtGhRvPbaa3HTTTdl23WXXXaJGjVqRGlpaaZ69erRqlWr6NGjR9xwww3ZOPK0CE1/rwEZ5fvOVoqt9Ge2r1asdEy88cYbMXDgwDjuuOOiTZs2/3BMAP+oZs2a0bZt2+jVq1d23ho+fHgsXbrU+URwCS7BJbgEV+WW7poMGzYsTjnllGjUqNE2b/v01/bp0yeefvrpWL58uQEZBmQUjfTY5osvvhinn356QewnkK+aNm0a/fr1i5dffjnWr1/v/CK4BJfgElyCq/KZMWNGXHrppdlFcUf3gRReF198cUyZMsWADAMyCt6cOXPiqquuimbNmlkwQxlJT0wMGDAg5s2b5zwjuASX4BJcgqvyGDduXHbyTI+B/Nj9oFq1anH44YfHmDFjDMgwIKNgH6v9+OOPs3NaemzQIhnKVtWqVbOnIj799FPnHMEluASX4BJcxW/8+PFx8MEHl+m+UKVKlejWrVv24nS+vddlQAY/ZPLkydkxkfZji2MoP8cee2x89tlnzjuCS3AJLsEluIrXrFmzomfPnuWyP6TF6j777JNNccuX6DIgg215jPDEE08UW1BBzjjjjGySofOP4BJcgktwCa6iHPl+9dVXR0lJSbntE2nRuu+++8bbb79tQIYBGQUxsTJN3UxTOC2EoWKkx9DT+W7Dhg3OQ4JLcAkuwSW4iusdlddff71C4iMfosuADLbFiBEjshf6LYKh4gdpfPDBB85DgktwCS7BJbiK6+5WemG5Ih+b2vpOlwEZBmTko/Q5gzSl0+IXKl4a2JQm3G7cuNH5SHAJLsEluARXcRg1alROfpOf3umqyEEaBmSwrT766KNo0aKFxS/kyG677ZYNrHE+ElyCS3AJLsFVFG688cacvKdSkYM0CmlARvp+mQEZuT1v3nfffWXyWQRgx9StWzf+8Ic/OCcJLsEluASX4CqOwQC9e/fO2UW1It7pKqQBGSm2brvtNgMycijdVUyT0kwmhNzq169f3n1KBMEluBBcbLcZM2bE/vvvn9OLanlGVyENyEjTCFNsGZCRW8uWLYvOnTtb8EKOHXnkkbFo0SLnJcEluASX4BJchW3s2LGx11575cXFtawHaRTSgIyt72wZkJF76RtAhXA3FIpduiZ8+umnzkuCS3AJLsEluAp/9HX79u3z5gJbVoM0DMhgR82cOTO722jBC7nVpUuXmDBhgvOS4BJcgktwCa7CNnLkyGwaVL5cYMtikIYBGfwYs2bNElyQB7p27RoTJ050XhJcgktwCS7BVdjGjRsXnTp1yquL7I95p8uADH6s9M5I8+bNLXghx7p37x7Tpk1zXhJcgktwCS7BVdhmz54dBx10UN5daHckugzIoCykjx6nfc+CF3LrmGOOsY4QXIJLcAkuwVUc+8gpp5yS1y9Nb8sgDQMyKMtPJVx88cXGwkOOpePQOUlwCS7BJbgEV1G44447onbt2nl70f2hQRoGZFCWNm/eHE888URUrVrVohdyeK4cMmSIc5LgElyCS3AJruIwadKkaNeuXd5eeP/dIA0DMigP6b2RPfbYw8IXciR9Cy9NDHU+ElyCS3AJLsFVFDZu3BgXXXRRlJaW5nV0/fM7XQZkUJ6PFd5www0WvpAD1apVi+uuuy672+x8JLgEl+ASXIKraKTRu23atMnri/B3o2v9+vUF886WARmFKX3/J30HyAIYKlaanDt9+nTnIcEluASX4BJcxXeXKwVMjRo1CmJU8AUXXBBNmzY1IINyfZdr8ODBUa9ePYtgqCB169aNRx55xCJacAkuwSW4BFdxWrx4cRYy+T4soKSkJHv8Md+nyBmQUfiWLVsWl1xySfaIk8UwlK/0C78BAwZkn2Zw/hFcgktwCS7BVbS++OKL6Nu3rwltZfDO1m9+8xsDMorAvHnz4uyzz3ZMQDmqVatW9i7x/PnznXcEl+ASXIJLcFWOCW19+vSxwDQgg//25ZdfxuWXX+7xQigH6bi65pprsl9uON8ILsEluASX4BJdGJBRiR8vfOCBB7IX+n0UGcrm8fCuXbtm72xZLwguwSW4BJfgqrSPF/bu3Vt0bcc7W+kxQgMyiteGDRvi448/juuvvz77dl36YHg+f04B8k06XtJxs+eee8Ytt9wSn332mQWz4BJcgktwCS7R5U7XtseWARmVQ/oswZw5c+Kxxx6L888/P5ucmRaQ7du3z0IM+H/ScdGhQ4fsOEnvaQ0dOjTmzp2b/QLD+URwCS7BJbgEF//XjBkzsugyqc2ADP7Rli1bsvHxa9euzd4/+fTTT2Py5MnAd6S7WOk9yPSx+nS8pOPG+UNwCS7BJbgEF97pMiADAASX4EJwIboMyAAAwYXgElx4p8uADAAQXIJLcAkuwYXoMiADAASX4EJwkdNBGieddFKlG6RhQAYACC7BheCiwt7pStFVWe50GZABAIJLcCG4qFDTp0+vFI8XGpABAIJLcCG48E6XARkAILgQXIIL0WVABgAILsEluASX4KLSDtIwIAMABJfgQnCRd+90FcMgjRRbv/3tbw3IAADBJbgQXIiush6QkWLLgAwAEFyCC8GFd7oMyAAAwYXgElz8f+3dW4xV5dnA8QznkyBnlFMR5CRgUUPUUikpVGOwHBRjDRdVqQLBWtBGa9KakBKN0CkCaYBWEKVSkRShEjRKbYWKmIIIctByEkMdEIZDM3P7fH3X99HPGK0D7pl9mN/FL+HCC7PXXmve/17velZ9s3v37qK605ViK41+NyADAASX4EJwYZCGARkAILgcB8EluBwHz3QV9jNdBmQAgOASXAguRJcBGQAguASX4BJcgoviGKRhQAYACC7B5UMQXBikYUAGAAguwSW4BJfgouaDNMaOHZu3QRoGZACA4EJwCS5K/pmufESXARkAILgQXIKLehVddbW90IAMABBcCC7BhUEaBmQAgOASXIJLcAkuimOQhgEZACC4EFyCi3o/SGPcuHE5f6arffv2WWwZkAEAggvBJbio99E1adKkaNasWU6+g926dcsuxgZkAIDgQnAJLvi3/fv3xy9+8Yvo1KlTlJWVXdB3r2HDhnHNNdfEypUr3dkCAMGF4BJc8Fkpkl555ZUYP3589vxVTZ7tSnGW7oz16NEjHn744exumYswAAguBJfggi9QXV2djW9/9dVXY9q0aTF06NDo2bNndOzYMdq0aZNJY967dOkSvXv3zi726bueRs2fPn3aZwgAggvBJbigJuFVVVUVFRUVsXnz5myb4MKFC2PevHmxePHiWLNmTRZZp06dyv5bnxkACC4El+ACAEBwCS7BJbgEFwAAgktwIbgAABBcCC7BBQCA4BJcgktwCS4AAASX4EJwAQAguBBcggsAAMEluASX4BJcAAAILsGF4AIAQHAhuAQXAACCS3AJLsEluAAAEFyCC8EFAIDgQnAJLgAABJfgElyCS3ABACC4BBeCCwAAwYXgElwAAAguwSW4BJfgAgBAcAkuBBcAAILLcRBcggsAAMEluASX4BJcAAAILsGF4AIAQHA5DoJLcDkOAACCS3AJLsEluAAAEFyCC8EFAIDgElyCS3AJLgAAwSW4BJfgElwAAAguwYXgAgBAcAkuwSW4BBcAgOASXIJLcAkuAAAEl+BCcAEAILgEl+ASXIILAEBwCS7BJbgEFwAAgktwIbgAABBcgktwCS7BBQAguASX4BJcggsAAMEluBBcAAAILsEluASX4AIAEFyCS3AJLsEFAIDgElwILgAABJfgElyCS3ABAAguwSW4BJfgAgBAcAkuH4LgAgBAcAkuwSW4BBcAgOASXIJLcAkuAAAEF4JLcAEAILgEl+ASXIILAEBwCS7BJbgEFwAAggvBJbgAABBcgktwCS7BBQAguASX4BJcggsAAMGF4BJcAAAILsEluASX4AIAEFyCS3AJLsEFAIDgQnAJLgAABJfgElyCS3ABAAguwSW4BJfgAgBAcCG4BBcAAIJLcAkuwSW4AAAEl+ASXIJLcAEAILgQXIILAADBJbgEl+ASXAAAgktwCS7BJbgAABBcCC7BBQCA4BJcgktwCS4AAMEluASX4BJcAAAILgSX4AIAQHAJLsEluAQXAACCS3AhuAAAEFwILsEFAIDgElyCS3AJLgAABJfgQnABACC4EFyCCwAAwSW4BJfgElwAAAguwYXgAgBAcCG4BBcAAIJLcAkuwSW4AAAQXIILwQUAgOBCcAkuAAAEl+ASXIJLcAEAILgEF4ILAADBheASXAAACC7BJbgEl+ACAEBwCS4EFwAAggvBJbgAABBcgktwCS7BBQCA4BJcCC4AAAQXgktwAQAguASX4BJcggsAAMEluBBcAAAILgSX4AJqqqqqKk6cOJGdS5988klUVlb6XAAQXIJLcAkuwQUXqqKiIjZu3Bjz58+Pn/70p3H33XfHHXfcET/4wQ9i8uTJ8bOf/SwWLVoUmzdvjtOnT/vMABBcCC7BBXyVo0ePZiE1duzY6Nu3b7Ro0eJLz6+LLrooBg0aFLfffns8//zzcfz4cZ8hAIILwSW4gM9Ld6nWr18f3/ve96JNmzZRVlZW4/Ms/bcdOnSICRMmxF//+ld/eAAQXAguwQWck86RJ554Ijp37nxeofV5DRo0iD59+sTixYs95wWA4EJwCS7gyJEjMWPGjGx7YK7Ou3bt2mUBd/LkSZ8xAIILwSW4oH76+OOP48c//nFOY+uctC2xvLw8O/991gAILgSX4IJ6NxyjtmLrnB49esTq1at93gAILgSX4IL6I71L6/77749WrVrV+jk4atSo+OCDD3zuAAguBJfggvrxRynF1n8b955LzZs3jyeffNJnD4DgQnAJLij9ARlpG2HLli3r9DxMfwT37NnjGAAguBBcggsMyMi1tHVx1apVjgMAggvBJbjAgIza8Oijj8apU6ccDwAEF4JLcIEBGbl2yy23xOHDhx0TAAQXgktwgQEZuTZ48GDPcQEguBBcggsMyKgNl156aezYscOxAUBwIbgEFxiQkWsdOnSI7du3Oz4ACC4El+ACAzJyrXv37u5wASC4EFyCCwzIqA1Dhw6NvXv3Ok4ACC4El+ACAzJy7dZbb822OjpWAAguBJfgAgMycmzWrFlx9uxZxwsAwYXgElxgQEYutWvXLtatW+d4ASC4EFyCCwzIqI2XHh88eNAxA0BwIbgEFxiQkUsXX3xxLF682DEDQHAhuAQXGJCRaxMmTMjuxDluAAguBJfgAgMycmjw4MHxxhtvOG4ACC4El+ACAzJy/aLjFStWRHV1tWMHgOBCcAkuMCAjV7p16xa/+93vsnPfsQNAcCG4BBcYkJEjXbt2zWLLO7cAEFwILsEFBmTk+M7WkiVL3NkCQHAhuAQXGJCR69hatGiRPzoACC4El+CimB0/fjy2bNkSK1eujPnz52cXuiT9+/nnn4+//e1vcezYMQMy6ngboTtb+XPy5Mn/nBNPPfVUPP744zF79mzgM5544olYsGBBvPDCC7F169Y4ceKE64fgElyCS3AJLs6pqqqK3bt3Z38wb7nllmzceOfOnaN58+bRoEGDTPp3p06dYtCgQTFmzJjsO7dr166ivAgakMFXSdMf9+zZE3PmzMnOiSFDhmTnRLNmzaKsrKzgvzdQ19J5kf5OdOnSJTtfxo0bF+Xl5fHhhx+apiq4BJfgElyCq34vKtO2uvTrZIqs89lalwZMDBw4MGbNmhWHDh0qmj+oBmRQk62mKbSuvPLKovieQKFKP2oNHTo0Cy9rBcEluASX4BJc9fJ7k16aO3r06OxXyQv9DjRt2jS7CL/22msFHwYGZPBVd3o3bdqU3dFK32sLZsiN9GPe2LFjs62G6TxzvRFcgktwCS7BVfJSGL344ovZHapcfRcGDBiQPeN15swZAzIMyCjKu70vvfRSthXKlkGonS2HV199dWzYsEF0CS7BJbgEl+Aq/V/x16xZE/369cv596F3797xzDPPFNxdGQMy+Cpr166N/v37WxhDLUs/aqQdEa47gktwCS7BJbhKVtrS8c1vfrPWvhO9evXKoqtQLo4GZPBV3n777bj22msthqGOfPvb386GLrn+CC7BJbgEl+AqORUVFTFx4sRa3zJVKNFlQAY1+Y7cc889FsFQhxo2bBhTpkwxOl5wCS7BJbgEV+k9o7Js2bJo3bp1nXw3vvGNb2TRla+AMCCDmkjvDGrbtq1FMNSxdN6tW7fOyHjBJbgEl+ASXKV1d2vkyJF1+v247LLLYvny5XU+SMOADGr6bN9tt91m8Qt5kN7vOH78+KisrHQ9ElyCS3AJLsFVGlavXp29uLWuvyN1PUjDgAxqKr0WoV27dha/kCfdu3fPzkPXI8EluASX4BJcJWH69OnZvvl8fE/q6pkuAzI4n1cj/PKXv8x+ZbfwhfxI74B87LHHXJMEl+ASXIJLcJXGdsIbb7wxr39Yazu6DMjgfHz66afZC469cwvya8KECRbTgktwCS7BJbiK37Zt2+Kqq67K+x/WFF3pma5ch4YBGZyvdN3q27evBS8UwIj4AwcOuC4JLsEluASX4CpuGzdurJUXHV/oII1nn302Z9FlQAYXIi3w2rdvb8ELeZbeC/nOO++4LgkuwSW4BJfgKm7r16/PQqdQ/sCmQRrpTtfXvctjQAYX6v333zcOHgrAFVdcEZs2bXJdElyCS3AJLsFV3F555ZUscgrpj+y5kfEXehE1IIOvY9++fYILCsCQIUNiy5YtrkuCS3AJLsEluIrbW2+9FYMHDy64P7Tnnuk63wupARnk4vUBl156qQUv5NmwYcNi165drkuCS3AJLsEluIr/eZX0YHIh/rE930EaBmSQq8md1113nQUv5FmaoHvs2DHXJcEluASX4BJcxa2qqiruuOOOgv2Dm7Y71mSQhgEZ5EplZWVMmzbNe7ggj9JrGaZOneqaJLgEl+ASXIKrNJSXl0fr1q0LOrr+2yANAzLIperq6vjDH/4QjRs3tvCFPEmTQtOPba5JgktwCS7BJbhKQtoj379//4L+4/tlgzQMyKA27NmzJ4YOHWrhC3ly9dVXx+HDh12PBJfgElyCS3CVhnSxmjlzZsH/ov/5QRoGZFBb0nFK1860rcniF+pWs2bNYvbs2dmWd9cjwSW4BJfgElwlY+fOnTFw4MCC/0OcoittMzl06FB2Z8uADGrLu+++G9dff70FMNSxa6+9Ng4ePOg6JLgEl+ASXIKr9L4rKQqK4f1Dffv2jZtuuqmgnzszIKM0LFu2LDp16mQRDHWkS5cu8eKLL7q7JbgEl+ASXIKrNB0/fjweeuihaN68uT/8BmTwbydPnoyf//znRbFtFYpdmzZtsq2E6bxz/RFcgktwCS7BVbLSxL8pU6Zke+gtAAzI4H8Hs/ghAmo/th5++OHs2VzXHcEluASX4BJcJS+902ry5Mmiy4AM/k9aBKZf3jt27GiQBuTYJZdcki2c00vHXW8El+ASXIJLcNWrC6joMiCD/3f69On44x//GCNGjLDFEHJ0Vyst1P/0pz9l55frjOASXIJLcAmuehtdtlIZkMH/S9PT5s6dG6NHj86OeaNGjXz/oYbS+dKjR49s8NG8efOybeyuK4JLcAkuwSW46v0zXffdd5/oMiCDL9h6u2bNmmyr4Y9+9KMYO3ZsjBo1KkaOHAl8RvpxYty4cXHvvfdma5J169Zli3TXEcEluASX4BJcfGZhmaLL9kIDMvhilZWV2bvh9u7dG7t37wY+Y9++fXH48OHsPHG9EFyCS3AJLsGFQRoGZACA4BJcCC4M0jAgAwAEl+MguASX41ByF9b0vEp9f6bLgAwAEFyCC8GFQRoGZACA4EJwCS6K8ZmuKVOm1LvoMiADAASX4EJwUWfRlbYX1pdnugzIAADBJbgQXOTlma5Sjy4DMgBAcAkuBBcGaRiQAQCCC8EluDBIw4AMABBcgktwCS7BRb0dpGFABgAILsGF4MIgDQMyAEBwIbgEFwZpGJABAIJLcAkuwSW4+NqOHj1alIM0DMgAAMEluBBcFM0gjWJ6psuADAAQXIILwYVBGgZkAIDgElyCS3AJLopjkIYBGQAguAQXgouSGKRRaHe6DMgAAMEluBBclMwgjXvvvbdgosuADAAQXILLhyC4MEjDgAwAEFyCS3AJLsFFcUSXARkAILgQXIKLko+utL2wrgdpGJABAIILwSW4qDcX6bp8psuADAAQXAguwYVBGgZkAIDgElyCS3AJLorjmS4DMgBAcCG4BBf1Wno58tSpU3MeXd27dzcgAwAEF4JLcEG6aM+cOTMuvvjir/39KysriwEDBsTvf/97AzIAQHAhuAQXJCdOnMietRo0aFA0bdr0gr57rVu3jjFjxsRf/vKXqKqq8rkCgOBCcAkuOCdF0rZt2+KBBx6IIUOG1HibYfv27eM73/lOzJs3L/sD4LMEAMGF4BJc8CXSVsCtW7dGeXl53HXXXXHDDTdEv3794pJLLomOHTtmz2elILv55pvjJz/5STz77LNx4MCBqK6u9vkBgOBCcAkuqKnjx4/Hrl27YtOmTfHqq6/Ghg0b4vXXX8+CbP/+/XHmzBmfEwAILgSX4AIAQHAJLsEluAQXAACCS3AhuAAAEFwILsEFAIDgElyCS3AJLgAABJfgQnABACC4EFyCCwAAwSW4BJfgElwAAAguwYXgAgBAcCG4BBcAAIJLcAkuwSW4AAAQXIILwQUAgOBCcAkuAAAEl+ASXIJLcAEAILgEF4ILAADB5TgILsHlOAAACC7BJbgEl+ACAEBwCS4EFwAAgktwCS7BJbgAAASX4BJcgktwAQAguAQXggsAAMEluASX4BJcAACCS3AJLsEluAAAEFyCC8EFAIDgElyCS3AJLgAAwSW4BJfgElwAAAguwYXgAgBAcAkuwSW4BBcAgOASXIJLcAkuAAAEl+BCcAEAILgEl+ASXIILAEBwCS7BJbgEFwAAgktwIbgAABBcgktwCS7BBQAguASX4BJcggsAAMEluHwQggsAAMEluASX4BJcAACCS3AJLsEluAAAEFyCy4cguAAAEFyCS3AJLsEFACC4BJfgElyCCwAAwYXgElwAAAguwSW4BJfgAgAQXIJLcAkuwQUAgOBCcAkuAAAEl+ASXIJLcAEACC7BJbgEl+ACAEBwIbgEFwAAgktwCS7BJbgAAASX4BJcgktwAQAguBBcggsAAMEluASX4BJcAACCS3AJLsEluAAAEFwILsEFAIDgElyCS3AJLgAAwSW4BJfgElwAAAguBJfgAgBAcAkuwSW4BBcAgOASXIJLcAkuAAAEF4JLcAEAILgEl+ASXIILAADBJbgEl+ACAEBwIbgEFwAAgktwCS7BJbgAABBcggvBBQCA4EJwCS4AAASX4BJcgktwAQAguAQXggsAAMGF4BJcAAAILsEluASX4AIAQHAJLgQXAACCC8EluAAAEFyCS3AJLsEFAIDgElwILgAABBeCS3ABACC4BJfgElyCCwAAwSW4EFwAAAguBJfgAgBAcAkuwSW4BBcAAIJLcCG4AAAQXAguwQUAgOASXIJLcAkuAAAEl+BCcAEAILgQXIILAADBJbgEl+ASXAAACC7BheACAEBwIbgEFwAAgktwCS7BJbgAABBcggvBBQCA4EJwCS4AAASX4BJcgktwAQAguAQXggsAAMGF4BJcAAAILsEluASX4AIAQHAJLgQXAACCC8EluAAAEFyCS3AJLsEFAIDgElwILgAABBeCS3ABACC4BJfgElyCCwAAwSW4EFwAAAgux0FwCS7HAQBAcAkuwSW4BBcAAIJLcCG4AAAQXIJLcAkuwQUAILgEl+ASXIILAADBJbgQXAAACC7BJbgEl+ACABBcgktwCS7BBQCA4BJcCC4AAASX4BJcgktwAQAILsEluASX4AIAQHAJLgQXAACCS3AJLsEluAAABJfgElyCS3ABACC4BBeCCwAAwSW4BJfgElwAAIJLcAkuwSW4AAAQXIILwQUAgOASXIJLcAkuAADBJbgEl+ASXAAACC7B5YMQXAAACC7BJbgEl+ACABBcgktwCS7BBQCA4BJcPgTBBQCA4BJcgktwCS4AAMEluASX4BJcAAAILgSX4AIAQHAJLsEluAQXAIDgElyCS3AJLgAABBeCS3ABACC4BJfgElyCCwBAcAkuwSW4BBcAAIILwSW4AAAQXIJLcAkuwQUAILgEl+Cqt8H1+OOP5y24jh496jgAAJSojz/+OEaOHJmXteaTTz4puARX/lVVVcWcOXPychKMGDEiDh8+7DgAAJSo/fv3x/Dhw/Oy1vzVr34V1dXVjoPgyq/0Jfz1r3+dl5PgmmuuiR07djgOAAAl6u9//3sMHTo0L2vNhQsXOgaCqzAsWbIkLyfBZZddFhs2bHAMAABK1Nq1a6Nnz555WWsuXbrUMRBchWHlypV5OQlatGgR8+fPdwwAAEpUenSlSZMmdb7ObNiwYaxatcoxEFyF88tD69at8xJdkydPjhMnTjgOAAAlpqKiIiZNmpSXNWbbtm3j5ZdfdhwEV2F44403olevXnk5GQYMGBCbN292HAAASszGjRuzR0jysca8/PLL480333QcBFdh2LZtWwwbNiwvJ0Py2GOPxenTpx0LAIASkXYwPfjgg3lbX37rW9+K9957z7EQXIXho48+ivHjx+fthOjdu7dfIAAASkgajNa1a9e8rS8nTpyYvXTZsRBcBSG9EG769Ol5OyHKysqy4EsvxnM8AACKW3r31qhRo7I1Xr7WlzNmzPAOLsFVWMrLy/MyQeacZs2aZSfGp59+6ngAABSpf/7zn3H33XdHo0aN8rauTJOwFyxY4HgIrsKSz3cknJMmJT7yyCPxySefOCYAAEXmyJEjMW3atCx48rmmTI+reNer4Co4H374YfZwYT5PjuSiiy6K++67L3bu3BlVVVWODQBAETyesnXr1rjzzjuzXUv5Xk+OGDEiDh8+7NgIrsJz11135f0EOfeiunSiPP3009ltaccGAKAwpbBJ2/fyOfH687MBpkyZ4tgIrsL029/+NntJXCGcLEmHDh3i5ptvjqeeeip27doVZ8+eze56JekhSAAA6s65ddiZM2di+/btMWfOnBg9enS0adOmoNaPK1assLYXXIXpgw8+yF5EXCgnzLlfKdJJ3KdPn7jxxhvjgQceiLlz52Zx+MwzzwAAUAfS2isF1v33359NIEzPSaVHQfI5ifCLDB482HZCwVXY+2/TVJm0pa+QTpzPxlfjxo2jefPm0bJlSwAA6kgahJHWYGktVmiRdU76f0uvOkprWmt7wVWQ0q3il19+uaBuCwMAQE20a9cuNm7caF0vuApbRUVFjBw5smB/uQAAgC/aCTVmzJg4fvy4Nb3gKmzpQcilS5dmt2SdvAAAFIO03fGFF17IdmxZ0wuuohieMXz4cCcvAABF4aabboqDBw9aywuu4rnL9Zvf/CaaNGniBAYAoKC1atUqli9fbh0vuIrLvn37sjHsTmIAAArZ+PHj49ChQ9bwgqv4LFu2LHt5nBMZAIBC1LVr11i1apW1u+AqTseOHYtJkyZFgwYNnNAAABSUNORt6tSpcfLkSWt3wVW83nrrrejfv7+TGgCAgnLllVfGjh07rNkFV3FLb+peuHChlyEDAFAw2rdvH88995wx8IKrNKQXyN1zzz22FgIAUBBbCWfMmBGVlZXW6oKrdLz//vvx3e9+10kOAEBejR07Ng4cOGCNLrhKz2uvvRaDBw92ogMAkBfDhg2LLVu2WJsLrtJ9IfKKFSuiZ8+eTngAAOpUv3794qWXXrIuF1yl7V//+lcsWLAgOnfu7MQHAKBOpB/8ly9fnt0AsCYXXCXvzJkzMXfu3OjUqZMLAAAAtapHjx6xePHibHq2tbjgqlfRNW/evOzt3i4EAADUhj59+sTTTz+d7bKyBhdc9c7p06ezE+Dyyy93QQAAIKeGDBkSq1atyn7ot/YWXPXW2bNnY+3atXHVVVe5MAAA8LWld78OHz48Xn/9ddsIBRfnphe+88478f3vfz9atGjhQgEAwAVp3bp13Hnnndk7YKurq621BRefdeTIkXjkkUeyBxtdMAAAOB+9e/eO2bNnR0VFhbW14OLLnDp1KttrO3r06GjWrJmLBwAA/1XLli2znVLr16/3vJbgoqb27duX/UKRfqlI+3BdTAAA+KyGDRvGFVdcEeXl5XHw4EFraMHF+aqsrIy33347pkyZkr0ouVGjRi4uAAD1XFoTduvWLWbOnBnvvvuuu1qCi1yE15tvvhk//OEPo1evXtG4cWMXGwCAeqZp06bZ64SmTp0aW7duzV4xZK0suMjxCPlNmzbFgw8+GNdff320bdvWxQcAoMR16NAhbrjhhnj00Uez0DLqXXBRy9KIz71798bSpUuzXziGDRsWrVq1ckECACgRbdq0yX5gnz59ejz33HPxj3/8w5h3wUU+nDx5MrZv3x6rV6+OWbNmxa233hr9+vWL5s2bZw9SpoEbSVlZWcYFDAAgv86ty86t09KaLb2LdeDAgXH77bdng9PWrFkT7733XvZoiTWv4KJApH28H330UXZypjeLL1q0KNt+eNttt8V1110Xffv2jY4dO2Z3w5o0afKfkxwAgNqV1l5pDZbWYunH8XT3auLEifHQQw/FkiVL4s9//nPs3Lkzey+rIRiCCwAAAMEFAAAguAAAAAQXAAAAggsAAEBwAQAACC4AAAAEFwAAgOACAAAQXAAAAAguAAAAwQUAACC4AAAAEFwAAACCCwAAQHABAAAguAAAAAQXAACA4AIAAEBwAQAACC4AAADBBQAAgOACAAAQXAAAAIILAAAAwQUAACC4AAAABBcAAACCCwAAQHABAAAILgAAAAQXAACA4AIAABBcAAAACC4AAADBBQAAILgAAAAQXAAAAIILAABAcAEAAJA7/wOIt07cUI7NNgAAAABJRU5ErkJggg==;" vertex="1" parent="1">
          <mxGeometry x="740" y="-2.5" width="47.73" height="60" as="geometry" />
        </mxCell>
      </root>
    </mxGraphModel>
  </diagram>
</mxfile>
